<?xml version="1.0" encoding="iso-8859-1"?>
<!-- Generator: Adobe Illustrator 17.1.0, SVG Export Plug-In . SVG Version: 6.00 Build 0)  -->
<!DOCTYPE svg PUBLIC "-//W3C//DTD SVG 1.1//EN" "http://www.w3.org/Graphics/SVG/1.1/DTD/svg11.dtd">
<svg xmlns="http://www.w3.org/2000/svg" xmlns:xlink="http://www.w3.org/1999/xlink" version="1.1" id="Capa_1" x="0px" y="0px" viewBox="0 0 383.411 383.411" style="enable-background:new 0 0 383.411 383.411;" xml:space="preserve" width="512px" height="512px">
<path d="M335.588,69.176L257.006,7.262C251.838,3.189,242.635,0,236.056,0H53.063c-8.271,0-15,6.729-15,15v353.411  c0,8.271,6.729,15,15,15h277.285c8.271,0,15-6.729,15-15V89.293C345.348,82.209,341.152,73.562,335.588,69.176z M179.039,284.85  l-53.439-0.368l-5.402-8.877l-21.036-36.817l10.971-19.921l-11.55-6.966l40.954-9.972l9.525,40.309l-11.019-6.563l-8.852,15.498  l50.101,0.419L179.039,284.85z M194.444,145.327l-25.273,43.262l-28.731-16.754l23.251-39.837c2.289-3.906,4.106-6.621,4.106-6.621  l52.322,0.053l11.83,19.423l11.786-6.558l-11.709,40.492l-39.709-11.777l11.173-6.298L194.444,145.327z M280.907,245.073  l-22.102,36.187h-22.742l-0.53,13.477l-28.492-31.063l30.714-27.788l-0.433,12.818l17.845,0.278l-23.802-44.089l29.255-15.823  l25.88,46.497L280.907,245.073z M308.882,85.441h-62.499c-5.5,0-10-4.5-10-10V28.289c0-5.5,3.49-7.159,7.756-3.687l66.988,54.526  C315.392,82.6,314.382,85.441,308.882,85.441z" fill="#006DF0"/>
<g>
</g>
<g>
</g>
<g>
</g>
<g>
</g>
<g>
</g>
<g>
</g>
<g>
</g>
<g>
</g>
<g>
</g>
<g>
</g>
<g>
</g>
<g>
</g>
<g>
</g>
<g>
</g>
<g>
</g>
</svg>
