<?xml version="1.0" encoding="iso-8859-1"?>
<!-- Generator: Adobe Illustrator 18.0.0, SVG Export Plug-In . SVG Version: 6.00 Build 0)  -->
<!DOCTYPE svg PUBLIC "-//W3C//DTD SVG 1.1//EN" "http://www.w3.org/Graphics/SVG/1.1/DTD/svg11.dtd">
<svg version="1.1" id="Capa_1" xmlns="http://www.w3.org/2000/svg" xmlns:xlink="http://www.w3.org/1999/xlink" x="0px" y="0px"
	 viewBox="0 0 458 458" style="enable-background:new 0 0 458 458;" xml:space="preserve">
<path style="fill:#66645D;" d="M169.325,458c-38.418,0-69.674-31.256-69.674-69.675V219h20v169.325
	c0,27.391,22.284,49.675,49.674,49.675c13.267,0,25.743-5.169,35.13-14.556c9.379-9.379,14.545-21.852,14.545-35.119V69.675
	C219,31.256,250.256,0,288.675,0c18.609,0,36.108,7.25,49.272,20.414c13.157,13.157,20.402,30.651,20.402,49.26V239h-20V69.675
	c0-13.267-5.166-25.739-14.545-35.118C314.418,25.169,301.942,20,288.675,20C261.284,20,239,42.284,239,69.675v318.651
	c0,18.609-7.246,36.104-20.402,49.26C205.433,450.75,187.935,458,169.325,458z"/>
<path style="fill:#B6CCE0;" d="M385.429,266.76v76.955c0,3.2-2.594,5.794-5.794,5.794h-62.571c-3.2,0-5.794-2.594-5.794-5.794
	v-77.635c0-20.738,17.022-37.505,37.87-37.071C369.421,229.43,385.429,246.475,385.429,266.76z"/>
<rect x="322.698" y="349.508" style="fill:#BAB388;" width="51.302" height="28.968"/>
<rect x="84" y="79.524" style="fill:#BAB388;" width="51.302" height="28.968"/>
<path style="fill:#E59683;" d="M146.73,114.286v76.955c0,20.285-16.008,37.329-36.289,37.751
	c-20.848,0.434-37.87-16.334-37.87-37.071v-77.635c0-3.2,2.594-5.794,5.794-5.794h0h62.571l0,0
	C144.136,108.492,146.73,111.086,146.73,114.286z"/>
<g>
</g>
<g>
</g>
<g>
</g>
<g>
</g>
<g>
</g>
<g>
</g>
<g>
</g>
<g>
</g>
<g>
</g>
<g>
</g>
<g>
</g>
<g>
</g>
<g>
</g>
<g>
</g>
<g>
</g>
</svg>
