<?xml version="1.0" encoding="iso-8859-1"?>
<!-- Generator: Adobe Illustrator 18.0.0, SVG Export Plug-In . SVG Version: 6.00 Build 0)  -->
<!DOCTYPE svg PUBLIC "-//W3C//DTD SVG 1.1//EN" "http://www.w3.org/Graphics/SVG/1.1/DTD/svg11.dtd">
<svg version="1.1" id="Capa_1" xmlns="http://www.w3.org/2000/svg" xmlns:xlink="http://www.w3.org/1999/xlink" x="0px" y="0px"
	 viewBox="0 0 407.46 407.46" style="enable-background:new 0 0 407.46 407.46;" xml:space="preserve">
<path style="fill:#B9E0EF;" d="M99.57,28.61l35.04,55.53c-20.91,12.12-38.36,29.56-50.47,50.48L28.6,99.58
	C45.97,70.42,70.42,45.98,99.57,28.61z"/>
<path style="fill:#B3D2E2;" d="M6.23,153.54l64.06,14.5c-3.04,11.38-4.67,23.35-4.67,35.69c0,12.35,1.63,24.31,4.67,35.69
	l-64.06,14.5C2.16,237.86,0,221.05,0,203.73S2.16,169.6,6.23,153.54z"/>
<path style="fill:#A1C2D6;" d="M134.61,323.32l-35.04,55.53c-29.15-17.37-53.6-41.81-70.97-70.97l55.54-35.04
	C96.25,293.76,113.7,311.21,134.61,323.32z"/>
<path style="fill:#D38D7F;" d="M401.23,153.55c4.07,16.05,6.23,32.86,6.23,50.18s-2.16,34.13-6.23,50.18l-64.06-14.49
	c3.03-11.38,4.66-23.34,4.66-35.69c0-12.34-1.63-24.31-4.66-35.69L401.23,153.55z"/>
<path style="fill:#E59683;" d="M378.86,99.58l-55.54,35.04c-12.12-20.92-29.56-38.36-50.48-50.48l35.04-55.54
	C337.03,45.97,361.48,70.42,378.86,99.58z"/>
<path style="fill:#C17E72;" d="M323.32,272.84l55.53,35.05c-17.37,29.15-41.82,53.6-70.97,70.97l-35.04-55.54
	C293.76,311.21,311.2,293.76,323.32,272.84z"/>
<path style="fill:#9DBBD1;" d="M239.42,337.17l14.5,64.06c-16.06,4.07-32.87,6.23-50.19,6.23s-34.14-2.16-50.2-6.23l14.5-64.06
	c11.39,3.04,23.35,4.67,35.7,4.67C216.07,341.84,228.03,340.21,239.42,337.17z"/>
<path style="fill:#E2BAB5;" d="M253.92,6.23l-14.5,64.06c-11.39-3.04-23.35-4.67-35.69-4.67c-12.35,0-24.31,1.63-35.7,4.67
	l-14.5-64.06C169.59,2.16,186.41,0,203.73,0S237.86,2.16,253.92,6.23z"/>
<path style="fill:#4D4D4D;" d="M283.146,118.692c-4.037-3.77-10.364-3.554-14.135,0.482l-65.291,69.905l-65.281-69.904
	c-3.769-4.038-10.099-4.252-14.134-0.483c-4.036,3.77-4.253,10.098-0.483,14.134l69.898,74.848v94.867c0,5.523,4.478,10,10,10
	s10-4.477,10-10v-94.866l69.908-74.848C287.398,128.79,287.182,122.461,283.146,118.692z"/>
<g>
</g>
<g>
</g>
<g>
</g>
<g>
</g>
<g>
</g>
<g>
</g>
<g>
</g>
<g>
</g>
<g>
</g>
<g>
</g>
<g>
</g>
<g>
</g>
<g>
</g>
<g>
</g>
<g>
</g>
</svg>
