<?xml version="1.0" encoding="iso-8859-1"?>
<!-- Generator: Adobe Illustrator 18.0.0, SVG Export Plug-In . SVG Version: 6.00 Build 0)  -->
<!DOCTYPE svg PUBLIC "-//W3C//DTD SVG 1.1//EN" "http://www.w3.org/Graphics/SVG/1.1/DTD/svg11.dtd">
<svg version="1.1" id="Capa_1" xmlns="http://www.w3.org/2000/svg" xmlns:xlink="http://www.w3.org/1999/xlink" x="0px" y="0px"
	 viewBox="0 0 418.26 418.26" style="enable-background:new 0 0 418.26 418.26;" xml:space="preserve">
<polygon style="fill:#EAE8DC;" points="270.03,194.48 314.75,252.7 291.92,252.7 291.92,301.66 248.15,301.66 248.15,252.7 
	225.32,252.7 "/>
<polygon style="fill:#EAE8DC;" points="192.93,243.44 148.22,301.66 103.51,243.44 126.33,243.44 126.33,194.48 170.11,194.48 
	170.11,243.44 "/>
<path style="fill:#B6CCE0;" d="M343.75,191.93c41.15,0,74.51,33.35,74.51,74.5s-33.36,74.51-74.51,74.51H95.87
	C42.92,340.94,0,298.01,0,245.06s42.92-95.88,95.87-95.88c9.82,0,19.29,1.48,28.2,4.22c-0.31-2.65-0.49-5.34-0.49-8.07
	c0-37.56,30.45-68.01,68-68.01c36.3,0,65.95,28.43,67.9,64.24c8.64-7.79,20.06-12.53,32.6-12.53c26.9,0,48.7,21.8,48.7,48.7
	c0,5.01-0.76,9.84-2.17,14.39C340.31,192.01,342.02,191.93,343.75,191.93z M314.75,252.7l-44.72-58.22l-44.71,58.22h22.83v48.96
	h43.77V252.7H314.75z M148.22,301.66l44.71-58.22h-22.82v-48.96h-43.78v48.96h-22.82L148.22,301.66z"/>
<g>
</g>
<g>
</g>
<g>
</g>
<g>
</g>
<g>
</g>
<g>
</g>
<g>
</g>
<g>
</g>
<g>
</g>
<g>
</g>
<g>
</g>
<g>
</g>
<g>
</g>
<g>
</g>
<g>
</g>
</svg>
