<?xml version="1.0" encoding="iso-8859-1"?>
<!-- Generator: Adobe Illustrator 19.0.0, SVG Export Plug-In . SVG Version: 6.00 Build 0)  -->
<svg version="1.1" id="Layer_1" xmlns="http://www.w3.org/2000/svg" xmlns:xlink="http://www.w3.org/1999/xlink" x="0px" y="0px"
	 viewBox="0 0 512 512" style="enable-background:new 0 0 512 512;" xml:space="preserve">
<rect x="129.499" y="10.199" style="fill:#ABABAB;" width="252.991" height="491.602"/>
<g>
	<rect x="129.499" y="10.199" style="fill:#FFFFFF;" width="252.991" height="81.594"/>
	<rect x="129.499" y="91.793" style="fill:#FFFFFF;" width="252.991" height="81.594"/>
	<rect x="129.499" y="254.98" style="fill:#FFFFFF;" width="252.991" height="81.594"/>
</g>
<g>
	<rect x="129.499" y="373.291" style="fill:#FF343B;" width="42.857" height="62.215"/>
	<rect x="339.633" y="373.291" style="fill:#FF343B;" width="42.837" height="62.215"/>
</g>
<path d="M119.304,501.801c0,5.633,4.567,10.199,10.199,10.199h252.994c5.632,0,10.199-4.566,10.199-10.199V10.199
	C392.696,4.566,388.129,0,382.497,0H129.503c-5.632,0-10.199,4.566-10.199,10.199V501.801z M139.702,383.49h22.462v41.817h-22.462
	V383.49z M372.297,163.187H139.702v-61.195h232.596v61.195H372.297z M139.702,183.586h232.596v61.195H139.702V183.586z
	 M139.702,265.179h232.596v61.195H139.702V265.179z M139.702,20.398h232.596v61.195H139.702V20.398z M139.702,491.602v-45.896
	h32.661c5.632,0,10.199-4.566,10.199-10.199v-62.215c0-5.633-4.567-10.199-10.199-10.199h-32.661v-16.319h232.596v16.319h-32.667
	c-5.632,0-10.199,4.566-10.199,10.199v62.215c0,5.633,4.567,10.199,10.199,10.199h32.667v45.896H139.702z M372.267,383.49v41.817
	h-22.438V383.49H372.267z"/>
<path d="M350.339,191.745H201.941c-5.632,0-10.199,4.566-10.199,10.199s4.567,10.199,10.199,10.199h148.398
	c5.632,0,10.199-4.566,10.199-10.199S355.972,191.745,350.339,191.745z"/>
<path d="M170.323,191.745h-2.55c-5.632,0-10.199,4.566-10.199,10.199s4.567,10.199,10.199,10.199h2.55
	c5.632,0,10.199-4.566,10.199-10.199S175.956,191.745,170.323,191.745z"/>
<path d="M335.55,218.263h-13.769c-5.632,0-10.199,4.566-10.199,10.199s4.567,10.199,10.199,10.199h13.769
	c5.632,0,10.199-4.566,10.199-10.199S341.183,218.263,335.55,218.263z"/>
<path d="M232.538,455.904h-29.578c-5.632,0-10.199,4.566-10.199,10.199s4.567,10.199,10.199,10.199h29.578
	c5.632,0,10.199-4.566,10.199-10.199S238.171,455.904,232.538,455.904z"/>
<path d="M309.032,455.904h-29.578c-5.632,0-10.199,4.566-10.199,10.199s4.567,10.199,10.199,10.199h29.578
	c5.632,0,10.199-4.566,10.199-10.199S314.665,455.904,309.032,455.904z"/>
<g>
</g>
<g>
</g>
<g>
</g>
<g>
</g>
<g>
</g>
<g>
</g>
<g>
</g>
<g>
</g>
<g>
</g>
<g>
</g>
<g>
</g>
<g>
</g>
<g>
</g>
<g>
</g>
<g>
</g>
</svg>
