<?xml version="1.0" encoding="iso-8859-1"?>
<!-- Generator: Adobe Illustrator 18.0.0, SVG Export Plug-In . SVG Version: 6.00 Build 0)  -->
<!DOCTYPE svg PUBLIC "-//W3C//DTD SVG 1.1//EN" "http://www.w3.org/Graphics/SVG/1.1/DTD/svg11.dtd">
<svg version="1.1" id="Capa_1" xmlns="http://www.w3.org/2000/svg" xmlns:xlink="http://www.w3.org/1999/xlink" x="0px" y="0px"
	 viewBox="0 0 461.624 461.624" style="enable-background:new 0 0 461.624 461.624;" xml:space="preserve">
<path style="fill:#808080;" d="M230.812,76c-5.523,0-10-4.477-10-10V10c0-5.523,4.477-10,10-10c5.522,0,10,4.477,10,10v56
	C240.812,71.523,236.335,76,230.812,76z"/>
<polygon style="fill:#808080;" points="368.725,461.624 230.812,94 92.899,461.624 230.812,184.081 "/>
<path style="fill:#BAB388;" d="M230.812,154c-33.084,0-60-26.916-60-60s26.916-60,60-60s60,26.916,60,60S263.896,154,230.812,154z
	 M230.812,54c-22.056,0-40,17.944-40,40s17.944,40,40,40c22.056,0,40-17.944,40-40S252.868,54,230.812,54z"/>
<path style="fill:#BAB388;" d="M230.812,219.151c-33.429,0-64.857-13.018-88.496-36.656c-3.905-3.905-3.905-10.237,0-14.143
	s10.237-3.905,14.143,0c19.86,19.861,46.266,30.798,74.353,30.798s54.492-10.938,74.353-30.798c3.906-3.904,10.236-3.905,14.143,0
	c3.905,3.905,3.905,10.237,0,14.143C295.67,206.133,264.241,219.151,230.812,219.151z"/>
<g>
</g>
<g>
</g>
<g>
</g>
<g>
</g>
<g>
</g>
<g>
</g>
<g>
</g>
<g>
</g>
<g>
</g>
<g>
</g>
<g>
</g>
<g>
</g>
<g>
</g>
<g>
</g>
<g>
</g>
</svg>
