<?xml version="1.0" encoding="iso-8859-1"?>
<!-- Generator: Adobe Illustrator 18.0.0, SVG Export Plug-In . SVG Version: 6.00 Build 0)  -->
<!DOCTYPE svg PUBLIC "-//W3C//DTD SVG 1.1//EN" "http://www.w3.org/Graphics/SVG/1.1/DTD/svg11.dtd">
<svg version="1.1" id="Capa_1" xmlns="http://www.w3.org/2000/svg" xmlns:xlink="http://www.w3.org/1999/xlink" x="0px" y="0px"
	 viewBox="0 0 451.82 451.82" style="enable-background:new 0 0 451.82 451.82;" xml:space="preserve">
<path style="fill:#66645D;" d="M396.95,365.91h-11.136c-4.459-17.422-20.286-30.34-39.074-30.34H284.47v-72.39h-20v72.39H135.641
	c-9.363,0-16.98-7.617-16.98-16.98v-53.41c0-5.523-4.478-10-10-10s-10,4.477-10,10v53.41c0,20.391,16.59,36.98,36.98,36.98h211.1
	c7.576,0,14.186,4.176,17.683,10.34H80.49c-6.722,0-13.04,2.617-17.791,7.369c-4.758,4.759-7.379,11.081-7.379,17.801
	c0,13.879,11.291,25.17,25.17,25.17h266.25c10.784,0,20.916-4.2,28.521-11.819c5.199-5.2,8.8-11.572,10.564-18.521h11.125
	c12.946,0,23.479,10.533,23.479,23.48c0,5.989-2.334,11.622-6.571,15.859c-4.237,4.237-9.869,6.571-15.858,6.571H21.391
	c-5.522,0-10,4.477-10,10s4.478,10,10,10H398c11.332,0,21.986-4.414,30.001-12.429c8.015-8.015,12.429-18.67,12.429-30.001
	C440.43,385.415,420.925,365.91,396.95,365.91z M361.113,390.295c-3.833,3.84-8.938,5.955-14.373,5.955H80.49
	c-2.851,0-5.17-2.319-5.17-5.17c0-1.378,0.54-2.678,1.521-3.66c0.564-0.564,1.788-1.51,3.648-1.51h283.964
	C363.557,387.496,362.437,388.971,361.113,390.295z"/>
<path style="fill:#A8A69A;" d="M294.35,153.31v101.93c0,10.98-8.91,19.88-19.88,19.88s-19.88-8.9-19.88-19.88V82.65
	C254.59,112.59,270.51,138.81,294.35,153.31z"/>
<path style="fill:#D3D1C1;" d="M294.35,153.31c-23.84-14.5-39.76-40.72-39.76-70.66v-0.01v-0.62c0.31-42.17,32.68-76.53,73.62-81.42
	v0.01V164.8C315.91,163.47,304.42,159.43,294.35,153.31z"/>
<path style="fill:#E2E0D0;" d="M366.61,28.34v108.61c0,15.65-12.68,28.34-28.34,28.34h-1.03c-3.05,0-6.07-0.17-9.03-0.49V0.61V0.6
	c3.3-0.4,6.66-0.6,10.06-0.6C353.93,0,366.61,12.69,366.61,28.34z"/>
<path style="fill:#E2E0D0;" d="M108.66,0c45.64,0,82.65,37,82.65,82.65c0,38.79-26.73,71.33-62.77,80.23
	c-6.37,1.58-13.03,2.41-19.88,2.41c-6.86,0-13.52-0.83-19.88-2.41c-36.04-8.9-62.76-41.45-62.76-80.23C26.02,37,63.02,0,108.66,0z"
	/>
<path style="fill:#A8A69A;" d="M128.54,162.88v92.36c0,10.98-8.9,19.88-19.88,19.88c-10.97,0-19.88-8.9-19.88-19.88v-92.36
	c6.36,1.58,13.02,2.41,19.88,2.41C115.51,165.29,122.17,164.46,128.54,162.88z"/>
<g>
</g>
<g>
</g>
<g>
</g>
<g>
</g>
<g>
</g>
<g>
</g>
<g>
</g>
<g>
</g>
<g>
</g>
<g>
</g>
<g>
</g>
<g>
</g>
<g>
</g>
<g>
</g>
<g>
</g>
</svg>
