<?xml version="1.0" encoding="iso-8859-1"?>
<!-- Generator: Adobe Illustrator 18.0.0, SVG Export Plug-In . SVG Version: 6.00 Build 0)  -->
<!DOCTYPE svg PUBLIC "-//W3C//DTD SVG 1.1//EN" "http://www.w3.org/Graphics/SVG/1.1/DTD/svg11.dtd">
<svg version="1.1" id="Capa_1" xmlns="http://www.w3.org/2000/svg" xmlns:xlink="http://www.w3.org/1999/xlink" x="0px" y="0px"
	 viewBox="0 0 442 442" style="enable-background:new 0 0 442 442;" xml:space="preserve">
<g>
	<g>
		<polygon style="fill:#A8A69A;" points="59.385,121.863 0,201.378 34.419,213.669 64.212,128.884 		"/>
	</g>
	<g>
		<polygon style="fill:#A8A69A;" points="382.615,121.863 442,201.378 407.581,213.669 377.788,128.884 		"/>
	</g>
	<g>
		<path style="fill:#A8A69A;" d="M190.013,240.118c13.72,23.32,11.61,52.69-5.29,73.82l-3.921,4.901
			c-2.42,3.025-7.204,0.286-5.821-3.332l0,0c8.505-22.258,4.793-47.339-9.793-66.18l-12.51-16.159L190.013,240.118z"/>
		<path style="fill:#A8A69A;" d="M251.987,240.118c-13.72,23.32-11.61,52.69,5.29,73.82l3.921,4.901
			c2.42,3.025,7.204,0.286,5.821-3.332l0,0c-8.505-22.258-4.793-47.339,9.793-66.18l12.51-16.159L251.987,240.118z"/>
	</g>
	<polygon style="fill:#CADEEA;" points="108,240.118 82,288.138 47.84,288.138 47.84,240.118 	"/>
	<path style="fill:#B6CCE0;" d="M137.63,240.118v31.049c0,9.373-7.598,16.971-16.971,16.971H82l26-48.02H137.63z"/>
	<path style="fill:#E59683;" d="M47.84,288.138L47.84,288.138c0,6.191-5.019,11.21-11.21,11.21H11.21
		c-6.191,0-11.21-5.019-11.21-11.21v-48.02h47.84V288.138z"/>
	<polygon style="fill:#C4C2B7;" points="442,201.378 442,240.118 252.07,240.118 189.93,240.118 137.63,240.118 108,240.118 
		47.84,240.118 0,240.118 0,201.378 	"/>
	<polygon style="fill:#A39F90;" points="246.337,201.378 232.25,240.118 252.07,240.118 442,240.118 442,201.378 	"/>
</g>
<g>
</g>
<g>
</g>
<g>
</g>
<g>
</g>
<g>
</g>
<g>
</g>
<g>
</g>
<g>
</g>
<g>
</g>
<g>
</g>
<g>
</g>
<g>
</g>
<g>
</g>
<g>
</g>
<g>
</g>
</svg>
