<?xml version="1.0" encoding="iso-8859-1"?>
<!-- Generator: Adobe Illustrator 18.0.0, SVG Export Plug-In . SVG Version: 6.00 Build 0)  -->
<!DOCTYPE svg PUBLIC "-//W3C//DTD SVG 1.1//EN" "http://www.w3.org/Graphics/SVG/1.1/DTD/svg11.dtd">
<svg version="1.1" id="Capa_1" xmlns="http://www.w3.org/2000/svg" xmlns:xlink="http://www.w3.org/1999/xlink" x="0px" y="0px"
	 viewBox="0 0 432.59 432.59" style="enable-background:new 0 0 432.59 432.59;" xml:space="preserve">
<path style="fill:#808080;" d="M243.3,200.165v22.31c0,12.7-10.29,22.99-22.99,22.99h-8.02c-12.7,0-23-10.29-23-22.99v-22.31H243.3z
	"/>
<path style="fill:#BAB388;" d="M243.3,200.125v0.04h-54.01v-0.04c0-18.22-5.48-35.89-15.04-51.4c-4.99-8.1-7.71-17.75-7.26-28.06
	c1.12-25.46,21.9-46.12,47.37-47.1c28.14-1.08,51.29,21.42,51.29,49.32c0,9.87-2.91,19.07-7.91,26.78
	C248.04,164.635,243.3,182.285,243.3,200.125z"/>
<polygon style="fill:#808080;" points="254.79,314.045 263.85,382.935 168.75,382.935 177.81,314.045 "/>
<path style="fill:#999999;" d="M432.59,273.095v28.86c0,6.68-5.41,12.09-12.08,12.09H254.79h-76.98H12.08
	c-6.67,0-12.08-5.41-12.08-12.09v-28.86H432.59z"/>
<path style="fill:#E2E0D0;" d="M189.29,200.165v22.31c0,12.7,10.3,22.99,23,22.99h8.02c12.7,0,22.99-10.29,22.99-22.99v-22.31v-0.04
	c0-17.84,4.74-35.49,14.44-50.46c5-7.71,7.91-16.91,7.91-26.78c0-27.9-23.15-50.4-51.29-49.32c-25.47,0.98-46.25,21.64-47.37,47.1
	c-0.45,10.31,2.27,19.96,7.26,28.06c9.56,15.51,15.04,33.18,15.04,51.4V200.165z M432.59,51.735v221.36H0V51.735
	c0-6.67,5.41-12.08,12.08-12.08h408.43C427.18,39.655,432.59,45.065,432.59,51.735z"/>
<rect x="132.47" y="372.935" style="fill:#999999;" width="167.65" height="20"/>
<path style="fill:#EAE8DC;" d="M174.39,39.655L33.16,273.095h397.13V43.729c-2.213-2.493-5.432-4.074-9.027-4.074H174.39z
	 M258.493,149.665c-9.7,14.97-14.44,32.62-14.44,50.46v0.04v22.31c0,12.7-10.29,22.99-22.99,22.99h-8.02c-12.7,0-23-10.29-23-22.99
	v-22.31v-0.04c0-18.22-5.48-35.89-15.04-51.4c-4.99-8.1-7.71-17.75-7.26-28.06c1.12-25.46,21.9-46.12,47.37-47.1
	c28.14-1.08,51.29,21.42,51.29,49.32C266.403,132.755,263.493,141.955,258.493,149.665z"/>
<g>
</g>
<g>
</g>
<g>
</g>
<g>
</g>
<g>
</g>
<g>
</g>
<g>
</g>
<g>
</g>
<g>
</g>
<g>
</g>
<g>
</g>
<g>
</g>
<g>
</g>
<g>
</g>
<g>
</g>
</svg>
