<?xml version="1.0" encoding="iso-8859-1"?>
<!-- Generator: Adobe Illustrator 18.0.0, SVG Export Plug-In . SVG Version: 6.00 Build 0)  -->
<!DOCTYPE svg PUBLIC "-//W3C//DTD SVG 1.1//EN" "http://www.w3.org/Graphics/SVG/1.1/DTD/svg11.dtd">
<svg version="1.1" id="Capa_1" xmlns="http://www.w3.org/2000/svg" xmlns:xlink="http://www.w3.org/1999/xlink" x="0px" y="0px"
	 viewBox="0 0 455.56 455.56" style="enable-background:new 0 0 455.56 455.56;" xml:space="preserve">
<polygon style="fill:#E2BAB5;" points="168.475,227.78 126.355,269.9 84.235,227.78 126.355,185.67 "/>
<polygon style="fill:#E2BAB5;" points="371.325,227.78 329.215,269.9 287.095,227.78 329.215,185.67 "/>
<polygon style="fill:#B6CCE0;" points="371.325,312.01 227.785,455.56 84.235,312.01 126.355,269.9 227.785,371.32 329.215,269.9 
	"/>
<polygon style="fill:#B09FB7;" points="329.215,269.9 227.785,371.32 126.355,269.9 168.475,227.78 227.785,287.09 287.095,227.78 
	"/>
<rect x="185.846" y="185.841" transform="matrix(0.7071 -0.7071 0.7071 0.7071 -94.3481 227.7835)" style="fill:#8B7496;" width="83.877" height="83.877"/>
<polygon style="fill:#E59683;" points="329.215,185.67 287.095,227.78 227.785,168.47 168.475,227.78 126.355,185.67 227.785,84.24 
	"/>
<polygon style="fill:#E2BAB5;" points="227.785,0 371.325,143.55 329.215,185.67 227.785,84.24 126.355,185.67 84.235,143.55 "/>
<g>
</g>
<g>
</g>
<g>
</g>
<g>
</g>
<g>
</g>
<g>
</g>
<g>
</g>
<g>
</g>
<g>
</g>
<g>
</g>
<g>
</g>
<g>
</g>
<g>
</g>
<g>
</g>
<g>
</g>
</svg>
