<?xml version="1.0" encoding="iso-8859-1"?>
<!-- Generator: Adobe Illustrator 19.0.0, SVG Export Plug-In . SVG Version: 6.00 Build 0)  -->
<svg version="1.1" id="Layer_1" xmlns="http://www.w3.org/2000/svg" xmlns:xlink="http://www.w3.org/1999/xlink" x="0px" y="0px"
	 viewBox="0 0 512 512" style="enable-background:new 0 0 512 512;" xml:space="preserve">
<path style="fill:#CCD8E5;" d="M503.665,74.684v316.341c0,17.908-14.509,32.428-32.417,32.428H40.757
	c-17.908,0-32.417-14.52-32.417-32.428V74.684c0-17.908,14.509-32.428,32.417-32.428h430.49
	C489.156,42.256,503.665,56.776,503.665,74.684z"/>
<path style="fill:#DFEAF4;" d="M503.665,74.684v316.341c0,17.908-14.509,32.428-32.417,32.428H183.347l23.752-57.925L339.656,42.256
	h131.591C489.156,42.256,503.665,56.776,503.665,74.684z"/>
<path style="fill:#B8E9F2;" d="M503.665,74.684v290.845H8.34V74.685c0-17.908,14.509-32.428,32.417-32.428h430.49
	C489.156,42.256,503.665,56.776,503.665,74.684z"/>
<path style="fill:#D4F7FC;" d="M503.665,74.684v290.845H207.099L339.656,42.256h131.591
	C489.156,42.256,503.665,56.776,503.665,74.684z"/>
<polygon style="fill:#CCD8E5;" points="343.456,488.055 168.549,488.055 181.036,458.837 196.167,423.454 315.838,423.454 
	330.969,458.837 "/>
<polygon style="fill:#BAC6D1;" points="330.969,458.837 181.036,458.837 196.167,423.454 315.838,423.454 "/>
<path style="fill:#FFFFFF;" d="M347.481,326.561c-6.421,0-12.331,2.155-17.053,5.777c-4.699-16.509-19.897-28.607-37.916-28.607
	c-2.933,0-5.799,0.322-8.543,0.933l0.004-104.251h-55.94v104.251c-2.744-0.611-5.599-0.933-8.532-0.933
	c-18.031,0-33.217,12.098-37.928,28.607c-4.721-3.622-10.632-5.777-17.042-5.777c-15.475,0-28.029,12.543-28.029,28.018
	c0,4.633,1.122,8.999,3.122,12.842h232.765c1.989-3.844,3.111-8.21,3.111-12.842C375.499,339.103,362.956,326.561,347.481,326.561z"
	/>
<path style="fill:#F75757;" d="M306.07,145.843c0,0,49.725,26.29,24.554,95.993c0,0-29.201-25.194-74.622-25.194
	s-74.622,25.194-74.622,25.194c-25.171-69.703,24.554-95.993,24.554-95.993"/>
<path style="fill:#FFFFFF;" d="M308.72,121.57c0,40.094-21.063,75.266-52.714,95.074c-5.288-3.311-10.287-7.043-14.931-11.165
	c-23.185-20.53-37.794-50.515-37.794-83.909c0-40.094,21.063-75.266,52.725-95.074C287.656,46.303,308.72,81.476,308.72,121.57z"/>
<path style="fill:#E6E6E6;" d="M256.006,216.644C256.006,216.644,255.994,216.633,256.006,216.644
	c-27.974-20.53-52.725-61.68-52.725-95.074c0-40.094,21.063-75.266,52.725-95.074C256.006,26.496,203.28,121.57,256.006,216.644z"/>
<path style="fill:#F75757;" d="M294.666,67.2c-10.076,9.565-23.674,15.431-38.661,15.431c-6.477,0-12.709-1.1-18.497-3.122
	c-7.599-2.644-14.453-6.877-20.164-12.309c0.289-0.522,0.578-1.033,0.878-1.555c0.3-0.511,0.6-1.022,0.9-1.533
	c1.089-1.833,2.233-3.622,3.433-5.388c0.267-0.4,0.533-0.789,0.811-1.178l1.033-1.466c0.333-0.455,0.667-0.911,1.011-1.366
	c0.689-0.933,1.4-1.855,2.122-2.766c0.722-0.911,1.466-1.811,2.211-2.7c0.378-0.444,0.755-0.889,1.133-1.322
	c0.767-0.878,1.544-1.744,2.333-2.588c0.4-0.422,0.8-0.855,1.2-1.266c0.8-0.844,1.622-1.666,2.444-2.477
	c0.422-0.411,0.833-0.811,1.255-1.211c0.422-0.4,0.844-0.8,1.278-1.2c0.422-0.389,0.855-0.778,1.289-1.166
	c3.144-2.811,6.443-5.444,9.898-7.899c0.344-0.244,0.7-0.489,1.055-0.733c1.433-1,2.888-1.955,4.377-2.888
	C272.07,36.549,285.423,50.569,294.666,67.2z"/>
<path style="fill:#D84C4C;" d="M256.006,26.496c0,0-11.62,20.952-18.497,53.014c-7.599-2.644-14.453-6.877-20.164-12.309
	c0.289-0.522,0.578-1.033,0.878-1.555c0.3-0.511,0.6-1.022,0.9-1.533c1.089-1.833,2.233-3.622,3.433-5.388
	c0.267-0.4,0.533-0.789,0.811-1.178l1.033-1.466c0.333-0.455,0.667-0.911,1.011-1.366c0.689-0.933,1.4-1.855,2.122-2.766
	c0.722-0.911,1.466-1.811,2.211-2.7c0.378-0.444,0.755-0.889,1.133-1.322c0.767-0.878,1.544-1.744,2.333-2.588
	c0.4-0.422,0.8-0.855,1.2-1.266c0.8-0.844,1.622-1.666,2.444-2.477c0.422-0.411,0.833-0.811,1.255-1.211
	c0.422-0.4,0.844-0.8,1.278-1.2c0.422-0.389,0.855-0.778,1.289-1.166c3.144-2.811,6.443-5.444,9.898-7.899
	c0.344-0.244,0.7-0.489,1.055-0.733C253.062,28.384,254.517,27.428,256.006,26.496z"/>
<circle style="fill:#609DC6;" cx="257.472" cy="126.537" r="19.441"/>
<path d="M247.67,253.573v82.997c0,4.602,3.731,8.332,8.332,8.332c4.602,0,8.332-3.731,8.332-8.332v-82.997
	c0-4.602-3.731-8.332-8.332-8.332C251.401,245.241,247.67,248.971,247.67,253.573z"/>
<path d="M8.332,140.969c4.602,0,8.332-3.731,8.332-8.332V73.401c0-13.281,10.809-24.085,24.096-24.085h166.064
	c4.602,0,8.332-3.731,8.332-8.332s-3.731-8.332-8.332-8.332H40.76C18.285,32.652,0,50.931,0,73.401v59.235
	C0,137.238,3.731,140.969,8.332,140.969z"/>
<path d="M471.251,32.652H305.798c-4.602,0-8.332,3.731-8.332,8.332s3.731,8.332,8.332,8.332h165.453
	c13.28,0,24.085,10.805,24.085,24.085v284.413h-52.211c-4.602,0-8.332,3.731-8.332,8.332c0,4.602,3.731,8.332,8.332,8.332h52.211
	v15.274c0,13.281-10.805,24.085-24.085,24.085H40.76c-13.287,0-24.096-10.805-24.096-24.085v-15.274h398.687
	c4.602,0,8.332-3.731,8.332-8.332c0-4.602-3.731-8.332-8.332-8.332h-31.807c0.187-1.495,0.287-3.002,0.287-4.512
	c0-20.044-16.306-36.35-36.35-36.35c-4.476,0-8.822,0.797-12.894,2.34c-8.198-15.201-24.316-25.171-42.076-25.171
	c-0.069,0-0.138,0.006-0.207,0.006v-40.555c0-4.602-3.731-8.332-8.332-8.332c-4.602,0-8.332,3.731-8.332,8.332v69.553
	c0,4.602,3.731,8.332,8.332,8.332c4.602,0,8.332-3.731,8.332-8.332v-12.334c0.069,0,0.138-0.006,0.207-0.006
	c13.826,0,26.123,9.275,29.903,22.555c0.755,2.654,2.776,4.763,5.396,5.629c2.618,0.865,5.499,0.381,7.689-1.299
	c3.46-2.654,7.603-4.056,11.983-4.056c10.855,0,19.686,8.831,19.686,19.686c0,1.543-0.176,3.05-0.518,4.512H145.351
	c-0.342-1.46-0.519-2.966-0.519-4.512c0-10.855,8.836-19.686,19.697-19.686c4.373,0,8.512,1.402,11.972,4.056
	c2.19,1.68,5.066,2.166,7.686,1.3c2.62-0.867,4.64-2.972,5.397-5.625c3.789-13.284,16.091-22.561,29.914-22.561
	c0.067,0,0.133,0.004,0.2,0.006v12.334c0,4.602,3.731,8.332,8.332,8.332s8.332-3.731,8.332-8.332v-69.553
	c0-4.602-3.731-8.332-8.332-8.332s-8.332,3.731-8.332,8.332v40.555c-0.067,0-0.133-0.006-0.2-0.006
	c-17.755,0-33.876,9.971-42.081,25.172c-4.072-1.545-8.414-2.341-12.888-2.341c-20.049,0-36.361,16.306-36.361,36.35
	c0,1.51,0.1,3.017,0.287,4.512H16.664V160.41c0-4.602-3.731-8.332-8.332-8.332S0,155.809,0,160.41v229.343
	c0,22.47,18.285,40.749,40.76,40.749h142.783l-20.495,47.948h-40.034c-4.602,0-8.332,3.731-8.332,8.332
	c0,4.602,3.731,8.332,8.332,8.332h265.972c4.602,0,8.332-3.731,8.332-8.332c0-4.602-3.731-8.332-8.332-8.332h-40.034l-20.495-47.948
	h142.793c22.469,0,40.749-18.281,40.749-40.749V73.401C512,50.931,493.719,32.652,471.251,32.652z M330.83,478.45H181.171
	l14.238-33.309h121.183L330.83,478.45z"/>
<path d="M247.801,390.757c-0.614,3.494,1.136,7.107,4.275,8.771c3.137,1.663,7.092,1.145,9.669-1.311
	c2.91-2.773,3.382-7.316,1.18-10.659C258.864,381.389,249.068,383.553,247.801,390.757z"/>
<path d="M196.672,140.68c-5.153,3.773-13.078,10.722-19.576,21.419c-17.059,28.082-11.348,59.706-3.554,81.291
	c0.929,2.572,3.07,4.516,5.712,5.217c2.644,0.702,5.47,0.05,7.55-1.723c0.272-0.231,27.654-23.185,69.196-23.185
	c41.544,0,68.925,22.953,69.18,23.17c1.531,1.32,3.468,2.023,5.444,2.023c0.704,0,1.413-0.09,2.111-0.272
	c2.653-0.694,4.794-2.651,5.726-5.23c14.121-39.105,5.861-65.79-3.554-81.291c-6.498-10.697-14.423-17.646-19.577-21.419
	c1.129-6.662,1.721-13.475,1.721-20.389c0-4.602-3.731-8.332-8.332-8.332c-4.602,0-8.332,3.731-8.332,8.332
	c0,34.219-16.495,65.647-44.387,85.092c-27.891-19.444-44.387-50.872-44.387-85.092c0-14.568,3-28.625,8.584-41.47
	c10.531,7.054,22.913,10.869,35.806,10.869c12.875,0,25.243-3.805,35.765-10.842c2.176,5.008,3.989,10.204,5.368,15.575
	c1.143,4.457,5.682,7.14,10.142,5.999c4.457-1.144,7.143-5.685,5.999-10.142c-7.701-30.004-26.474-55.619-52.859-72.127
	c-2.704-1.691-6.135-1.691-8.839,0c-35.46,22.186-56.631,60.368-56.631,102.138C194.952,127.207,195.544,134.019,196.672,140.68z
	 M310.879,158.543c10.402,9.809,25.118,31.15,15.227,68.6c-9.765-6.124-26.308-14.517-47.933-18.221
	C293.288,195.077,304.482,177.762,310.879,158.543z M256.001,35.202c11.203,7.812,20.615,17.622,27.866,28.862
	c-8.081,5.812-17.763,8.962-27.861,8.962c-10.113,0-19.808-3.158-27.896-8.988C235.323,52.874,244.731,43.059,256.001,35.202z
	 M201.123,158.54c6.398,19.22,17.592,36.537,32.707,50.383c-21.623,3.703-38.166,12.097-47.933,18.221
	C176.001,189.678,190.734,168.335,201.123,158.54z"/>
<path d="M229.698,125.259c0,15.314,12.459,27.774,27.774,27.774c15.314,0,27.774-12.459,27.774-27.774s-12.459-27.774-27.774-27.774
	S229.698,109.945,229.698,125.259z M268.581,125.259c0,6.126-4.984,11.109-11.109,11.109c-6.126,0-11.109-4.984-11.109-11.109
	s4.984-11.109,11.109-11.109C263.598,114.15,268.581,119.133,268.581,125.259z"/>
<g>
</g>
<g>
</g>
<g>
</g>
<g>
</g>
<g>
</g>
<g>
</g>
<g>
</g>
<g>
</g>
<g>
</g>
<g>
</g>
<g>
</g>
<g>
</g>
<g>
</g>
<g>
</g>
<g>
</g>
</svg>
