<?xml version="1.0" encoding="iso-8859-1"?>
<!-- Generator: Adobe Illustrator 18.0.0, SVG Export Plug-In . SVG Version: 6.00 Build 0)  -->
<!DOCTYPE svg PUBLIC "-//W3C//DTD SVG 1.1//EN" "http://www.w3.org/Graphics/SVG/1.1/DTD/svg11.dtd">
<svg version="1.1" id="Capa_1" xmlns="http://www.w3.org/2000/svg" xmlns:xlink="http://www.w3.org/1999/xlink" x="0px" y="0px"
	 viewBox="0 0 421.38 421.38" style="enable-background:new 0 0 421.38 421.38;" xml:space="preserve">
<path style="fill:#D3D1C1;" d="M275.765,270.85v42.53c0,34.59-28.04,62.62-62.62,62.62s-62.62-28.03-62.62-62.62v-42.53
	c0-34.59,28.04-62.62,62.62-62.62c17.29,0,32.95,7.01,44.28,18.34C268.755,237.9,275.765,253.56,275.765,270.85z"/>
<path style="fill:#E2E0D0;" d="M257.425,226.57c-11.33-11.33-26.99-18.34-44.28-18.34c-34.58,0-62.62,28.03-62.62,62.62v42.53
	c0,22.194,11.554,41.673,28.963,52.794l81.855-135.299C260.103,229.38,258.797,227.942,257.425,226.57z"/>
<path style="fill:#E59683;" d="M118.585,17.97h221.68c18.15,0,32.85,14.71,32.85,32.85v337.71c0,18.14-14.7,32.85-32.85,32.85
	H81.115c-18.14,0-32.85-14.71-32.85-32.85V50.82c0-18.14,14.71-32.85,32.85-32.85H118.585z M213.145,208.23
	c-34.58,0-62.62,28.03-62.62,62.62v42.53c0,34.59,28.04,62.62,62.62,62.62s62.62-28.03,62.62-62.62v-42.53
	c0-17.29-7.01-32.95-18.34-44.28C246.095,215.24,230.435,208.23,213.145,208.23z"/>
<path style="fill:#66645D;" d="M213.145,279.38c-5.523,0-10-4.477-10-10v-25.99c0-5.523,4.477-10,10-10s10,4.477,10,10v25.99
	C223.145,274.903,218.668,279.38,213.145,279.38z"/>
<path style="fill:#66645D;" d="M223.145,208.23h-20v-97.17c0-7.516-6.115-13.63-13.63-13.63c-7.556,0-13.67,6.115-13.67,13.63v40.17
	c0,18.543-15.086,33.63-33.63,33.63c-8.985,0-17.43-3.498-23.781-9.849c-6.354-6.369-9.849-14.811-9.849-23.781V0h20v151.23
	c0,3.636,1.42,7.062,4,9.647c2.565,2.565,5.988,3.983,9.63,3.983c7.516,0,13.63-6.114,13.63-13.63v-40.17
	c0-18.544,15.086-33.63,33.63-33.63c18.584,0,33.67,15.086,33.67,33.63V208.23z"/>
<g>
</g>
<g>
</g>
<g>
</g>
<g>
</g>
<g>
</g>
<g>
</g>
<g>
</g>
<g>
</g>
<g>
</g>
<g>
</g>
<g>
</g>
<g>
</g>
<g>
</g>
<g>
</g>
<g>
</g>
</svg>
