<?xml version="1.0" encoding="iso-8859-1"?>
<!-- Generator: Adobe Illustrator 18.0.0, SVG Export Plug-In . SVG Version: 6.00 Build 0)  -->
<!DOCTYPE svg PUBLIC "-//W3C//DTD SVG 1.1//EN" "http://www.w3.org/Graphics/SVG/1.1/DTD/svg11.dtd">
<svg version="1.1" id="Capa_1" xmlns="http://www.w3.org/2000/svg" xmlns:xlink="http://www.w3.org/1999/xlink" x="0px" y="0px"
	 viewBox="0 0 444.04 444.04" style="enable-background:new 0 0 444.04 444.04;" xml:space="preserve">
<rect x="349.4" y="160.15" style="fill:#BAB388;" width="94.64" height="123.74"/>
<path style="fill:#C4695C;" d="M305.85,173.02v98h-137c-27.07,0-49-21.94-49-49c0-13.53,5.48-25.78,14.35-34.65
	c8.86-8.86,21.12-14.35,34.65-14.35H305.85z"/>
<path style="fill:#E2BAB5;" d="M349.4,283.89v30.94H92.81C41.55,314.83,0,273.28,0,222.02s41.55-92.81,92.81-92.81H349.4v30.94
	V283.89z M305.85,271.02v-98h-137c-13.53,0-25.79,5.49-34.65,14.35c-8.87,8.87-14.35,21.12-14.35,34.65c0,27.06,21.93,49,49,49
	H305.85z"/>
<rect x="381.76" y="192.61" style="fill:#4D4D4D;" width="29.92" height="20"/>
<rect x="381.76" y="231.43" style="fill:#4D4D4D;" width="29.92" height="20"/>
<path style="fill:#E59683;" d="M222.35,173.02h83.5v98h-137c-2.104,0-4.173-0.148-6.208-0.405l-27.05,44.215H349.4v-30.94V160.15
	v-30.94H249.152L222.35,173.02z"/>
<polygon style="fill:#B2685B;" points="192.724,271.02 305.85,271.02 305.85,173.02 252.679,173.02 "/>
<g>
</g>
<g>
</g>
<g>
</g>
<g>
</g>
<g>
</g>
<g>
</g>
<g>
</g>
<g>
</g>
<g>
</g>
<g>
</g>
<g>
</g>
<g>
</g>
<g>
</g>
<g>
</g>
<g>
</g>
</svg>
