<?xml version="1.0" encoding="iso-8859-1"?>
<!-- Generator: Adobe Illustrator 18.0.0, SVG Export Plug-In . SVG Version: 6.00 Build 0)  -->
<!DOCTYPE svg PUBLIC "-//W3C//DTD SVG 1.1//EN" "http://www.w3.org/Graphics/SVG/1.1/DTD/svg11.dtd">
<svg version="1.1" id="Capa_1" xmlns="http://www.w3.org/2000/svg" xmlns:xlink="http://www.w3.org/1999/xlink" x="0px" y="0px"
	 viewBox="0 0 433 433" style="enable-background:new 0 0 433 433;" xml:space="preserve">
<path style="fill:#E59683;" d="M261.28,203.1c4.12,4.13,6.67,9.83,6.67,16.12c0,12.58-10.2,22.78-22.78,22.78H228.7v-30v-15.57
	h16.47C251.46,196.43,257.16,198.98,261.28,203.1z"/>
<path style="fill:#E59683;" d="M387.36,208.42c6.74,6.74,10.91,16.05,10.91,26.34c0,20.57-16.68,37.24-37.25,37.24h-2.01v-74.49
	h2.01C371.3,197.51,380.62,201.68,387.36,208.42z"/>
<path style="fill:#E59683;" d="M354.7,298.64H206.69c-10.96,0-19.84-8.89-19.84-19.84v-88.96c0-10.96,8.88-19.84,19.84-19.84H354.7
	h50.16c10.95,0,19.84,8.88,19.84,19.84v88.96c0,10.95-8.89,19.84-19.84,19.84H354.7z M228.7,242h16.47
	c12.58,0,22.78-10.2,22.78-22.78c0-6.29-2.55-11.99-6.67-16.12c-4.12-4.12-9.82-6.67-16.11-6.67H228.7V212V242z M398.27,234.76
	c0-10.29-4.17-19.6-10.91-26.34c-6.74-6.74-16.06-10.91-26.34-10.91h-2.01V272h2.01C381.59,272,398.27,255.33,398.27,234.76z"/>
<polygon style="fill:#A8A69A;" points="354.7,93.48 261.21,93.48 261.21,0 "/>
<path style="fill:#E2E0D0;" d="M354.7,298.64V433H8.3V0h252.91v93.48h93.49V170H206.69c-10.96,0-19.84,8.88-19.84,19.84v88.96
	c0,10.95,8.88,19.84,19.84,19.84H354.7z"/>
<path style="fill:#808080;" d="M268.351,196.029c-6.189-6.19-14.422-9.599-23.181-9.599H228.7c-5.523,0-10,4.477-10,10V242v30
	c0,5.523,4.477,10,10,10s10-4.477,10-10v-20h6.47c18.075,0,32.78-14.705,32.78-32.78C277.95,210.47,274.544,202.237,268.351,196.029
	z M245.17,232h-6.47v-25.57h6.47c3.417,0,6.626,1.329,9.03,3.732c2.418,2.424,3.75,5.641,3.75,9.058
	C257.95,226.267,252.217,232,245.17,232z"/>
<path style="fill:#808080;" d="M361.02,282h-2.01c-5.523,0-10-4.477-10-10v-74.49c0-5.523,4.477-10,10-10h2.01
	c12.622,0,24.487,4.915,33.411,13.838c8.924,8.924,13.839,20.79,13.839,33.412C408.27,260.808,387.074,282,361.02,282z
	 M369.01,208.694v52.112c11.14-3.421,19.26-13.803,19.26-26.045c0-7.279-2.834-14.123-7.981-19.269
	C377.085,212.287,373.224,209.979,369.01,208.694z"/>
<path style="fill:#808080;" d="M312,282c-7.72,0-14.976-3.004-20.431-8.458c-5.455-5.456-8.459-12.712-8.459-20.432
	c0-5.523,4.477-10,10-10s10,4.477,10,10c0,2.378,0.924,4.612,2.602,6.29c1.676,1.676,3.91,2.6,6.288,2.6s4.612-0.924,6.289-2.601
	c1.684-1.684,2.611-3.917,2.611-6.289s-0.927-4.605-2.611-6.289c-1.677-1.677-3.91-2.601-6.289-2.601
	c-7.72,0-14.976-3.004-20.431-8.459c-5.455-5.455-8.459-12.715-8.459-20.441c0-7.72,3.004-14.976,8.459-20.431
	c5.474-5.458,12.727-8.458,20.431-8.458c15.936,0,28.9,12.96,28.9,28.89c0,5.523-4.477,10-10,10s-10-4.477-10-10
	c0-4.902-3.993-8.89-8.9-8.89c-2.374,0-4.61,0.927-6.299,2.611c-1.667,1.667-2.591,3.901-2.591,6.279
	c0,2.384,0.924,4.622,2.602,6.299c1.677,1.678,3.911,2.602,6.289,2.602c7.72,0,14.976,3.004,20.431,8.458
	c5.461,5.461,8.469,12.717,8.469,20.431c0,7.713-3.007,14.969-8.468,20.431C326.976,278.996,319.72,282,312,282z"/>
<g>
</g>
<g>
</g>
<g>
</g>
<g>
</g>
<g>
</g>
<g>
</g>
<g>
</g>
<g>
</g>
<g>
</g>
<g>
</g>
<g>
</g>
<g>
</g>
<g>
</g>
<g>
</g>
<g>
</g>
</svg>
