<?xml version="1.0" encoding="iso-8859-1"?>
<!-- Generator: Adobe Illustrator 18.0.0, SVG Export Plug-In . SVG Version: 6.00 Build 0)  -->
<!DOCTYPE svg PUBLIC "-//W3C//DTD SVG 1.1//EN" "http://www.w3.org/Graphics/SVG/1.1/DTD/svg11.dtd">
<svg version="1.1" id="Capa_1" xmlns="http://www.w3.org/2000/svg" xmlns:xlink="http://www.w3.org/1999/xlink" x="0px" y="0px"
	 viewBox="0 0 454.41 454.41" style="enable-background:new 0 0 454.41 454.41;" xml:space="preserve">
<rect x="321.15" y="193.065" style="fill:#B6CCE0;" width="100.89" height="64"/>
<rect x="39.15" y="95.065" style="fill:#B6CCE0;" width="100.89" height="64"/>
<polygon style="fill:#808080;" points="226.89,299.535 234.95,360.885 150.27,360.885 158.34,299.535 "/>
<path style="fill:#999999;" d="M454.41,150.295v13.56H288.78v-13.56c0-11.77,9.54-21.31,21.31-21.31h75.12h47.89
	C444.87,128.985,454.41,138.525,454.41,150.295z"/>
<path style="fill:#999999;" d="M454.41,362.895v15.02c0,11.76-9.54,21.3-21.31,21.3H310.09c-11.77,0-21.31-9.54-21.31-21.3v-15.02
	H454.41z"/>
<path style="fill:#999999;" d="M288.78,263.075v36.46h-61.89h-68.55H12.09c-6.68,0-12.09-5.41-12.09-12.08v-24.38H288.78z"/>
<path style="fill:#EAE8DC;" d="M454.41,163.855v199.04H288.78v-63.36v-36.46v-99.22H454.41z M422.04,257.065v-64H321.15v64H422.04z"
	/>
<path style="fill:#EAE8DC;" d="M385.21,67.285v61.7h-75.12c-11.77,0-21.31,9.54-21.31,21.31v13.56v99.22H0V67.285
	c0-6.68,5.41-12.09,12.09-12.09h361.04C379.81,55.195,385.21,60.605,385.21,67.285z M140.04,159.065v-64H39.15v64H140.04z"/>
<rect x="117.97" y="350.885" style="fill:#999999;" width="149.29" height="20"/>
<rect x="38.3" y="182.365" style="fill:#4D4D4D;" width="210" height="20"/>
<rect x="38.3" y="218.365" style="fill:#4D4D4D;" width="210" height="20"/>
<rect x="324.3" y="283.065" style="fill:#4D4D4D;" width="97.74" height="20"/>
<rect x="324.3" y="319.065" style="fill:#4D4D4D;" width="97.74" height="20"/>
<g>
</g>
<g>
</g>
<g>
</g>
<g>
</g>
<g>
</g>
<g>
</g>
<g>
</g>
<g>
</g>
<g>
</g>
<g>
</g>
<g>
</g>
<g>
</g>
<g>
</g>
<g>
</g>
<g>
</g>
</svg>
