<?xml version="1.0" encoding="iso-8859-1"?>
<!-- Generator: Adobe Illustrator 18.0.0, SVG Export Plug-In . SVG Version: 6.00 Build 0)  -->
<!DOCTYPE svg PUBLIC "-//W3C//DTD SVG 1.1//EN" "http://www.w3.org/Graphics/SVG/1.1/DTD/svg11.dtd">
<svg version="1.1" id="Capa_1" xmlns="http://www.w3.org/2000/svg" xmlns:xlink="http://www.w3.org/1999/xlink" x="0px" y="0px"
	 viewBox="0 0 413.68 413.68" style="enable-background:new 0 0 413.68 413.68;" xml:space="preserve">
<path style="fill:#B2B1AA;" d="M379.195,363.68v16.51c0,18.5-14.99,33.49-33.49,33.49h-161.02c-11.11,0-20.96-5.41-27.05-13.74
	l21.94-36.26H379.195z"/>
<polygon style="fill:#1A1A1A;" points="379.195,89.68 379.195,363.68 179.575,363.68 345.345,89.68 "/>
<path style="fill:#B2B1AA;" d="M379.195,75.17v14.51h-33.85l23.45-38.76C375.205,57.01,379.195,65.62,379.195,75.17z"/>
<path style="fill:#BCBBAF;" d="M368.795,50.92l-23.45,38.76h-144.93c3.24-14.57,4.96-29.88,4.96-45.59v-2.41h140.33
	C354.655,41.68,362.785,45.19,368.795,50.92z"/>
<path style="fill:#4D4D4D;" d="M345.345,89.68l-165.77,274h-28.38V178.95c11.95-10.82,22.28-24.17,30.63-39.36
	c8.27-15.05,14.59-31.91,18.59-49.91H345.345z"/>
<path style="fill:#E59683;" d="M205.375,41.68v2.41c0,15.71-1.72,31.02-4.96,45.59c-4,18-10.32,34.86-18.59,49.91
	c-8.35,15.19-18.68,28.54-30.63,39.36c-9.47,8.57-19.95,15.56-31.26,20.6c-51.12-22.8-85.45-85.26-85.45-155.46V0
	c25.47,24.06,59.98,24.06,85.45,0c12.73,12.03,27.73,18.05,42.72,18.05s29.99-6.02,42.72-18.05V41.68z"/>
<path style="fill:#BCBBAF;" d="M179.575,363.68l-21.94,36.26c-4.05-5.54-6.44-12.36-6.44-19.75v-16.51H179.575z"/>
<polygon style="fill:#B2685B;" points="155.818,68.257 141.672,54.118 119.935,75.86 98.198,54.118 84.052,68.257 105.794,90.003 
	84.052,111.75 98.195,125.892 119.935,104.147 141.675,125.892 155.818,111.75 134.076,90.003 "/>
<circle style="fill:#969489;" cx="264.906" cy="388.68" r="14.999"/>
<g>
</g>
<g>
</g>
<g>
</g>
<g>
</g>
<g>
</g>
<g>
</g>
<g>
</g>
<g>
</g>
<g>
</g>
<g>
</g>
<g>
</g>
<g>
</g>
<g>
</g>
<g>
</g>
<g>
</g>
</svg>
