<?xml version="1.0" encoding="iso-8859-1"?>
<!-- Generator: Adobe Illustrator 18.0.0, SVG Export Plug-In . SVG Version: 6.00 Build 0)  -->
<!DOCTYPE svg PUBLIC "-//W3C//DTD SVG 1.1//EN" "http://www.w3.org/Graphics/SVG/1.1/DTD/svg11.dtd">
<svg version="1.1" id="Capa_1" xmlns="http://www.w3.org/2000/svg" xmlns:xlink="http://www.w3.org/1999/xlink" x="0px" y="0px"
	 viewBox="0 0 386 386" style="enable-background:new 0 0 386 386;" xml:space="preserve">
<path style="fill:#E2E0D0;" d="M212.305,49.37c0,27.27,22.1,49.38,49.37,49.38h-137.35c-27.26,0-49.37-22.11-49.37-49.38
	c0-13.63,5.53-25.97,14.46-34.91C98.355,5.53,110.695,0,124.325,0h137.35C234.405,0,212.305,22.11,212.305,49.37z"/>
<path style="fill:#E59683;" d="M261.675,0c27.27,0,49.37,22.11,49.37,49.37c0,13.64-5.52,25.98-14.46,34.92
	c-8.93,8.93-21.28,14.46-34.91,14.46c-27.27,0-49.37-22.11-49.37-49.38C212.305,22.11,234.405,0,261.675,0z"/>
<path style="fill:#BCBBAF;" d="M124.325,287.26c27.27,0,49.38,22.1,49.38,49.37c0,27.27-22.11,49.37-49.38,49.37
	c-27.26,0-49.37-22.1-49.37-49.37c0-13.64,5.53-25.98,14.46-34.91C98.355,292.79,110.695,287.26,124.325,287.26z"/>
<path style="fill:#BCBBAF;" d="M124.325,143.63c27.27,0,49.38,22.1,49.38,49.37s-22.11,49.37-49.38,49.37
	c-27.26,0-49.37-22.1-49.37-49.37c0-13.63,5.53-25.98,14.46-34.91C98.355,149.15,110.695,143.63,124.325,143.63z"/>
<path style="fill:#E2E0D0;" d="M261.675,287.26c27.27,0,49.37,22.1,49.37,49.37c0,13.64-5.52,25.98-14.46,34.91
	c-8.93,8.93-21.28,14.46-34.91,14.46h-137.35c27.27,0,49.38-22.1,49.38-49.37c0-27.27-22.11-49.37-49.38-49.37H261.675z"/>
<path style="fill:#E2E0D0;" d="M261.675,143.63c27.27,0,49.37,22.1,49.37,49.37c0,13.63-5.52,25.98-14.46,34.91
	c-8.93,8.94-21.28,14.46-34.91,14.46h-137.35c27.27,0,49.38-22.1,49.38-49.37s-22.11-49.37-49.38-49.37H261.675z"/>
<g>
</g>
<g>
</g>
<g>
</g>
<g>
</g>
<g>
</g>
<g>
</g>
<g>
</g>
<g>
</g>
<g>
</g>
<g>
</g>
<g>
</g>
<g>
</g>
<g>
</g>
<g>
</g>
<g>
</g>
</svg>
