<?xml version="1.0" encoding="iso-8859-1"?>
<!-- Generator: Adobe Illustrator 18.0.0, SVG Export Plug-In . SVG Version: 6.00 Build 0)  -->
<!DOCTYPE svg PUBLIC "-//W3C//DTD SVG 1.1//EN" "http://www.w3.org/Graphics/SVG/1.1/DTD/svg11.dtd">
<svg version="1.1" id="Capa_1" xmlns="http://www.w3.org/2000/svg" xmlns:xlink="http://www.w3.org/1999/xlink" x="0px" y="0px"
	 viewBox="0 0 427.48 427.48" style="enable-background:new 0 0 427.48 427.48;" xml:space="preserve">
<path style="fill:#4D4D4D;" d="M72.74,170.99c12.02,0,21.75-9.73,21.75-21.75c0-12.01-9.73-21.74-21.75-21.74
	c-12.01,0-21.75,9.73-21.75,21.74C50.99,161.26,60.73,170.99,72.74,170.99z M166.74,213.99c12.01,0,21.75-9.74,21.75-21.75
	c0-12.01-9.74-21.75-21.75-21.75c-12.01,0-21.75,9.74-21.75,21.75C144.99,204.25,154.73,213.99,166.74,213.99z M260.73,256.99
	c12.02,0,21.75-9.74,21.75-21.75c0-12.01-9.73-21.75-21.75-21.75c-12.01,0-21.74,9.74-21.74,21.75
	C238.99,247.25,248.72,256.99,260.73,256.99z M354.73,256.49c-12.01,0-21.75,9.74-21.75,21.75c0,12.01,9.74,21.75,21.75,21.75
	c12.01,0,21.75-9.74,21.75-21.75C376.48,266.23,366.74,256.49,354.73,256.49z M427.48,101.8v223.88c0,14.39-11.67,26.05-26.06,26.05
	H26.05C11.66,351.73,0,340.07,0,325.68V101.8c0-14.39,11.66-26.05,26.05-26.05h375.37C415.81,75.75,427.48,87.41,427.48,101.8z"/>
<rect x="62.74" y="160.99" style="fill:#EAE8DC;" width="20" height="148.99"/>
<rect x="156.74" y="203.99" style="fill:#EAE8DC;" width="20" height="105.99"/>
<rect x="156.74" y="117.49" style="fill:#EAE8DC;" width="20" height="63"/>
<polygon style="fill:#EAE8DC;" points="270.73,309.98 250.73,309.98 250.73,246.99 270.73,246.98 "/>
<rect x="250.73" y="117.49" style="fill:#EAE8DC;" width="20" height="106"/>
<rect x="344.73" y="117.49" style="fill:#EAE8DC;" width="20" height="148.99"/>
<circle style="fill:#E59683;" cx="354.73" cy="278.24" r="21.75"/>
<path style="fill:#E59683;" d="M260.73,256.99c-12.01,0-21.74-9.74-21.74-21.75c0-12.01,9.73-21.75,21.74-21.75
	c12.02,0,21.75,9.74,21.75,21.75C282.48,247.25,272.75,256.99,260.73,256.99z"/>
<circle style="fill:#E59683;" cx="166.74" cy="192.24" r="21.75"/>
<path style="fill:#E59683;" d="M72.74,127.5c12.02,0,21.75,9.73,21.75,21.74c0,12.02-9.73,21.75-21.75,21.75
	c-12.01,0-21.75-9.73-21.75-21.75C50.99,137.23,60.73,127.5,72.74,127.5z"/>
<g>
</g>
<g>
</g>
<g>
</g>
<g>
</g>
<g>
</g>
<g>
</g>
<g>
</g>
<g>
</g>
<g>
</g>
<g>
</g>
<g>
</g>
<g>
</g>
<g>
</g>
<g>
</g>
<g>
</g>
</svg>
