<?xml version="1.0" encoding="iso-8859-1"?>
<!-- Generator: Adobe Illustrator 18.0.0, SVG Export Plug-In . SVG Version: 6.00 Build 0)  -->
<!DOCTYPE svg PUBLIC "-//W3C//DTD SVG 1.1//EN" "http://www.w3.org/Graphics/SVG/1.1/DTD/svg11.dtd">
<svg version="1.1" id="Capa_1" xmlns="http://www.w3.org/2000/svg" xmlns:xlink="http://www.w3.org/1999/xlink" x="0px" y="0px"
	 viewBox="0 0 409.185 409.185" style="enable-background:new 0 0 409.185 409.185;" xml:space="preserve">
<g>
	<path style="fill:#B2B1AA;" d="M329.988,36.838v15.96h-31.096H79.197v-15.96C79.197,16.488,95.686,0,116.035,0H293.15
		C313.489,0,329.988,16.488,329.988,36.838z"/>
	<path style="fill:#B2B1AA;" d="M117.366,354.187h212.622v18.16c0,20.349-16.499,36.838-36.838,36.838h-10.252H116.035
		c-20.349,0-36.838-16.488-36.838-36.838v-18.16H117.366z"/>
	<polygon style="fill:#D3D1C1;" points="329.988,196.893 329.988,354.187 117.366,354.187 298.892,54.14 298.892,52.798 
		329.988,52.798 329.988,152.344 	"/>
	<polygon style="fill:#E2E0D0;" points="298.892,52.798 298.892,54.14 117.366,354.187 79.197,354.187 79.197,52.798 	"/>
	<circle style="fill:#969489;" cx="204.593" cy="381.686" r="16.499"/>
</g>
<g>
	<path style="fill:#E59683;" d="M283.45,266.593l-52.832-52.832l-21.429,21.429c-1.27,1.269-2.933,1.903-4.596,1.903
		c-1.664,0-3.327-0.634-4.597-1.904l-21.424-21.424l-52.836,52.828H283.45z"/>
	<polygon style="fill:#E59683;" points="239.81,204.567 292.593,257.35 292.593,151.785 	"/>
	<polygon style="fill:#E59683;" points="283.4,142.593 125.785,142.593 204.594,221.401 	"/>
	<polygon style="fill:#E59683;" points="292.543,266.593 292.593,266.593 292.593,266.543 	"/>
	<polygon style="fill:#E59683;" points="116.593,266.543 116.593,266.593 116.642,266.593 	"/>
	<polygon style="fill:#E59683;" points="116.593,257.351 169.38,204.573 116.593,151.785 	"/>
</g>
<g>
</g>
<g>
</g>
<g>
</g>
<g>
</g>
<g>
</g>
<g>
</g>
<g>
</g>
<g>
</g>
<g>
</g>
<g>
</g>
<g>
</g>
<g>
</g>
<g>
</g>
<g>
</g>
<g>
</g>
</svg>
