<?xml version="1.0" encoding="iso-8859-1"?>
<!-- Generator: Adobe Illustrator 18.0.0, SVG Export Plug-In . SVG Version: 6.00 Build 0)  -->
<!DOCTYPE svg PUBLIC "-//W3C//DTD SVG 1.1//EN" "http://www.w3.org/Graphics/SVG/1.1/DTD/svg11.dtd">
<svg version="1.1" id="Capa_1" xmlns="http://www.w3.org/2000/svg" xmlns:xlink="http://www.w3.org/1999/xlink" x="0px" y="0px"
	 viewBox="0 0 432.59 432.59" style="enable-background:new 0 0 432.59 432.59;" xml:space="preserve">
<path style="fill:#E2E0D0;" d="M432.59,51.735v221.36H0V51.735c0-6.67,5.41-12.08,12.08-12.08h408.43
	C427.18,39.655,432.59,45.065,432.59,51.735z"/>
<path style="fill:#D3D1C1;" d="M420.51,39.655H280.185l-141.229,233.44H432.59V51.735C432.59,45.065,427.18,39.655,420.51,39.655z"
	/>
<polygon style="fill:#808080;" points="254.79,314.045 263.85,382.935 168.75,382.935 177.81,314.045 "/>
<path style="fill:#999999;" d="M432.59,273.095v28.86c0,6.68-5.41,12.09-12.08,12.09H254.79h-76.98H12.08
	c-6.67,0-12.08-5.41-12.08-12.09v-28.86H432.59z"/>
<rect x="132.47" y="372.935" style="fill:#999999;" width="167.65" height="20"/>
<rect x="316.3" y="204.005" style="fill:#E59683;" width="40" height="29.55"/>
<rect x="236.3" y="145.615" style="fill:#E59683;" width="40" height="88.43"/>
<rect x="76.3" y="172.045" style="fill:#E59683;" width="40" height="62"/>
<rect x="156.3" y="115.245" style="fill:#E59683;" width="40" height="118.8"/>
<g>
</g>
<g>
</g>
<g>
</g>
<g>
</g>
<g>
</g>
<g>
</g>
<g>
</g>
<g>
</g>
<g>
</g>
<g>
</g>
<g>
</g>
<g>
</g>
<g>
</g>
<g>
</g>
<g>
</g>
</svg>
