<?xml version="1.0" encoding="iso-8859-1"?>
<!-- Generator: Adobe Illustrator 18.0.0, SVG Export Plug-In . SVG Version: 6.00 Build 0)  -->
<!DOCTYPE svg PUBLIC "-//W3C//DTD SVG 1.1//EN" "http://www.w3.org/Graphics/SVG/1.1/DTD/svg11.dtd">
<svg version="1.1" id="Capa_1" xmlns="http://www.w3.org/2000/svg" xmlns:xlink="http://www.w3.org/1999/xlink" x="0px" y="0px"
	 viewBox="0 0 416 416" style="enable-background:new 0 0 416 416;" xml:space="preserve">
<polygon style="fill:#E59683;" points="416,78 416,130 390,130 364,130 364,78 "/>
<polygon style="fill:#E59683;" points="52,78 52,130 26,130 0,130 0,78 "/>
<path style="fill:#999999;" d="M182,322h-70.99c-5.523,0-10-4.477-10-10s4.477-10,10-10H182c5.523,0,10,4.477,10,10
	S187.523,322,182,322z"/>
<path style="fill:#999999;" d="M79.01,322h-34c-5.523,0-10-4.477-10-10s4.477-10,10-10h34c5.523,0,10,4.477,10,10
	S84.533,322,79.01,322z"/>
<path style="fill:#999999;" d="M304.99,322H234c-5.522,0-10-4.477-10-10s4.478-10,10-10h70.99c5.522,0,10,4.477,10,10
	S310.513,322,304.99,322z"/>
<path style="fill:#66645D;" d="M235.415,320.049l-2.83-19.799c40.563-5.799,77.839-26.08,104.961-57.106
	C364.923,211.828,380,171.645,380,130h20c0,46.488-16.832,91.345-47.396,126.308C322.333,290.936,280.714,313.573,235.415,320.049z"
	/>
<path style="fill:#66645D;" d="M180.584,320.049c-45.299-6.477-86.917-29.113-117.188-63.741C32.832,221.345,16,176.488,16,130h20
	c0,41.646,15.077,81.828,42.454,113.145c27.123,31.026,64.398,51.307,104.962,57.106L180.584,320.049z"/>
<path style="fill:#999999;" d="M370.99,322h-34c-5.522,0-10-4.477-10-10s4.478-10,10-10h34c5.522,0,10,4.477,10,10
	S376.513,322,370.99,322z"/>
<path style="fill:#B6CCE0;" d="M410.73,298.174v27.653c0,3.813-3.091,6.904-6.904,6.904h-27.653c-3.813,0-6.904-3.091-6.904-6.904
	v-27.653c0-3.813,3.091-6.904,6.904-6.904h27.653C407.639,291.27,410.73,294.361,410.73,298.174z"/>
<path style="fill:#B6CCE0;" d="M46.73,298.174v27.653c0,3.813-3.091,6.904-6.904,6.904H12.174c-3.813,0-6.904-3.091-6.904-6.904
	v-27.653c0-3.813,3.091-6.904,6.904-6.904h27.653C43.639,291.27,46.73,294.361,46.73,298.174z"/>
<polygon style="fill:#E59683;" points="234,312 234,338 182,338 182,312 182,310.15 182,286 234,286 234,310.15 "/>
<g>
</g>
<g>
</g>
<g>
</g>
<g>
</g>
<g>
</g>
<g>
</g>
<g>
</g>
<g>
</g>
<g>
</g>
<g>
</g>
<g>
</g>
<g>
</g>
<g>
</g>
<g>
</g>
<g>
</g>
</svg>
