<?xml version="1.0" encoding="iso-8859-1"?>
<!-- Generator: Adobe Illustrator 18.0.0, SVG Export Plug-In . SVG Version: 6.00 Build 0)  -->
<!DOCTYPE svg PUBLIC "-//W3C//DTD SVG 1.1//EN" "http://www.w3.org/Graphics/SVG/1.1/DTD/svg11.dtd">
<svg version="1.1" id="Capa_1" xmlns="http://www.w3.org/2000/svg" xmlns:xlink="http://www.w3.org/1999/xlink" x="0px" y="0px"
	 viewBox="0 0 432.59 432.59" style="enable-background:new 0 0 432.59 432.59;" xml:space="preserve">
<path style="fill:#E2E0D0;" d="M432.59,51.735v221.36H0V51.735c0-6.67,5.41-12.08,12.08-12.08h408.43
	C427.18,39.655,432.59,45.065,432.59,51.735z M305.8,205.455v-93.83c0-11.37-9.22-20.58-20.59-20.58H147.38
	c-11.37,0-20.58,9.21-20.58,20.58v93.83c0,11.37,9.21,20.59,20.58,20.59h137.83C296.58,226.045,305.8,216.825,305.8,205.455z"/>
<path style="fill:#EAE8DC;" d="M432.59,273.095V43.729c-2.213-2.493-5.432-4.074-9.027-4.074H176.69L35.46,273.095H432.59z"/>
<polygon style="fill:#B6CCE0;" points="248.81,158.545 203.26,184.835 203.26,132.245 "/>
<path style="fill:#E59683;" d="M305.8,111.625v93.83c0,11.37-9.22,20.59-20.59,20.59H147.38c-11.37,0-20.58-9.22-20.58-20.59v-93.83
	c0-11.37,9.21-20.58,20.58-20.58h137.83C296.58,91.045,305.8,100.255,305.8,111.625z M203.26,184.835l45.55-26.29l-45.55-26.3
	V184.835z"/>
<polygon style="fill:#808080;" points="254.79,314.045 263.85,382.935 168.75,382.935 177.81,314.045 "/>
<path style="fill:#999999;" d="M432.59,273.095v28.86c0,6.68-5.41,12.09-12.08,12.09H254.79h-76.98H12.08
	c-6.67,0-12.08-5.41-12.08-12.09v-28.86H432.59z"/>
<rect x="132.47" y="372.935" style="fill:#999999;" width="167.65" height="20"/>
<g>
</g>
<g>
</g>
<g>
</g>
<g>
</g>
<g>
</g>
<g>
</g>
<g>
</g>
<g>
</g>
<g>
</g>
<g>
</g>
<g>
</g>
<g>
</g>
<g>
</g>
<g>
</g>
<g>
</g>
</svg>
