<?xml version="1.0" encoding="utf-8"?>
<!-- Generator: Adobe Illustrator 17.0.0, SVG Export Plug-In . SVG Version: 6.00 Build 0)  -->
<!DOCTYPE svg PUBLIC "-//W3C//DTD SVG 1.1//EN" "http://www.w3.org/Graphics/SVG/1.1/DTD/svg11.dtd">
<svg version="1.1" id="图层_1" xmlns="http://www.w3.org/2000/svg" xmlns:xlink="http://www.w3.org/1999/xlink" x="0px" y="0px"
	 width="10px" height="10px" viewBox="0 0 10 10" enable-background="new 0 0 10 10" xml:space="preserve">
<g>
	<path fill="#6EA74F" d="M4.252,1.649c0,0-0.211-1.743-2.143-1.645C2.109,0.004,2.275,1.944,4.252,1.649z"/>
	<path fill="#5F9A47" d="M4.252,1.649L2.109,0.004C2.109,0.004,2.275,1.944,4.252,1.649z"/>
	<path fill="#513126" d="M5.098,0.444L4.787,0.298c0,0-0.73,1.026-0.685,2.132L4.23,2.455C4.23,2.455,4.236,1.166,5.098,0.444z"/>
	<path fill="#643D2E" d="M4.787,0.298l0.136,0.064c0,0-0.82,1.026-0.759,2.081L4.102,2.43C4.058,1.324,4.787,0.298,4.787,0.298z"/>
	<path fill="#E13424" d="M8.156,2.937C7.525,1.563,6.171,1.685,5.234,1.967c-0.635,0.191-1.329,0.191-1.964,0
		C2.333,1.685,0.979,1.563,0.348,2.937c-1.163,2.532,0.734,6.346,3.539,5.428c0.235-0.077,0.495-0.077,0.729,0
		C7.422,9.283,9.319,5.469,8.156,2.937z"/>
	<path fill="#CF2F1A" d="M8.156,2.937c-0.249-0.541-0.61-0.85-1.013-1.008c0.07,0.103,0.172,0.209,0.193,0.345
		c0.257,1.646-1.178,4.713-3.689,5.448C2.891,7.943,1.905,8.169,1.06,7.541c0.696,0.787,1.686,1.197,2.827,0.823
		c0.235-0.077,0.495-0.077,0.729,0C7.422,9.283,9.319,5.469,8.156,2.937z"/>
	<path fill="#C41E1F" d="M8.156,2.937C8.137,2.896,8.118,2.857,8.098,2.819c0.006,0.038,0.68,4.318-3.315,5.594
		C7.496,9.131,9.296,5.419,8.156,2.937z"/>
	<path fill="#EF8378" d="M2.571,2.519C3.01,2.731,3.829,2.338,4.009,2.81C4.21,3.336,1.889,3.938,1.242,3.449
		C0.899,3.189,0.854,2.737,1.415,2.447C1.975,2.157,2.172,2.327,2.571,2.519z"/>
</g>
</svg>
