<?xml version="1.0" encoding="utf-8"?>
<!-- Generator: Adobe Illustrator 17.0.0, SVG Export Plug-In . SVG Version: 6.00 Build 0)  -->
<!DOCTYPE svg PUBLIC "-//W3C//DTD SVG 1.1//EN" "http://www.w3.org/Graphics/SVG/1.1/DTD/svg11.dtd">
<svg version="1.1" id="图层_1" xmlns="http://www.w3.org/2000/svg" xmlns:xlink="http://www.w3.org/1999/xlink" x="0px" y="0px"
	 width="14.172px" height="14.172px" viewBox="0.001 0.001 14.172 14.172" enable-background="new 0.001 0.001 14.172 14.172"
	 xml:space="preserve">
<g>
	<circle fill="#B0D14D" cx="7.087" cy="7.087" r="7.086"/>
	<circle fill="#E1EAA0" cx="7.087" cy="7.087" r="6.599"/>
	<circle fill="#B0D14D" cx="7.087" cy="7.087" r="5.896"/>
	<g>
		<g>
			<defs>
				<circle id="SVGID_1_" cx="7.203" cy="6.962" r="5.931"/>
			</defs>
			<clipPath id="SVGID_2_">
				<use xlink:href="#SVGID_1_"  overflow="visible"/>
			</clipPath>
			
				<rect x="6.891" y="-1.982" transform="matrix(0.9978 -0.0657 0.0657 0.9978 -0.4457 0.4847)" clip-path="url(#SVGID_2_)" fill="#E1EAA0" width="0.511" height="18.002"/>
		</g>
		<g>
			<defs>
				<circle id="SVGID_3_" cx="7.072" cy="7.088" r="5.931"/>
			</defs>
			<clipPath id="SVGID_4_">
				<use xlink:href="#SVGID_3_"  overflow="visible"/>
			</clipPath>
			
				<rect x="6.831" y="-1.914" transform="matrix(0.0657 0.9978 -0.9978 0.0657 13.6922 -0.4495)" clip-path="url(#SVGID_4_)" fill="#E1EAA0" width="0.511" height="18.002"/>
		</g>
		<g>
			<defs>
				<circle id="SVGID_5_" cx="7.077" cy="7.101" r="5.931"/>
			</defs>
			<clipPath id="SVGID_6_">
				<use xlink:href="#SVGID_5_"  overflow="visible"/>
			</clipPath>
			
				<rect x="6.763" y="-1.889" transform="matrix(0.752 0.6591 -0.6591 0.752 6.4298 -2.9134)" clip-path="url(#SVGID_6_)" fill="#E1EAA0" width="0.647" height="17.955"/>
		</g>
		<g>
			<defs>
				<circle id="SVGID_7_" cx="7.085" cy="7.072" r="5.931"/>
			</defs>
			<clipPath id="SVGID_8_">
				<use xlink:href="#SVGID_7_"  overflow="visible"/>
			</clipPath>
			
				<rect x="6.762" y="-1.905" transform="matrix(-0.6591 0.752 -0.752 -0.6591 17.0736 6.4054)" clip-path="url(#SVGID_8_)" fill="#E1EAA0" width="0.647" height="17.955"/>
		</g>
	</g>
</g>
</svg>
