<svg width="367" height="435" viewBox="0 0 367 435" xmlns="http://www.w3.org/2000/svg" xmlns:xlink="http://www.w3.org/1999/xlink"><title>IDE-sprite2</title><defs><path d="M1.275.776C.568.776.01 1.446.01 2.278V5.28c0 .83.56 1.5 1.265 1.5h10.223c2.384.12 4.266 2.084 4.266 4.503 0 2.416-1.882 4.38-4.266 4.5H1.274c-.707 0-1.265.67-1.265 1.5v3c0 .832.558 1.502 1.264 1.502h10.222c.024 0 .045-.02.07-.024.15.008.295.025.446.025 5.798 0 10.503-4.705 10.503-10.502 0-5.8-4.705-10.505-10.503-10.505h-.373c-.048-.005-.093 0-.142 0H1.276V.776z" id="a"/><path d="M1.275.776C.568.776.01 1.446.01 2.278V5.28c0 .83.56 1.5 1.265 1.5h10.223c2.384.12 4.266 2.084 4.266 4.503 0 2.416-1.882 4.38-4.266 4.5H1.274c-.707 0-1.265.67-1.265 1.5v3c0 .832.558 1.502 1.264 1.502h10.222c.024 0 .045-.02.07-.024.15.008.295.025.446.025 5.798 0 10.503-4.705 10.503-10.502 0-5.8-4.705-10.505-10.503-10.505h-.373c-.048-.005-.093 0-.142 0H1.276V.776z" id="c"/><path id="e" d="M0 0h1v1H0z"/></defs><g fill="none" fill-rule="evenodd"><path d="M25.188 147.813v-7.62c0-1.222-.98-2.193-2.188-2.193-1.217 0-2.188.982-2.188 2.193v7.62h-7.62c-1.22 0-2.192.98-2.192 2.187 0 1.217.982 2.188 2.193 2.188h7.62v7.62c0 1.22.98 2.192 2.187 2.192 1.217 0 2.188-.982 2.188-2.193v-7.62h7.62c1.22 0 2.192-.98 2.192-2.187 0-1.217-.982-2.188-2.193-2.188h-7.62z" fill="#4FADFF"/><path d="M25.188 181.813v-7.62c0-1.222-.98-2.193-2.188-2.193-1.217 0-2.188.982-2.188 2.193v7.62h-7.62c-1.22 0-2.192.98-2.192 2.187 0 1.217.982 2.188 2.193 2.188h7.62v7.62c0 1.22.98 2.192 2.187 2.192 1.217 0 2.188-.982 2.188-2.193v-7.62h7.62c1.22 0 2.192-.98 2.192-2.187 0-1.217-.982-2.188-2.193-2.188h-7.62z" fill="#FFF"/><g transform="translate(6 6)"><path d="M233 210.632l2.33-2.263c.4-.39 1.098-.472 1.582-.17l2.328 1.444c.473.294 1.033.127 1.254-.385l2.152-4.968c.22-.507.56-.507.77.02l3.3 8.28c.205.517.453.502.556-.053l2.427-13.095c.1-.546.41-.596.685-.116l2.38 4.137" stroke="#575E75"/><path d="M266 211.632l2.33-2.263c.4-.39 1.098-.472 1.582-.17l2.328 1.444c.473.294 1.033.127 1.254-.385l2.152-4.968c.22-.507.56-.507.77.02l3.3 8.28c.205.517.453.502.556-.053l2.427-13.095c.1-.546.41-.596.685-.116l2.38 4.137" stroke="#FFF"/><path d="M139 30c-4.418 0-8 3.58-8 8s3.582 8 8 8c4.42 0 8.002-3.58 8.002-8s-3.58-8-8-8zm4.55 5.52l-5.77 5.904c-.124.134-.296.196-.47.19-.175.006-.346-.056-.472-.19l-2.386-2.52c-.245-.26-.22-.683.054-.943.276-.26.698-.26.944 0l1.87 1.975 5.232-5.358c.246-.26.668-.258.943.002.276.26.3.682.054.94z" fill="#FFF"/><path d="M84.972 344.986c0-4.41-3.575-7.986-7.986-7.986-4.41 0-7.986 3.576-7.986 7.986s3.576 7.986 7.986 7.986c1.687 0 3.25-.526 4.538-1.418l3.448.354-.917-3.21c.583-1.11.917-2.37.917-3.712zm-8.3 4.097c-.386 0-.672-.313-.64-.7.035-.384.374-.697.76-.697s.672.313.64.698c-.035.387-.375.7-.76.7zm.94-2.794c-.023.256-.25.464-.506.464h-.466c-.257 0-.448-.208-.426-.465l.402-4.658c.022-.257.25-.465.506-.465h.466c.257 0 .448.208.425.465l-.402 4.657z" fill="#A39B95"/><path d="M145.73 3.27c-1.48-1.48-2.59-1.258-2.59-1.258l-11.104 11.103L131 18l4.885-1.036 11.102-11.102s.223-1.11-1.258-2.592zm-10.136 13.106l-1.665.36c-.162-.3-.356-.602-.71-.956-.353-.355-.655-.547-.955-.708l.36-1.666.48-.48s.907.018 1.93 1.04c1.023 1.024 1.042 1.93 1.042 1.93l-.483.48zM13 105c-4.97 0-9 4.03-9 9s4.03 9 9 9 9-4.03 9-9-4.03-9-9-9zm0 16.313c-4.04 0-7.313-3.274-7.313-7.313 0-4.04 3.274-7.313 7.313-7.313 4.04 0 7.313 3.274 7.313 7.313 0 4.04-3.274 7.313-7.313 7.313zm3.502-11.813c.55 0 .998.446.998.998v7.004c0 .55-.446.998-.998.998H9.498c-.55 0-.998-.446-.998-.998v-7.004c0-.55.446-.998.998-.998h7.004zM13 77c-4.97 0-9 4.03-9 9s4.03 9 9 9 9-4.03 9-9-4.03-9-9-9zm0 16.313c-4.04 0-7.313-3.274-7.313-7.313 0-4.04 3.274-7.313 7.313-7.313 4.04 0 7.313 3.274 7.313 7.313 0 4.04-3.274 7.313-7.313 7.313zm-2.25-11.25L17.5 86l-6.75 3.938v-7.876zM80.723 84.978l-3.134 3.134c-.504.503-.5 1.307 0 1.805.5.502 1.305.498 1.804 0l3.134-3.134 3.134 3.134c.504.503 1.307.5 1.805 0 .502-.502.498-1.306 0-1.805l-3.134-3.134 3.134-3.134c.503-.503.5-1.307 0-1.805-.5-.503-1.306-.5-1.805 0l-3.134 3.133-3.134-3.134c-.503-.504-1.307-.5-1.805 0-.503.5-.5 1.305 0 1.804l3.133 3.134z" fill="#FFF"/><path d="M81.352 112.607l-3.134 3.134c-.503.504-.5 1.307 0 1.806.5.502 1.306.498 1.805 0l3.134-3.135 3.134 3.135c.504.504 1.308.5 1.806 0 .502-.5.498-1.306 0-1.804l-3.135-3.133 3.135-3.134c.504-.504.5-1.307 0-1.806-.5-.5-1.306-.498-1.804 0l-3.133 3.135-3.134-3.134c-.504-.503-1.307-.5-1.806 0-.5.5-.498 1.306 0 1.805l3.135 3.134z" fill="#FEE28E"/><path d="M62.71 84.247c.142-.14.142-.282.07-.422l-1.424-2.463c-.072-.07-.214-.14-.428-.07l-1.78.703c-.358-.28-.785-.492-1.213-.703l-.285-1.83c.07-.21-.142-.35-.285-.35h-2.85c-.143 0-.356.14-.356.28l-.286 1.9c-.428.14-.784.422-1.212.703l-1.71-.703c-.214-.07-.356 0-.5.14l-1.424 2.463c-.07.07 0 .28.142.422l1.497 1.126c0 .21-.07.422-.07.703 0 .28 0 .493.07.704l-1.497 1.196c-.142.14-.142.28-.07.422l1.424 2.462c.072.07.214.14.428.07l1.78-.703c.358.28.785.492 1.213.703l.285 1.83c0 .14.142.28.356.28h2.85c.143 0 .357-.14.357-.28l.285-1.83c.427-.21.855-.422 1.21-.703l1.783.703c.143.07.357 0 .428-.14l1.425-2.462c.072-.14.072-.352-.07-.423l-1.64-1.125c0-.21.072-.422.072-.704 0-.28 0-.492-.072-.703l1.497-1.196zm-6.77 4.362c-1.354 0-2.494-1.127-2.494-2.464 0-1.336 1.14-2.462 2.494-2.462 1.354 0 2.494 1.126 2.494 2.462 0 1.337-1.14 2.463-2.494 2.463z" fill="#FFF"/><path d="M62.71 112.136c.142-.14.142-.282.07-.422l-1.424-2.463c-.072-.07-.214-.14-.428-.07l-1.78.704c-.358-.28-.785-.492-1.213-.703l-.285-1.828c.07-.21-.142-.352-.285-.352h-2.85c-.143 0-.356.14-.356.28l-.286 1.9c-.428.142-.784.423-1.212.704l-1.71-.703c-.214-.07-.356 0-.5.142l-1.424 2.462c-.07.07 0 .28.142.422l1.497 1.126c0 .21-.07.422-.07.703 0 .28 0 .493.07.704l-1.497 1.195c-.142.14-.142.28-.07.422l1.424 2.462c.072.07.214.14.428.07l1.78-.704c.358.28.785.492 1.213.703l.285 1.83c0 .14.142.28.356.28h2.85c.143 0 .357-.14.357-.28l.285-1.83c.427-.212.855-.423 1.21-.704l1.783.703c.143.07.357 0 .428-.14l1.425-2.464c.072-.14.072-.35-.07-.422l-1.64-1.125c0-.212.072-.423.072-.705 0-.28 0-.492-.072-.703l1.497-1.196zm-6.77 4.36c-1.354 0-2.494-1.124-2.494-2.46 0-1.337 1.14-2.463 2.494-2.463 1.354 0 2.494 1.126 2.494 2.462 0 1.337-1.14 2.462-2.494 2.462z" fill="#FEE28E"/><path d="M121 79c-5.708 0-10 5.292-10 5.292v1.04c0 .043 4.292 5.335 10 5.335s10-5.292 10-5.292v-1.042c0-.04-4.292-5.333-10-5.333zm-.042 9.417c-1.916 0-3.5-1.584-3.5-3.5 0-1.917 1.584-3.5 3.5-3.5 1.917 0 3.5 1.583 3.5 3.5 0 1.916-1.54 3.5-3.5 3.5zm0-5.125c-.875 0-1.583.708-1.583 1.583s.708 1.583 1.583 1.583 1.584-.708 1.584-1.583-.667-1.583-1.584-1.583z" fill="#999"/><path d="M122 106c-5.708 0-10 5.292-10 5.292v1.04c0 .043 4.292 5.335 10 5.335s10-5.292 10-5.292v-1.042c0-.04-4.292-5.333-10-5.333zm-.042 9.417c-1.916 0-3.5-1.584-3.5-3.5 0-1.917 1.584-3.5 3.5-3.5 1.917 0 3.5 1.583 3.5 3.5 0 1.916-1.54 3.5-3.5 3.5zm0-5.125c-.875 0-1.583.708-1.583 1.583s.708 1.583 1.583 1.583 1.584-.708 1.584-1.583-.667-1.583-1.584-1.583z" fill="#BBB"/><path d="M142.516 89.14l2.156-2.156c-.406-.625-.656-1.375-.656-2.187 0-2.203 1.78-3.97 3.984-3.97.797 0 1.547.236 2.172.642l1.766-1.767c-1.188-.53-2.5-.875-3.938-.875-6 .016-10 6.016-10 6.016s1.688 2.53 4.516 4.297zm5.468-2.312c1.11 0 1.985-.906 1.985-2 0-.266-.064-.53-.157-.766l-2.61 2.61c.234.094.5.156.78.156zm0-3.984c-1.093 0-1.984.89-1.984 1.984 0 .25.047.484.125.703l2.563-2.56c-.22-.08-.454-.126-.704-.126zm5.407-2.36l-2.093 2.094c.437.64.687 1.406.687 2.25 0 2.203-1.78 3.97-3.984 3.97-.828 0-1.594-.25-2.234-.69l-1.813 1.814c1.203.547 2.563.922 4.047.922 6 0 10-6 10-6s-1.72-2.594-4.61-4.36zM157.14 75l.64.594-19.014 19.094-.657-.657L157.14 75z" fill="#999"/><path d="M143.516 116.14l2.156-2.156c-.406-.625-.656-1.375-.656-2.187 0-2.203 1.78-3.97 3.984-3.97.797 0 1.547.236 2.172.642l1.766-1.767c-1.188-.53-2.5-.875-3.938-.875-6 .016-10 6.016-10 6.016s1.688 2.53 4.516 4.297zm5.468-2.312c1.11 0 1.985-.906 1.985-2 0-.266-.064-.53-.157-.766l-2.61 2.61c.234.094.5.156.78.156zm0-3.984c-1.093 0-1.984.89-1.984 1.984 0 .25.047.484.125.703l2.563-2.56c-.22-.08-.454-.126-.704-.126zm5.407-2.36l-2.093 2.094c.437.64.687 1.406.687 2.25 0 2.203-1.78 3.97-3.984 3.97-.828 0-1.594-.25-2.234-.69l-1.813 1.814c1.203.547 2.563.922 4.047.922 6 0 10-6 10-6s-1.72-2.594-4.61-4.36zm3.75-5.484l.64.594-19.014 19.094-.657-.657L158.14 102z" fill="#BBB"/><path d="M58.408 289.728l-4.04 4.04c-.65.65-.645 1.683-.004 2.324.645.645 1.68.64 2.323-.003l4.04-4.042 4.042 4.04c.647.65 1.68.645 2.322.004.645-.645.64-1.68-.003-2.323l-4.042-4.042 4.04-4.04c.65-.65.645-1.683.004-2.324-.645-.645-1.68-.64-2.323.003l-4.042 4.04-4.04-4.04c-.65-.648-1.683-.644-2.324-.003-.645.645-.64 1.68.003 2.323l4.04 4.04z" fill="#999"/><path d="M58.408 311.728l-4.04 4.04c-.65.65-.645 1.683-.004 2.324.645.645 1.68.64 2.323-.003l4.04-4.042 4.042 4.04c.647.65 1.68.645 2.322.004.645-.645.64-1.68-.003-2.323l-4.042-4.042 4.04-4.04c.65-.65.645-1.683.004-2.324-.645-.645-1.68-.64-2.323.003l-4.042 4.04-4.04-4.04c-.65-.648-1.683-.644-2.324-.003-.645.645-.64 1.68.003 2.323l4.04 4.04z" fill="#666"/><path d="M16.054 293.005H8.05c-1.105 0-2-.896-2-2V283c0-1.104.895-2 2-2h8.004c1.105 0 2 .896 2 2v8.004c0 1.105-.895 2-2 2zm-9.012.993c-1.105 0-2-.896-2-2v-7.003H4c-1.106 0-2.002.896-2.002 2V295c0 1.104.896 2 2 2h8.004c1.105 0 2-.896 2-2v-1.002H7.043z" fill="#999"/><path d="M16.054 315.005H8.05c-1.105 0-2-.896-2-2V305c0-1.104.895-2 2-2h8.004c1.105 0 2 .896 2 2v8.004c0 1.105-.895 2-2 2zm-9.012.993c-1.105 0-2-.896-2-2v-7.003H4c-1.106 0-2.002.896-2.002 2V317c0 1.104.896 2 2 2h8.004c1.105 0 2-.896 2-2v-1.002H7.043z" fill="#666"/><path d="M41.346 280.858c.956 0 1.73.775 1.73 1.73 0 .39-.128.75-.345 1.04l-.692.69-2.423-2.422.693-.692c.29-.217.648-.346 1.038-.346zm-8.654 7.96L32 291.936l3.115-.693 6.404-6.403-2.424-2.424-6.404 6.403zm7.05-4.027l-4.847 4.847-.597-.597 4.846-4.846.597.597z" fill="#999"/><path d="M43.08 286.985v6.49c0 1.658-1.347 3.003-3.006 3.003h-8.58c-1.662 0-3.008-1.342-3.008-3.002v-8.4c0-1.657 1.34-3 2.998-3h3.032" stroke="#999" stroke-width="2"/><path d="M41.346 302.858c.956 0 1.73.775 1.73 1.73 0 .39-.128.75-.345 1.04l-.692.69-2.423-2.422.693-.692c.29-.217.648-.346 1.038-.346zm-8.654 7.96L32 313.936l3.115-.693 6.404-6.403-2.424-2.424-6.404 6.403zm7.05-4.027l-4.847 4.847-.597-.597 4.846-4.846.597.597z" fill="#666"/><path d="M43.08 308.985v6.49c0 1.658-1.347 3.003-3.006 3.003h-8.58c-1.662 0-3.008-1.342-3.008-3.002v-8.4c0-1.657 1.34-3 2.998-3h3.032" stroke="#666" stroke-width="2"/><path d="M96.83 288.33c1.435.84 1.44 2.194 0 3.034L86.6 297.33c-1.436.84-2.6.165-2.6-1.475V283.84c0-1.653 1.16-2.316 2.6-1.476l10.23 5.967z" fill="#999"/><path d="M96.83 310.33c1.435.84 1.44 2.194 0 3.034L86.6 319.33c-1.436.84-2.6.165-2.6-1.475V305.84c0-1.653 1.16-2.316 2.6-1.476l10.23 5.967z" fill="#666"/><path d="M158.465 281.352c-.272-.23-.614-.352-.964-.352-.085 0-.173.007-.26.023l-12.75 2.25c-.718.126-1.24.75-1.24 1.477v12.877c-.762-.552-1.75-.877-2.846-.877-.637 0-1.275.106-1.897.312-1.423.475-2.565 1.426-3.132 2.613-.438.917-.494 1.915-.16 2.81.57 1.528 2.192 2.515 4.13 2.515.638 0 1.276-.104 1.897-.312 1.423-.473 2.564-1.425 3.13-2.61.245-.51.36-1.047.363-1.578h.014v-12c.085 0 .173-.007.26-.022l12.49-2.204v9.103c-.76-.552-1.748-.877-2.845-.877-.638 0-1.276.106-1.897.312-1.423.475-2.565 1.426-3.13 2.613-.438.917-.495 1.915-.162 2.81.572 1.528 2.192 2.515 4.13 2.515.64 0 1.277-.104 1.898-.312 1.422-.473 2.564-1.425 3.13-2.61.245-.51.358-1.047.364-1.578H159V282.5c0-.442-.195-.864-.535-1.148z" fill="#575E75"/><path fill="#666" d="M186.5 306.38h7.107v2.523l3.393-3.366-3.393-3.537-.058 2.617h-7.05l-.102-2.617-3.398 3.56 3.398 3.406"/><g fill="#666"><path d="M194.962 283.05c.68.68 1.19 1.45 1.528 2.312.34.863.51 1.742.51 2.638 0 .896-.17 1.775-.51 2.638-.34.862-.85 1.633-1.528 2.312-.687.687-1.462 1.2-2.324 1.54-.863.34-1.742.51-2.638.51-.896 0-1.775-.17-2.638-.51-.862-.34-1.633-.85-2.312-1.528-.687-.687-1.2-1.462-1.54-2.324-.34-.863-.51-1.742-.51-2.638 0-.896.17-1.775.51-2.638.34-.862.853-1.637 1.54-2.324.68-.68 1.45-1.19 2.312-1.528.863-.34 1.742-.51 2.638-.51.896 0 1.775.17 2.638.51.862.34 1.637.853 2.324 1.54zm-8.894 8.892c.544.544 1.158.952 1.842 1.223.685.272 1.385.408 2.1.408.716 0 1.416-.136 2.1-.408.686-.27 1.3-.68 1.843-1.223.544-.543.952-1.157 1.224-1.842.27-.685.407-1.385.407-2.1 0-.716-.136-1.416-.407-2.1-.272-.685-.68-1.3-1.224-1.843-.55-.55-1.168-.962-1.852-1.234-.684-.27-1.384-.407-2.1-.407-.715 0-1.415.136-2.1.407-.685.272-1.3.68-1.842 1.224-.544.543-.95 1.157-1.223 1.842-.272.684-.408 1.384-.408 2.1 0 .715.136 1.415.408 2.1.27.684.683 1.302 1.233 1.852z"/><path d="M193.592 283.333l1.075 1.113-8.24 8.22-1.094-1.092"/></g><path d="M31.813 338c1.207 0 2.187.98 2.187 2.188 0 .492-.163.946-.438 1.312l-.874.875-3.063-3.063.875-.875c.366-.274.82-.437 1.313-.437zm-10.938 10.063L20 352l3.938-.875 8.093-8.094-3.06-3.06-8.095 8.092zm8.908-5.092l-6.125 6.126-.754-.754 6.125-6.125.753.754zM53.706 343.718H49.26v-4.447c0-.702-.57-1.27-1.272-1.27-.702 0-1.27.568-1.27 1.27v4.448H42.27c-.7 0-1.27.568-1.27 1.27 0 .7.57 1.27 1.27 1.27h4.448v4.448c0 .7.568 1.27 1.27 1.27.702 0 1.27-.57 1.27-1.27v-4.447h4.448c.7 0 1.27-.57 1.27-1.272 0-.702-.57-1.27-1.27-1.27zM7.248 347.33c1.608 0 2.916-1.308 2.916-2.915v-3.5c0-.264-.032-.507-.094-.726-.328-1.29-1.488-2.19-2.822-2.19-1.333 0-2.493.9-2.818 2.175-.065.233-.097.476-.097.74v3.5c0 1.607 1.308 2.915 2.915 2.915zm5.25-2.915c0-.322-.262-.583-.584-.583-.322 0-.584.26-.584.583 0 2.25-1.83 4.082-4.082 4.082-2.25 0-4.082-1.83-4.082-4.082 0-.322-.26-.583-.583-.583-.322 0-.583.26-.583.583 0 2.696 2.045 4.922 4.665 5.214v1.2h-1.75c-.32 0-.582.26-.582.583 0 .322.26.583.583.583H9.58c.323 0 .584-.26.584-.583 0-.323-.26-.584-.583-.584H7.833v-1.2c2.62-.293 4.665-2.52 4.665-5.215zM194.912 317.047L196.96 315v6.14h-6.14l2.823-2.824c-1.037-1.037-2.265-1.556-3.684-1.556-1.447 0-2.682.512-3.705 1.536-1.024 1.023-1.536 2.258-1.536 3.704 0 1.446.51 2.68 1.535 3.704 1.023 1.024 2.258 1.536 3.704 1.536 1.145 0 2.17-.32 3.07-.963.9-.64 1.528-1.48 1.882-2.517h1.802c-.382 1.528-1.2 2.783-2.457 3.766C193 328.51 191.57 329 189.96 329c-1.91 0-3.548-.682-4.913-2.047-1.365-1.365-2.047-3.016-2.047-4.953 0-1.937.682-3.588 2.047-4.953 1.365-1.365 3.002-2.047 4.912-2.047 1.936 0 3.587.682 4.952 2.047z" fill="#666"/><path d="M247.587 166c-1.225 0-2.352.446-3.175 1.255l-3.31 3.277c-.037.03-7.067 7.002-7.067 7.002-.324.316-.558.71-.69 1.14l-2.218 6.297c0 .017-.105.463-.105.69 0 1.292 1.067 2.34 2.382 2.34.262 0 .77-.123.787-.126l6.387-2.1c.438-.128.836-.36 1.16-.68l10.377-10.282c1.887-1.857 1.674-4.97-.484-7.088-1.12-1.098-2.59-1.724-4.043-1.724zm-5.345 16.405c-.057-.622-.236-1.232-.503-1.81l6.623-6.52c.405 1.26.197 2.576-.69 3.45l-.018.015.01.01-5.415 5.37c0-.172.008-.34-.008-.515zm-.855-2.44c-.26-.423-.56-.83-.926-1.192-.428-.42-.92-.752-1.432-1.03l6.68-6.57c.523.23 1.026.555 1.47.99.378.373.67.79.897 1.222l-6.688 6.58zm-3.018-2.547c-.65-.257-1.33-.404-2.01-.413l5.397-5.35c.826-.794 2.03-1.022 3.214-.733l-6.6 6.496zm-4.428 9.177c-.077.017-.314.076-.475.087-.576-.006-1.044-.467-1.044-1.034.01-.115.056-.315.072-.387l.738-2.63c.8-.02 1.662.287 2.34.955.688.676 1.01 1.54.976 2.338l-2.608.672zm3.298-.852c-.017-.925-.4-1.888-1.172-2.646-.73-.72-1.686-1.134-2.64-1.172l.7-2.486c.05-.167.15-.33.273-.473 1.407-.99 3.568-.697 5.07.78 1.588 1.564 1.833 3.852.61 5.22-.08.04-.163.08-.25.106l-2.59.67zm13.885-11.627l-1.18 1.17c0-.156.02-.306.004-.465-.124-1.333-.756-2.623-1.783-3.63-1.14-1.125-2.655-1.77-4.153-1.774l1.16-1.15c.58-.57 1.39-.887 2.278-.887 1.127 0 2.285.5 3.176 1.374.836.82 1.334 1.842 1.406 2.874.065.963-.258 1.846-.91 2.488z" fill="#575E75"/><path d="M280.565 167c-1.225 0-2.352.446-3.175 1.255l-3.31 3.277c-.037.03-7.067 7.002-7.067 7.002-.324.316-.558.71-.69 1.14l-2.218 6.297c0 .017-.105.463-.105.69 0 1.292 1.067 2.34 2.382 2.34.262 0 .77-.123.787-.126l6.385-2.1c.438-.128.836-.36 1.16-.68l10.377-10.282c1.887-1.857 1.675-4.97-.484-7.088-1.12-1.098-2.59-1.724-4.043-1.724zm-5.345 16.405c-.057-.622-.236-1.232-.503-1.81l6.625-6.52c.404 1.26.196 2.576-.69 3.45l-.02.015.01.01-5.414 5.37c0-.172.01-.34-.008-.515zm-.855-2.44c-.26-.423-.558-.83-.926-1.192-.43-.42-.92-.752-1.433-1.03l6.678-6.57c.524.23 1.027.555 1.47.99.38.373.672.79.898 1.222l-6.688 6.58zm-3.018-2.547c-.65-.257-1.328-.404-2.01-.413l5.398-5.35c.826-.794 2.03-1.022 3.214-.733l-6.603 6.496zm-4.427 9.177c-.077.017-.314.076-.475.087-.576-.006-1.044-.467-1.044-1.034.01-.115.057-.315.073-.387l.738-2.63c.8-.02 1.663.287 2.34.955.69.676 1.013 1.54.978 2.338l-2.608.672zm3.298-.852c-.017-.925-.4-1.888-1.172-2.646-.73-.72-1.686-1.134-2.64-1.172l.7-2.486c.05-.167.15-.33.273-.473 1.405-.99 3.566-.697 5.068.78 1.588 1.564 1.834 3.852.61 5.22-.08.04-.163.08-.25.106l-2.59.67zm13.885-11.627l-1.18 1.17c0-.156.02-.306.004-.465-.123-1.333-.755-2.623-1.782-3.63-1.14-1.125-2.655-1.77-4.153-1.774l1.16-1.15c.58-.57 1.392-.887 2.278-.887 1.127 0 2.286.5 3.176 1.374.836.82 1.334 1.842 1.406 2.874.065.963-.258 1.846-.91 2.488z" fill="#FFF"/><g transform="translate(232 85)" fill="#575E75"><path d="M19.584 13.78c1.548-1.896 2.408-4.27 2.408-6.778S21.13 2.117 19.58.22c-.195-.24-.544-.273-.78-.077-.237.196-.27.548-.076.786 1.388 1.698 2.16 3.825 2.16 6.072 0 2.246-.77 4.37-2.156 6.07-.195.237-.16.59.076.785.236.196.586.162.78-.077zM2.42.22C.874 2.116.013 4.49.013 6.998s.862 4.885 2.413 6.783c.194.24.544.273.78.077s.27-.548.076-.786C1.893 11.373 1.12 9.246 1.12 7c0-2.246.77-4.37 2.157-6.07.194-.237.16-.59-.076-.785-.236-.196-.585-.162-.78.077z"/><ellipse cx="10.936" cy="7" rx="3.624" ry="3.645"/><path d="M5.69 3.27C4.84 4.315 4.367 5.62 4.367 7c0 1.378.475 2.686 1.327 3.73.195.237.544.27.78.075.237-.196.27-.548.076-.786C5.86 9.173 5.474 8.116 5.474 7c0-1.118.383-2.175 1.072-3.02.195-.238.16-.59-.076-.785-.235-.196-.585-.162-.78.076zM16.174 10.73C17.024 9.685 17.5 8.38 17.5 7c0-1.378-.475-2.686-1.328-3.73-.194-.237-.544-.27-.78-.075-.237.196-.27.548-.076.786.69.846 1.074 1.903 1.074 3.02 0 1.118-.383 2.175-1.072 3.02-.195.238-.16.59.076.785.237.196.586.162.78-.076z"/></g><g transform="translate(265 86)" fill="#FFF"><path d="M19.584 13.78c1.548-1.896 2.408-4.27 2.408-6.778S21.13 2.117 19.58.22c-.195-.24-.544-.273-.78-.077-.237.196-.27.548-.076.786 1.388 1.698 2.16 3.825 2.16 6.072 0 2.246-.77 4.37-2.156 6.07-.195.237-.16.59.076.785.236.196.586.162.78-.077zM2.42.22C.874 2.116.013 4.49.013 6.998s.862 4.885 2.413 6.783c.194.24.544.273.78.077s.27-.548.076-.786C1.893 11.373 1.12 9.246 1.12 7c0-2.246.77-4.37 2.157-6.07.194-.237.16-.59-.076-.785-.236-.196-.585-.162-.78.077z"/><ellipse cx="10.936" cy="7" rx="3.624" ry="3.645"/><path d="M5.69 3.27C4.84 4.315 4.367 5.62 4.367 7c0 1.378.475 2.686 1.327 3.73.195.237.544.27.78.075.237-.196.27-.548.076-.786C5.86 9.173 5.474 8.116 5.474 7c0-1.118.383-2.175 1.072-3.02.195-.238.16-.59-.076-.785-.235-.196-.585-.162-.78.076zM16.174 10.73C17.024 9.685 17.5 8.38 17.5 7c0-1.378-.475-2.686-1.328-3.73-.194-.237-.544-.27-.78-.075-.237.196-.27.548-.076.786.69.846 1.074 1.903 1.074 3.02 0 1.118-.383 2.175-1.072 3.02-.195.238-.16.59.076.785.237.196.586.162.78-.076z"/></g><g fill="#575E75"><path d="M248.343 5.34c1.46 0 2.65-1.197 2.65-2.67 0-1.47-1.19-2.67-2.65-2.67s-2.65 1.2-2.65 2.67c0 1.473 1.19 2.67 2.65 2.67zm0-4.502c1.003 0 1.82.822 1.82 1.833 0 1.012-.817 1.834-1.82 1.834-1.003 0-1.82-.822-1.82-1.833 0-1.01.817-1.832 1.82-1.832z"/><path d="M253.97 10.838c-.07-.313-.385-.86-1.685-1.004-.19-.022-.37-.04-.543-.058-1.23-.125-1.886-.214-2.233-.726-.415-.61-.91-1.43-1.106-1.76.066-.71-.77-1.76-2.13-2.627-.93-.59-1.897-.89-2.88-.89-.573 0-1.162.102-1.754.303-1.12.38-4.257 1.806-5.026 2.92-.33.48-.23.846-.138 1.02.183.354.603.55 1.182.55.628 0 1.36-.234 2.008-.64.967-.606 2.07-1.013 2.748-1.013.235 0 .4.05.44.133.002.003.113.338-.656 1.516-.49.752-1.126 1.51-1.508 1.894-.68.685-1.36 1.866-1.285 2.705.015.17.06.308.116.42-.268.298-.73.82-1.264 1.467-.143.172-.568.376-1.787.376-.455 0-.932-.025-1.394-.05-.424-.023-.824-.044-1.175-.044-.386 0-.664.026-.874.083-.628.17-1.015.7-1.01 1.38.007.626.372 1.35 1.058 1.523.65.164 2.936.415 4.648.415.812 0 1.418-.055 1.8-.167.633-.185 1.322-.863 2.046-2.014.325-.518.583-1.01.732-1.31.318.17.633.343.92.516 1.006.606 1.124.862 1.136.896.137.745-.488 3.202-1.235 4.43-.496.817-.607 1.767-.277 2.362.19.34.513.536.888.536.235 0 .484-.075.74-.223 1.268-.73 2.18-2.517 2.982-4.095l.007-.012c.06-.12.123-.242.187-.366.385-.744.82-1.587 1-2.34.292-1.244-.236-1.84-.73-2.12-.846-.48-2.604-1.475-2.834-2.456-.058-.247-.01-.474.15-.712.316-.473.718-1.013 1.123-1.538.314.587.928 1.606 1.65 2.143.398.298 1.06.448 1.962.448 1.265 0 2.775-.305 3.365-.68.505-.322.737-.755.638-1.19zM240.867 16.1c-.803 1.277-1.332 1.588-1.577 1.66-.21.06-.654.134-1.568.134-1.703 0-3.902-.253-4.446-.39-.233-.06-.425-.38-.428-.72-.002-.207.065-.474.394-.563.134-.035.356-.054.66-.054.328 0 .717.02 1.13.043.473.025.96.05 1.437.05.867 0 1.927-.076 2.424-.677.528-.64.992-1.163 1.254-1.452.016.01.032.02.05.028l1.323.778c-.143.286-.373.72-.654 1.164zm3.678-4.913c-.29.434-.38.896-.27 1.374.314 1.34 2.214 2.415 3.234 2.994.81.46.237 1.73-.598 3.343-.065.126-.13.25-.19.37l-.007.013c-.75 1.474-1.602 3.144-2.654 3.75-.128.073-.244.113-.33.113-.05 0-.106-.008-.162-.108-.153-.275-.113-.9.262-1.516.39-.642.772-1.602 1.05-2.632.13-.49.422-1.706.29-2.396-.133-.708-1.31-1.414-3.732-2.636-.313-.158-.615-.31-.837-.43l-.304-.18c-.02-.015-.054-.053-.064-.162-.044-.48.445-1.43 1.045-2.036.43-.433 1.1-1.233 1.627-2.045.716-1.1.937-1.842.694-2.33-.135-.273-.45-.597-1.184-.597-.844 0-2.065.436-3.187 1.14-.52.325-1.092.512-1.57.512-.276 0-.405-.066-.44-.095.005-.02.02-.072.08-.158.572-.83 3.348-2.178 4.608-2.605.506-.172 1.007-.26 1.488-.26.824 0 1.644.257 2.436.76.762.486 1.19.926 1.413 1.208.25.317.32.53.332.61l-.14.204c-.172.23-.456.588-.717.916-.66.83-1.56 1.965-2.174 2.88zm8.346.132c-.41.26-1.746.55-2.922.55-.69 0-1.227-.102-1.47-.283-.67-.5-1.275-1.596-1.51-2.057l.95-1.396c.244.4.582.942.885 1.39.58.856 1.576.957 2.835 1.085.173.017.35.035.536.056.746.083.955.31.967.36.007.027-.048.15-.27.293z"/></g><g fill="#FFF"><path d="M281.343 6.34c1.46 0 2.65-1.197 2.65-2.67 0-1.47-1.19-2.67-2.65-2.67s-2.65 1.2-2.65 2.67c0 1.473 1.19 2.67 2.65 2.67zm0-4.502c1.003 0 1.82.822 1.82 1.833 0 1.012-.817 1.834-1.82 1.834-1.003 0-1.82-.822-1.82-1.833 0-1.01.817-1.832 1.82-1.832z"/><path d="M286.97 11.838c-.07-.313-.385-.86-1.685-1.004-.19-.022-.37-.04-.543-.058-1.23-.125-1.886-.214-2.233-.726-.415-.61-.91-1.43-1.106-1.76.066-.71-.77-1.76-2.13-2.627-.93-.59-1.897-.89-2.88-.89-.573 0-1.162.102-1.754.303-1.12.38-4.257 1.806-5.026 2.92-.33.48-.23.846-.138 1.02.183.354.603.55 1.182.55.628 0 1.36-.234 2.008-.64.967-.606 2.07-1.013 2.748-1.013.235 0 .4.05.44.133.002.003.113.338-.656 1.516-.49.752-1.126 1.51-1.508 1.894-.68.685-1.36 1.866-1.285 2.705.015.17.06.308.116.42-.268.298-.73.82-1.264 1.467-.143.172-.568.376-1.787.376-.455 0-.932-.025-1.394-.05-.424-.023-.824-.044-1.175-.044-.386 0-.664.026-.874.083-.628.17-1.015.7-1.01 1.38.007.626.372 1.35 1.058 1.523.65.164 2.936.415 4.648.415.812 0 1.418-.055 1.8-.167.633-.185 1.322-.863 2.046-2.014.325-.518.583-1.01.732-1.31.318.17.633.343.92.516 1.006.606 1.124.862 1.136.896.137.745-.488 3.202-1.235 4.43-.496.817-.607 1.767-.277 2.362.19.34.513.536.888.536.235 0 .484-.075.74-.223 1.268-.73 2.18-2.517 2.982-4.095l.007-.012c.06-.12.123-.242.187-.366.385-.744.82-1.587 1-2.34.292-1.244-.236-1.84-.73-2.12-.846-.48-2.604-1.475-2.834-2.456-.058-.247-.01-.474.15-.712.316-.473.718-1.013 1.123-1.538.314.587.928 1.606 1.65 2.143.398.298 1.06.448 1.962.448 1.265 0 2.775-.305 3.365-.68.505-.322.737-.755.638-1.19zM273.867 17.1c-.803 1.277-1.332 1.588-1.577 1.66-.21.06-.654.134-1.568.134-1.703 0-3.902-.253-4.446-.39-.233-.06-.425-.38-.428-.72-.002-.207.065-.474.394-.563.134-.035.356-.054.66-.054.328 0 .717.02 1.13.043.473.025.96.05 1.437.05.867 0 1.927-.076 2.424-.677.528-.64.992-1.163 1.254-1.452.016.01.032.02.05.028l1.323.778c-.143.286-.373.72-.654 1.164zm3.678-4.913c-.29.434-.38.896-.27 1.374.314 1.34 2.214 2.415 3.234 2.994.81.46.237 1.73-.598 3.343-.065.126-.13.25-.19.37l-.007.013c-.75 1.474-1.602 3.144-2.654 3.75-.128.073-.244.113-.33.113-.05 0-.106-.008-.162-.108-.153-.275-.113-.9.262-1.516.39-.642.772-1.602 1.05-2.632.13-.49.422-1.706.29-2.396-.133-.708-1.31-1.414-3.732-2.636-.313-.158-.615-.31-.837-.43l-.304-.18c-.02-.015-.054-.053-.064-.162-.044-.48.445-1.43 1.045-2.036.43-.433 1.1-1.233 1.627-2.045.716-1.1.937-1.842.694-2.33-.135-.273-.45-.597-1.184-.597-.844 0-2.065.436-3.187 1.14-.52.325-1.092.512-1.57.512-.276 0-.405-.066-.44-.095.005-.02.02-.072.08-.158.572-.83 3.348-2.178 4.608-2.605.506-.172 1.007-.26 1.488-.26.824 0 1.644.257 2.436.76.762.486 1.19.926 1.413 1.208.25.317.32.53.332.61l-.14.204c-.172.23-.456.588-.717.916-.66.83-1.56 1.965-2.174 2.88zm8.346.132c-.41.26-1.746.55-2.922.55-.69 0-1.227-.102-1.47-.283-.67-.5-1.275-1.596-1.51-2.057l.95-1.396c.244.4.582.942.885 1.39.58.856 1.576.957 2.835 1.085.173.017.35.035.536.056.746.083.955.31.967.36.007.027-.048.15-.27.293z"/></g><path d="M241.254 39.318h-1.28v-1.17c0-.29-.258-.523-.577-.523-.318 0-.576.234-.576.522v1.17h-1.28c-.256 0-.464.256-.464.57 0 .316.208.57.464.57h1.28v1.173c0 .288.26.522.577.522.32 0 .577-.234.577-.522v-1.172h1.28c.256 0 .464-.255.464-.57 0-.315-.208-.57-.464-.57zm6.098-6.308c-.945 0-2.796 1.3-4.35 1.3-1.557 0-3.484-1.3-4.317-1.3-5.722 0-9 15.325-4.722 15.325 3.935 0 4.328-3.735 9.04-4.145 3.923.41 6.67 4.094 9.015 4.094 4.278 0 1.056-15.274-4.666-15.274zm4.692 13.828c-2.353 0-5.498-3.73-9.027-3.73-4.363 0-5.84 4.103-9.028 4.103-2.14 0-.104-13.08 4.71-13.08.735 0 2.946 1.267 4.32 1.267 1.37 0 3.48-1.268 4.314-1.268 4.387 0 6.895 12.708 4.71 12.708zm-5.377-8.642c-.804 0-1.456.635-1.456 1.417s.653 1.417 1.457 1.417c.805 0 1.457-.635 1.457-1.417s-.652-1.417-1.457-1.417z" fill="#575E75"/><path d="M274.254 40.318h-1.28v-1.17c0-.29-.258-.523-.577-.523-.318 0-.576.234-.576.522v1.17h-1.28c-.256 0-.464.256-.464.57 0 .316.208.57.464.57h1.28v1.173c0 .288.26.522.577.522.32 0 .577-.234.577-.522v-1.172h1.28c.256 0 .464-.255.464-.57 0-.315-.208-.57-.464-.57zm6.098-6.308c-.945 0-2.796 1.3-4.35 1.3-1.557 0-3.484-1.3-4.317-1.3-5.722 0-9 15.325-4.722 15.325 3.935 0 4.328-3.735 9.04-4.145 3.923.41 6.67 4.094 9.015 4.094 4.278 0 1.056-15.274-4.666-15.274zm4.692 13.828c-2.353 0-5.498-3.73-9.027-3.73-4.363 0-5.84 4.103-9.028 4.103-2.14 0-.104-13.08 4.71-13.08.735 0 2.946 1.267 4.32 1.267 1.37 0 3.48-1.268 4.314-1.268 4.387 0 6.895 12.708 4.71 12.708zm-5.377-8.642c-.804 0-1.456.635-1.456 1.417s.653 1.417 1.457 1.417c.805 0 1.457-.635 1.457-1.417s-.652-1.417-1.457-1.417z" fill="#FFF"/><g fill="#575E75"><path d="M237.955 112.223h-4.188c-.963 0-1.746.737-1.746 1.643v6.002c0 .907.784 1.644 1.747 1.644h4.18c.693.43 4.37 2.854 6.83 4.482l.838-.017v-17.96h-.824c-2.464 1.53-6.153 3.81-6.835 4.206zm6.597 12.398c-6.21-4.108-6.233-4.108-6.455-4.108h-4.33c-.376 0-.683-.29-.683-.644v-6.002c0-.354.307-.643.683-.643h4.33c.21 0 .235 0 6.455-3.86v15.258zM247.21 114.866c.138 0 .275-.05.38-.15l4.556-4.358c.206-.197.203-.514-.006-.707-.21-.193-.546-.19-.752.007l-4.557 4.358c-.205.197-.202.514.007.708.104.096.24.143.373.143zM247.893 119.66c-.206-.196-.542-.2-.752-.005-.208.193-.21.51-.005.707l4.557 4.36c.104.1.24.148.38.148.134 0 .268-.047.372-.143.21-.194.212-.51.006-.708l-4.557-4.36zM252.453 116.506h-5.243c-.293 0-.53.224-.53.5s.237.5.53.5h5.243c.294 0 .532-.224.532-.5s-.238-.5-.532-.5z"/></g><g fill="#FFF"><path d="M270.955 113.223h-4.188c-.963 0-1.746.737-1.746 1.643v6.002c0 .907.784 1.644 1.747 1.644h4.18c.693.43 4.37 2.854 6.83 4.482l.838-.017v-17.96h-.824c-2.464 1.53-6.153 3.81-6.835 4.206zm6.597 12.398c-6.21-4.108-6.233-4.108-6.455-4.108h-4.33c-.376 0-.683-.29-.683-.644v-6.002c0-.354.307-.643.683-.643h4.33c.21 0 .235 0 6.455-3.86v15.258zM280.21 115.866c.138 0 .275-.05.38-.15l4.556-4.358c.206-.197.203-.514-.006-.707-.21-.193-.546-.19-.752.007l-4.557 4.358c-.205.197-.202.514.007.708.104.096.24.143.373.143zM280.893 120.66c-.206-.196-.542-.2-.752-.005-.208.193-.21.51-.005.707l4.557 4.36c.104.1.24.148.38.148.134 0 .268-.047.372-.143.21-.194.212-.51.006-.708l-4.557-4.36zM285.453 117.506h-5.243c-.293 0-.53.224-.53.5s.237.5.53.5h5.243c.294 0 .532-.224.532-.5s-.238-.5-.532-.5z"/></g><path d="M246.918 75.996h-8.84c-.914 0-1.658-.712-1.658-1.587V64.56l-2.588.826c-.29.093-.602-.057-.698-.334l-1.105-3.174c-.09-.25.03-.523.276-.64l6.63-3.175c.172-.08.375-.073.537.024.163.095.262.265.262.448 0 1.458 1.24 2.646 2.763 2.646s2.762-1.188 2.762-2.646c0-.183.1-.353.262-.45.163-.096.366-.104.537-.023l6.63 3.175c.246.117.363.39.277.64l-1.105 3.174c-.096.277-.41.428-.698.334l-2.588-.826v9.847c0 .874-.744 1.586-1.658 1.586zM236.973 63.3c.115 0 .227.033.322.098.144.1.23.26.23.43v10.58c0 .293.248.53.553.53h8.84c.305 0 .553-.237.553-.53V63.83c0-.17.086-.33.23-.43.145-.1.33-.127.498-.073l2.79.89.78-2.236-5.495-2.632c-.388 1.653-1.933 2.892-3.774 2.892-1.842 0-3.388-1.24-3.775-2.892l-5.495 2.63.78 2.238 2.79-.89c.058-.02.116-.028.175-.028h-.002z" fill="#575E75"/><path d="M279.918 76.996h-8.84c-.914 0-1.658-.712-1.658-1.587V65.56l-2.588.826c-.29.093-.602-.057-.698-.334l-1.105-3.174c-.09-.25.03-.523.276-.64l6.63-3.175c.172-.08.375-.073.537.024.163.095.262.265.262.448 0 1.458 1.24 2.646 2.763 2.646s2.762-1.188 2.762-2.646c0-.183.1-.353.262-.45.163-.096.366-.104.537-.023l6.63 3.175c.246.117.363.39.277.64l-1.105 3.174c-.096.277-.41.428-.698.334l-2.588-.826v9.847c0 .874-.744 1.586-1.658 1.586zM269.973 64.3c.115 0 .227.033.322.098.144.1.23.26.23.43v10.58c0 .293.248.53.553.53h8.84c.305 0 .553-.237.553-.53V64.83c0-.17.086-.33.23-.43.145-.1.33-.127.498-.073l2.79.89.78-2.236-5.495-2.632c-.388 1.653-1.933 2.892-3.774 2.892-1.842 0-3.388-1.24-3.775-2.892l-5.495 2.63.78 2.238 2.79-.89c.058-.02.116-.028.175-.028h-.002z" fill="#FFF"/><path d="M252.94 135.017h-19.88c-.578 0-1.045.467-1.045 1.043v19.88c0 .575.467 1.043 1.045 1.043h19.88c.577 0 1.045-.468 1.045-1.043v-19.88c0-.576-.468-1.043-1.045-1.043zm-.09 20.818h-19.685V136.12h19.686v19.715zm-16.54-12.918h1.898v2.144c0 .45.364.813.813.813.45 0 .815-.364.815-.812v-2.143h1.898c.45 0 .814-.163.814-.61 0-.45-.365-.563-.814-.563h-1.898v-1.894c0-.45-.364-1.01-.814-1.01-.448 0-.812.562-.812 1.01v1.894h-1.898c-.45 0-1.396.113-1.396.562 0 .448.947.61 1.396.61zm8.256 0h5.423c.45 0 .813-.063.813-.51 0-.45-.364-.663-.814-.663h-5.424c-.45 0-.813.363-.813.81 0 .45.364.363.813.363zm-3.052 5.29c-.317-.318-.832-.318-1.15 0l-1.343 1.338-1.34-1.34c-.32-.316-.834-.316-1.15 0-.32.317-.32.832 0 1.148l1.34 1.34-1.34 1.34c-.32.316-.32.83 0 1.147.316.317.83.317 1.15 0l1.34-1.34 1.344 1.34c.318.317.833.317 1.15 0 .318-.318.318-.83 0-1.148l-1.342-1.34 1.343-1.34c.317-.316.317-.83 0-1.146zm8.475 1.732h-5.424c-.45 0-.784.275-.784.724 0 .448.335.667.784.667h5.423c.45 0 .842-.247.842-.695 0-.448-.393-.696-.843-.696zm-1.81-1.598c0-.508-.412-.918-.92-.918-.51 0-.92.41-.92.918 0 .506.41.918.92.918.508 0 .92-.412.92-.918zm-.92 3.597c-.51 0-.92.41-.92.917 0 .508.41.918.92.918.508 0 .92-.41.92-.918 0-.507-.412-.918-.92-.918z" fill="#575E75"/><path d="M285.94 136.017h-19.88c-.578 0-1.045.467-1.045 1.043v19.88c0 .575.467 1.043 1.045 1.043h19.88c.577 0 1.045-.468 1.045-1.043v-19.88c0-.576-.468-1.043-1.045-1.043zm-.09 20.818h-19.685V137.12h19.686v19.715zm-16.54-12.918h1.898v2.144c0 .45.364.813.813.813.45 0 .815-.364.815-.812v-2.143h1.898c.45 0 .814-.163.814-.61 0-.45-.365-.563-.814-.563h-1.898v-1.894c0-.45-.364-1.01-.814-1.01-.448 0-.812.562-.812 1.01v1.894h-1.898c-.45 0-1.396.113-1.396.562 0 .448.947.61 1.396.61zm8.256 0h5.423c.45 0 .813-.063.813-.51 0-.45-.364-.663-.814-.663h-5.424c-.45 0-.813.363-.813.81 0 .45.364.363.813.363zm-3.052 5.29c-.317-.318-.832-.318-1.15 0l-1.343 1.338-1.34-1.34c-.32-.316-.834-.316-1.15 0-.32.317-.32.832 0 1.148l1.34 1.34-1.34 1.34c-.32.316-.32.83 0 1.147.316.317.83.317 1.15 0l1.34-1.34 1.344 1.34c.318.317.833.317 1.15 0 .318-.318.318-.83 0-1.148l-1.342-1.34 1.343-1.34c.317-.316.317-.83 0-1.146zm8.475 1.732h-5.424c-.45 0-.784.275-.784.724 0 .448.335.667.784.667h5.423c.45 0 .842-.247.842-.695 0-.448-.393-.696-.843-.696zm-1.81-1.598c0-.508-.412-.918-.92-.918-.51 0-.92.41-.92.918 0 .506.41.918.92.918.508 0 .92-.412.92-.918zm-.92 3.597c-.51 0-.92.41-.92.917 0 .508.41.918.92.918.508 0 .92-.41.92-.918 0-.507-.412-.918-.92-.918z" fill="#FFF"/><g stroke="#979797" stroke-width="2"><path d="M208 284h9M208 288h9M208 292h9"/></g><path fill="#9C8F85" opacity=".6" d="M254.39 288.43l-6.39 5.432V283"/><path fill="#9C8F85" opacity=".6" d="M254.39 288.43l-6.39 5.432V283"/><path fill="#9C8F85" opacity=".4" d="M235 288.43l6.39 5.432V283"/><path d="M243.944 234c-6.596 0-11.944 5.345-11.944 11.943 0 6.597 5.348 11.944 11.944 11.944 6.6 0 11.946-5.347 11.946-11.944 0-6.598-5.347-11.943-11.946-11.943zm6.79 8.242l-8.61 8.813c-.186.2-.444.292-.704.286-.26.007-.516-.084-.704-.285l-3.562-3.764c-.367-.387-.33-1.017.08-1.405.413-.388 1.043-.388 1.41-.002l2.79 2.95 7.813-8c.367-.387.997-.385 1.407.002.412.39.447 1.02.08 1.407z" fill="#81D000"/><path d="M266.437 246.435l-4.04 4.04c-.65.65-.644 1.683-.004 2.324.646.644 1.68.638 2.324-.004l4.04-4.04 4.04 4.04c.65.648 1.684.644 2.324.003.646-.646.64-1.682-.002-2.324l-4.04-4.04 4.04-4.042c.65-.648.644-1.682.003-2.323-.644-.644-1.68-.638-2.322.004l-4.04 4.04-4.04-4.04c-.65-.648-1.684-.644-2.325-.003-.645.646-.64 1.682.004 2.324l4.04 4.04z" fill="#999"/><path d="M200.154 207.438c.19.187.378.187.567.187.38 0 .948-.188 1.137-.563l1.893-3.187c.38-.563.19-1.313-.38-1.688-.756-.187-1.513 0-1.89.563l-1.705 3c-.38.563-.19 1.313.38 1.688zm9.464 7.687l3.028-1.688c.568-.375.758-1.125.38-1.687-.38-.563-1.137-.75-1.705-.375l-3.027 1.688c-.568.187-.757.937-.38 1.687.19.375.57.563 1.137.563 0 0 .38 0 .568-.188zm-38.236 20.063l-3.028 1.687c-.568.375-.758 1.125-.38 1.688.19.375.57.562 1.137.562.19 0 .38 0 .57-.188l3.027-1.687c.568-.375.757-1.125.38-1.688-.19-.562-.948-.75-1.705-.375zm44.293-11.813h-3.596c-.76 0-1.326.563-1.326 1.313S211.32 226 212.08 226h3.595c.757 0 1.325-.563 1.325-1.313s-.568-1.312-1.325-1.312zm-45.43 2.25c0-.75-.566-1.313-1.324-1.313h-3.595c-.757 0-1.325.563-1.325 1.313s.568 1.313 1.325 1.313h3.596c.76 0 1.326-.563 1.326-1.313zm42.97 10.5l-3.03-1.688c-.567-.375-1.324-.187-1.703.375-.378.563-.19 1.313.38 1.688l3.027 1.688c.19.187.378.187.567.187.38 0 .947-.188 1.136-.563.378-.562.19-1.312-.38-1.687zm-45.43-21.938l3.03 1.688c.378.188.567.188.756.188.38 0 .948-.188 1.137-.563.38-.563.19-1.313-.378-1.688l-3.22-1.687c-.567-.375-1.324-.188-1.703.375-.378.563-.19 1.313.38 1.688zm10.41-6.75c.19.375.57.563 1.137.563.19 0 .38 0 .568-.188.568-.375.757-1.125.38-1.687l-1.705-3c-.38-.563-1.136-.75-1.704-.375-.566.375-.756 1.125-.377 1.688l1.703 3zM189.933 205c.757 0 1.325-.563 1.325-1.313v-3.375c0-.75-.568-1.312-1.325-1.312s-1.325.563-1.325 1.313v3.562c.19.563.757 1.125 1.325 1.125zm5.11 50.438h-9.274c-.757 0-1.136.937-.568 1.5 1.514 1.312 3.218 2.062 5.3 2.062s3.786-.75 5.3-2.063c.568-.562.19-1.5-.757-1.5zm.19-8.438h-9.464c-.757 0-1.325.563-1.325 1.313s.568 1.312 1.325 1.312h9.464c.757 0 1.325-.563 1.325-1.313S195.99 247 195.232 247zm0 4.125h-9.464c-.757 0-1.325.563-1.325 1.313s.568 1.312 1.325 1.312h9.464c.757 0 1.325-.563 1.325-1.313s-.568-1.312-1.325-1.312zm-7.76-23.438c-.758 0-1.326.563-1.326 1.313s.568 1.313 1.325 1.313h1.326V229c0-.75-.567-1.313-1.325-1.313zm2.46 3.938h.947v12.188h-.948v-12.188zm2.46-24.188c-10.03-1.125-18.55 6.75-18.55 16.5 0 5.25 2.462 9.75 6.247 12.75 1.892 1.5 3.217 3.563 3.974 5.813.38.75.947 1.313 1.893 1.313h2.84v-12.188h-1.704c-1.325-.188-2.272-1.313-2.272-2.625 0-1.5 1.137-2.625 2.65-2.625 1.516 0 2.65 1.125 2.65 2.625v1.313h.948V229c0-1.5 1.136-2.625 2.65-2.625s2.65 1.125 2.65 2.625-1.136 2.625-2.65 2.625h-1.325v12.188h2.84c.756 0 1.513-.375 1.892-1.125 1.136-2.625 2.84-5.063 5.11-6.938 3.597-3.375 5.68-8.438 4.922-13.875-.946-7.5-7.193-13.5-14.764-14.438zM194.855 229c0-.75-.568-1.313-1.325-1.313-.76 0-1.326.563-1.326 1.313v1.313h1.325c.756 0 1.324-.563 1.324-1.313z" fill="#81D000"/><path d="M271.437 351.435l-4.04 4.04c-.65.65-.644 1.683-.004 2.324.646.644 1.68.638 2.324-.004l4.04-4.04 4.04 4.04c.65.648 1.684.644 2.324.003.646-.646.64-1.682-.002-2.324l-4.04-4.04 4.04-4.042c.65-.648.644-1.682.003-2.323-.644-.644-1.68-.638-2.322.004l-4.04 4.04-4.04-4.04c-.65-.648-1.684-.644-2.325-.003-.645.646-.64 1.682.004 2.324l4.04 4.04z" fill="#BBB"/><g transform="translate(303 31)"><mask id="b" fill="#fff"><use xlink:href="#a"/></mask><path d="M1.275.776C.568.776.01 1.446.01 2.278V5.28c0 .83.56 1.5 1.265 1.5h10.223c2.384.12 4.266 2.084 4.266 4.503 0 2.416-1.882 4.38-4.266 4.5H1.274c-.707 0-1.265.67-1.265 1.5v3c0 .832.558 1.502 1.264 1.502h10.222c.024 0 .045-.02.07-.024.15.008.295.025.446.025 5.798 0 10.503-4.705 10.503-10.502 0-5.8-4.705-10.505-10.503-10.505h-.373c-.048-.005-.093 0-.142 0H1.276V.776z" mask="url(#b)" stroke="#575E75" stroke-width="2"/></g><path fill="#575E75" d="M304.76 33.64h2.64v2.64h-2.64zM304.76 48.6h2.64v2.64h-2.64z"/><g transform="translate(337 31)"><mask id="d" fill="#fff"><use xlink:href="#c"/></mask><path d="M1.275.776C.568.776.01 1.446.01 2.278V5.28c0 .83.56 1.5 1.265 1.5h10.223c2.384.12 4.266 2.084 4.266 4.503 0 2.416-1.882 4.38-4.266 4.5H1.274c-.707 0-1.265.67-1.265 1.5v3c0 .832.558 1.502 1.264 1.502h10.222c.024 0 .045-.02.07-.024.15.008.295.025.446.025 5.798 0 10.503-4.705 10.503-10.502 0-5.8-4.705-10.505-10.503-10.505h-.373c-.048-.005-.093 0-.142 0H1.276V.776z" mask="url(#d)" stroke="#FFF" stroke-width="2"/></g><path fill="#FFF" d="M338.76 33.64h2.64v2.64h-2.64zM338.76 48.6h2.64v2.64h-2.64z"/><path d="M318.593 6h-9.482c-3.92 0-7.11 3.19-7.11 7.11 0 3.922 3.19 7.112 7.11 7.112h9.483c3.92 0 7.11-3.19 7.11-7.11 0-3.922-3.19-7.112-7.11-7.112z" stroke="#575E75"/><path d="M309.11 7.975c-2.83 0-5.135 2.304-5.135 5.136 0 2.833 2.304 5.137 5.136 5.137 2.833 0 5.137-2.304 5.137-5.136 0-2.83-2.304-5.135-5.136-5.135zm0 9.482c-2.395 0-4.345-1.95-4.345-4.346 0-2.395 1.95-4.345 4.346-4.345 2.397 0 4.347 1.95 4.347 4.346 0 2.397-1.95 4.347-4.346 4.347z" fill="#575E75"/><path d="M352.593 6h-9.482c-3.92 0-7.11 3.19-7.11 7.11 0 3.922 3.19 7.112 7.11 7.112h9.483c3.92 0 7.11-3.19 7.11-7.11 0-3.922-3.19-7.112-7.11-7.112z" stroke="#FFF"/><path d="M343.11 7.975c-2.83 0-5.135 2.304-5.135 5.136 0 2.833 2.304 5.137 5.136 5.137 2.833 0 5.137-2.304 5.137-5.136 0-2.83-2.304-5.135-5.136-5.135zm0 9.482c-2.395 0-4.345-1.95-4.345-4.346 0-2.395 1.95-4.345 4.346-4.345 2.397 0 4.347 1.95 4.347 4.346 0 2.397-1.95 4.347-4.346 4.347z" fill="#FFF"/><path d="M108 283c0-1.105.898-2 1.998-2h2.004c1.104 0 1.998.89 1.998 2v13c0 1.105-.898 2-1.998 2h-2.004c-1.104 0-1.998-.89-1.998-2v-13zm10 0c0-1.105.898-2 1.998-2h2.004c1.104 0 1.998.89 1.998 2v13c0 1.105-.898 2-1.998 2h-2.004c-1.104 0-1.998-.89-1.998-2v-13z" fill="#999"/><path d="M108 305c0-1.105.898-2 1.998-2h2.004c1.104 0 1.998.89 1.998 2v13c0 1.105-.898 2-1.998 2h-2.004c-1.104 0-1.998-.89-1.998-2v-13zm10 0c0-1.105.898-2 1.998-2h2.004c1.104 0 1.998.89 1.998 2v13c0 1.105-.898 2-1.998 2h-2.004c-1.104 0-1.998-.89-1.998-2v-13z" fill="#666"/><ellipse fill="#FD293B" cx="12" cy="417" rx="12" ry="12"/><rect fill="#FF223C" x="31" y="404" width="24" height="24" rx="4"/><path d="M107.48 351.92H96.498c-.827 0-1.498-.67-1.498-1.497v-2.247h.998v2.247c0 .275.224.5.5.5h10.982c.276 0 .5-.225.5-.5v-2.247h.997v2.247c0 .827-.67 1.497-1.497 1.497zm-.77-8.736h-1.726v4.243c0 .965-.782 1.748-1.747 1.748h-2.496c-.964 0-1.747-.783-1.747-1.748v-4.243H97.22c-.486 0-.723-.277-.51-.49.293-.29 4.486-4.284 4.748-4.528.234-.22.793-.223 1.028 0 .357.34 4.53 4.32 4.736 4.518.258.25-.07.5-.512.5z" fill="#666"/><path d="M215.75 317.625c-3.938 0-7 .875-8.75 5.25 2.625-2.188 5.25-2.625 8.75-1.75v2.625l5.25-4.375-5.25-4.375v2.625zM212.25 303.625c3.938 0 7 .875 8.75 5.25-2.625-2.188-5.25-2.625-8.75-1.75v2.625l-5.25-4.375 5.25-4.375v2.625z" fill="#979797"/><path d="M2.666 230.8c.48 0 .864-.135 1.152-.405.288-.27.468-.6.54-.99.072-.39.114-1.248.126-2.574.012-1.325.132-2.192.36-2.6.228-.408.513-.702.855-.882.34-.18.86-.27 1.556-.27h.486v1.368h-.27c-.456 0-.792.063-1.008.19-.216.125-.354.323-.414.593-.06.27-.09.746-.09 1.43 0 1.08-.033 1.917-.1 2.51-.065.595-.245 1.075-.54 1.44-.293.367-.692.67-1.196.91.648.264 1.116.675 1.404 1.233.288.558.432 1.437.432 2.637s.024 1.97.072 2.313c.048.342.183.576.405.702.222.126.657.19 1.305.19v1.367h-.486c-.828 0-1.43-.138-1.81-.414-.377-.276-.63-.65-.755-1.125-.125-.474-.19-1.254-.197-2.34-.006-1.086-.045-1.854-.117-2.304-.072-.45-.246-.814-.522-1.09-.276-.276-.672-.426-1.188-.45v-1.44zm11.652-4.96h2.8v.987c.533-.4 1.11-.698 1.727-.894.617-.195 1.246-.293 1.886-.293.64 0 1.212.087 1.715.26.502.173.926.42 1.273.74.347.32.61.71.793 1.167.184.457.275.97.275 1.54V238h-2.76v-8.44c0-.73-.145-1.244-.434-1.547-.288-.302-.685-.453-1.192-.453-.453 0-.88.09-1.28.267-.4.177-.75.413-1.047.706-.296.294-.53.63-.7 1.014-.168.382-.252.777-.252 1.186V238h-2.8v-12.16zm21.38 6.4c-.48.024-.862.16-1.144.405-.282.246-.465.585-.55 1.017-.083.432-.128 1.218-.134 2.358-.006 1.14-.075 1.947-.207 2.42-.132.475-.387.847-.765 1.117s-.975.405-1.79.405h-.487v-1.368c.637 0 1.066-.06 1.288-.18.222-.12.36-.348.414-.684.054-.336.08-1.11.08-2.322s.145-2.097.433-2.655c.288-.558.756-.97 1.404-1.233-.493-.228-.883-.52-1.17-.873-.29-.354-.472-.798-.55-1.332-.078-.534-.117-1.55-.117-3.05 0-.78-.108-1.28-.324-1.495-.217-.216-.613-.324-1.19-.324h-.27v-1.368h.487c.804 0 1.386.126 1.746.378.36.252.618.6.774 1.044.156.444.24 1.284.252 2.52.01 1.236.06 2.046.143 2.43.084.384.27.705.558.963.29.258.66.387 1.117.387v1.44zM53.818 241.182c-.418 0-.757-.34-.757-.758s.34-.757.758-.757h14.727c.42 0 .758.34.758.757 0 .418-.34.758-.758.758H53.818zm0-7.576c-.418 0-.757-.34-.757-.758s.34-.757.758-.757h14.727c.42 0 .758.34.758.758 0 .42-.34.758-.758.758H53.818zm0-7.576c-.418 0-.757-.34-.757-.757 0-.418.34-.758.758-.758h14.727c.42 0 .758.34.758.758s-.34.757-.758.757H53.818zm-4.545 1.515c-1.253 0-2.273-1.02-2.273-2.272 0-1.253 1.02-2.273 2.273-2.273 1.253 0 2.272 1.02 2.272 2.273 0 1.253-1.02 2.272-2.272 2.272zm0-3.03c-.418 0-.758.34-.758.758s.34.757.758.757.757-.34.757-.757c0-.418-.34-.758-.757-.758zm0 10.606c-1.253 0-2.273-1.018-2.273-2.272 0-1.253 1.02-2.272 2.273-2.272 1.253 0 2.272 1.02 2.272 2.272 0 1.254-1.02 2.273-2.272 2.273zm0-3.03c-.418 0-.758.34-.758.758 0 .42.34.758.758.758s.757-.34.757-.758-.34-.757-.757-.757zm0 10.607c-1.253 0-2.273-1.02-2.273-2.273 0-1.253 1.02-2.272 2.273-2.272 1.253 0 2.272 1.02 2.272 2.272 0 1.253-1.02 2.273-2.272 2.273zm0-3.03c-.418 0-.758.34-.758.757 0 .418.34.758.758.758s.757-.34.757-.758-.34-.757-.757-.757z" fill="#575E75"/><g><path d="M40.86 257c.955 0 1.73.775 1.73 1.73 0 .39-.128.75-.346 1.04l-.692.692-2.423-2.424.69-.692c.29-.217.65-.346 1.04-.346zm-8.654 7.962l-.692 3.115 3.115-.692 6.403-6.404-2.423-2.422-6.404 6.404zm7.048-4.03l-4.846 4.847-.597-.598 4.847-4.846.597.597z" fill="#333"/><path d="M42.594 263.127v6.49c0 1.658-1.347 3.003-3.006 3.003h-8.582c-1.66 0-3.006-1.342-3.006-3.002v-8.4c0-1.656 1.338-3 2.997-3h3.033" stroke="#333" stroke-width="2"/></g><path stroke="#999" stroke-width="2" d="M88 230l7 7 7-7"/><g fill="#FFF"><path d="M173.333 7.667v2c0 1.104.74 1.507 1.658.895l4.686-3.124c.915-.61.92-1.597 0-2.21l-4.685-3.123c-.915-.61-1.657-.217-1.657.895v2c-5.333 0-8 3.326-8 6.667 0 0 1.226-4 8-4zm-10.666 6.666v-8h2.622c.21-.248.435-.486.676-.712.916-.857 2.01-1.512 3.252-1.953H162c-1.104 0-2 .895-2 1.996v9.34c0 1.103.895 1.997 2.005 1.997h13.323c1.108 0 2.005-.9 2.005-2.005v-3.59l-2.666 1.777v1.152h-12z"/></g></g><mask id="f" fill="#fff"><use xlink:href="#e"/></mask><path d="M0 0h1v1H0z" mask="url(#f)" stroke="#979797" stroke-width="2" fill="#D8D8D8"/><path d="M322.552 68c-3.556 0-6.45 2.893-6.45 6.448 0 1.212.343 2.343.927 3.312l-7.808 7.807c-.296.296-.296.777 0 1.073.148.148.342.222.537.222.193 0 .387-.074.535-.222l1.36-1.36 2.498 2.498c.15.148.342.222.537.222.194 0 .388-.074.536-.222.296-.297.296-.777 0-1.073l-2.498-2.498.824-.824 1.74 1.74c.147.148.34.222.535.222s.39-.074.537-.222c.296-.297.296-.777 0-1.073l-1.74-1.74 3.34-3.338c1.17 1.186 2.793 1.925 4.588 1.925 3.555 0 6.448-2.893 6.448-6.45 0-3.554-2.893-6.447-6.448-6.447zm0 11.38c-2.72 0-4.93-2.213-4.93-4.932 0-2.72 2.21-4.93 4.93-4.93 2.72 0 4.93 2.21 4.93 4.93 0 2.72-2.21 4.93-4.93 4.93z" fill="#575E75" fill-rule="nonzero"/><path d="M356.552 68c-3.556 0-6.45 2.893-6.45 6.448 0 1.212.343 2.343.927 3.312l-7.808 7.807c-.296.296-.296.777 0 1.073.148.148.342.222.537.222.193 0 .387-.074.535-.222l1.36-1.36 2.498 2.498c.15.148.342.222.537.222.194 0 .388-.074.536-.222.296-.297.296-.777 0-1.073l-2.498-2.498.824-.824 1.74 1.74c.147.148.34.222.535.222s.39-.074.537-.222c.296-.297.296-.777 0-1.073l-1.74-1.74 3.34-3.338c1.17 1.186 2.793 1.925 4.588 1.925 3.555 0 6.448-2.893 6.448-6.45 0-3.554-2.893-6.447-6.448-6.447zm0 11.38c-2.72 0-4.93-2.213-4.93-4.932 0-2.72 2.21-4.93 4.93-4.93 2.72 0 4.93 2.21 4.93 4.93 0 2.72-2.21 4.93-4.93 4.93z" fill="#FFF" fill-rule="nonzero"/></g></svg>