<?xml version="1.0" encoding="utf-8"?>
<!-- Generator: Adobe Illustrator 17.0.0, SVG Export Plug-In . SVG Version: 6.00 Build 0)  -->
<!DOCTYPE svg PUBLIC "-//W3C//DTD SVG 1.1//EN" "http://www.w3.org/Graphics/SVG/1.1/DTD/svg11.dtd">
<svg version="1.1" id="图层_1" xmlns="http://www.w3.org/2000/svg" xmlns:xlink="http://www.w3.org/1999/xlink" x="0px" y="0px"
	 width="595.28px" height="841.89px" viewBox="0 0 595.28 841.89" enable-background="new 0 0 595.28 841.89" xml:space="preserve">
<g>
	<g id="Layer_1_65_">
		<g>
			<path fill="#FFFFFF" d="M22.631,145.638c-0.079-0.181-0.247-0.297-0.432-0.297h-1.412c-0.898-5.271-5.177-9.278-10.305-9.278
				C4.702,136.063,0,141.15,0,147.402c0,6.252,4.702,11.339,10.482,11.339c3.73,0,7.209-2.172,9.078-5.666
				c0.263-0.493,0.108-1.123-0.348-1.408c-0.455-0.286-1.038-0.118-1.301,0.375c-1.53,2.861-4.377,4.638-7.429,4.638
				c-4.729,0-8.577-4.161-8.577-9.277c0-5.115,3.848-9.278,8.577-9.278c4.073,0,7.486,3.09,8.355,7.215h-1.401
				c-0.186,0-0.353,0.116-0.432,0.297c-0.079,0.181-0.053,0.395,0.066,0.548l2.383,3.093c0.091,0.118,0.224,0.185,0.366,0.185
				c0.141,0,0.275-0.068,0.366-0.185l2.383-3.093C22.684,146.033,22.71,145.819,22.631,145.638z"/>
			<path fill="#FFFFFF" d="M10.482,138.641c-0.526,0-0.953,0.462-0.953,1.031v6.255c-0.431,0.327-0.715,0.865-0.715,1.477
				c0,0.995,0.748,1.804,1.668,1.804c0.252,0,0.489-0.065,0.703-0.174l3.315,2.069c0.151,0.094,0.314,0.138,0.476,0.138
				c0.329,0,0.649-0.185,0.826-0.516c0.263-0.492,0.107-1.123-0.349-1.407l-3.318-2.073c-0.044-0.545-0.306-1.021-0.699-1.319
				v-6.256C11.434,139.103,11.007,138.641,10.482,138.641z M10.482,148.176c-0.394,0-0.715-0.347-0.715-0.772
				c0-0.426,0.321-0.773,0.715-0.773s0.715,0.347,0.715,0.773C11.196,147.829,10.875,148.176,10.482,148.176z"/>
		</g>
	</g>
</g>
<g>
	<path fill="#FFFFFF" d="M8.211,237.914H6.256v-1.955c0-0.216-0.176-0.391-0.391-0.391c-0.216,0-0.392,0.176-0.392,0.391v1.955
		H3.518c-0.216,0-0.391,0.176-0.391,0.391c0,0.216,0.176,0.391,0.391,0.391h1.955v1.955c0,0.216,0.176,0.391,0.392,0.391
		s0.391-0.176,0.391-0.391v-1.955h1.955c0.216,0,0.391-0.176,0.391-0.391C8.603,238.09,8.427,237.914,8.211,237.914L8.211,237.914z"
		/>
	<path fill="#FFFFFF" d="M19.158,237.914h-4.691c-0.216,0-0.391,0.176-0.391,0.391c0,0.216,0.175,0.391,0.391,0.391h4.691
		c0.216,0,0.391-0.176,0.391-0.391C19.55,238.09,19.374,237.914,19.158,237.914L19.158,237.914z"/>
	<path fill="#FFFFFF" d="M11.73,232.441H0v22.677h22.677v-22.677H11.73z M0.783,233.224h10.164v10.164H0.783V233.224z
		 M0.783,254.337V244.17h10.164v10.167L0.783,254.337L0.783,254.337z M21.896,254.337H11.729V244.17h10.167L21.896,254.337
		L21.896,254.337z M11.73,243.388v-10.164h10.167v10.164H11.73z"/>
	<path fill="#FFFFFF" d="M14.468,250.819h4.691c0.216,0,0.391-0.176,0.391-0.391c0-0.216-0.175-0.391-0.391-0.391h-4.691
		c-0.216,0-0.391,0.175-0.391,0.391C14.076,250.643,14.252,250.819,14.468,250.819L14.468,250.819z"/>
	<path fill="#FFFFFF" d="M14.468,248.472h4.691c0.216,0,0.391-0.176,0.391-0.392s-0.175-0.391-0.391-0.391h-4.691
		c-0.216,0-0.391,0.176-0.391,0.391C14.076,248.296,14.252,248.472,14.468,248.472L14.468,248.472z"/>
	<path fill="#FFFFFF" d="M8.096,247.023c-0.152-0.153-0.401-0.153-0.553,0l-1.678,1.678l-1.678-1.678
		c-0.152-0.153-0.401-0.153-0.553,0c-0.153,0.152-0.153,0.399,0,0.552l1.678,1.678l-1.678,1.68c-0.153,0.152-0.153,0.399,0,0.552
		c0.076,0.076,0.177,0.114,0.277,0.114c0.1,0,0.2-0.038,0.277-0.114l1.678-1.678l1.678,1.678c0.076,0.076,0.177,0.114,0.277,0.114
		c0.099,0,0.2-0.038,0.277-0.114c0.153-0.153,0.153-0.399,0-0.552l-1.678-1.68l1.678-1.678
		C8.249,247.422,8.249,247.176,8.096,247.023L8.096,247.023z"/>
</g>
<g>
	<g id="_x33_6_24_">
		<g>
			<path fill="#FFFFFF" d="M15.71,95.997c1.474,0,2.669-1.184,2.669-2.644c0-1.46-1.195-2.644-2.669-2.644s-2.67,1.184-2.67,2.644
				C13.04,94.813,14.235,95.997,15.71,95.997z"/>
			<path fill="#FFFFFF" d="M20.1,95.235c-1.533,2.127-3.585,2.373-5.793,1.074c-0.15-0.088-0.817-0.453-0.965-0.539
				c-3.553-2.089-7.101-1.27-9.481,2.032c-1.011,1.404,1.328,2.735,2.328,1.347c1.23-1.706,2.793-2.199,4.503-1.66
				c-0.876,1.506-1.641,3.002-2.721,5.128c-1.08,2.126-3.466,3.824-5.758,2.497c-1.654-0.958-3.145,1.396-1.496,2.351
				c3.129,1.812,6.798,0.699,8.671-1.656c0.065,0.035,0.134,0.065,0.209,0.091c1.53,0.528,3.536,1.934,4.147,2.432
				c0.611,0.498,1.661,3.038,2.284,4.313c0.756,1.548,3.199,0.42,2.44-1.134c-0.707-1.447-1.893-4.335-2.818-5.067
				c-0.742-0.587-2.183-1.677-3.405-2.296c0.827-1.586,1.688-3.156,2.594-4.698c2.889,0.877,5.634-0.157,7.59-2.87
				C23.44,95.179,21.101,93.847,20.1,95.235z"/>
		</g>
	</g>
</g>
<g>
	<path fill="#FFFFFF" d="M1.928,195.439c0,0.359,0.341,0.651,0.761,0.651s0.761-0.292,0.761-0.651v-5.084
		c0-0.263-0.185-0.5-0.47-0.601c-0.284-0.101-0.612-0.045-0.829,0.141l-1.928,1.648c-0.297,0.254-0.297,0.666,0,0.92
		c0.297,0.254,0.779,0.254,1.076,0l0.629-0.538L1.928,195.439L1.928,195.439z"/>
	<path fill="#FFFFFF" d="M6.421,184.175l0.629-0.538v3.514c0,0.359,0.341,0.651,0.761,0.651c0.42,0,0.761-0.291,0.761-0.651v-5.084
		c0-0.263-0.185-0.5-0.47-0.601c-0.284-0.101-0.612-0.045-0.829,0.141l-1.928,1.648c-0.297,0.254-0.297,0.666,0,0.92
		C5.643,184.43,6.124,184.43,6.421,184.175z"/>
	<path fill="#FFFFFF" d="M15.099,189.755c-0.284-0.101-0.612-0.045-0.829,0.141l-1.928,1.648c-0.297,0.254-0.297,0.666,0,0.92
		c0.297,0.254,0.779,0.254,1.076,0l0.629-0.538v3.514c0,0.359,0.341,0.651,0.761,0.651s0.761-0.291,0.761-0.651v-5.084
		C15.568,190.092,15.383,189.855,15.099,189.755z"/>
	<path fill="#FFFFFF" d="M11.792,197.759c-0.284-0.101-0.612-0.045-0.829,0.141l-1.928,1.648c-0.297,0.254-0.297,0.666,0,0.92
		c0.297,0.254,0.779,0.254,1.076,0l0.629-0.538v1.925c0,0.359,0.341,0.651,0.761,0.651s0.761-0.292,0.761-0.651v-3.495
		C12.261,198.097,12.076,197.859,11.792,197.759z"/>
	<path fill="#FFFFFF" d="M10.502,193.854v-1.914c0-1.233-1.173-2.235-2.615-2.235H7.85c-1.442,0-2.615,1.003-2.615,2.235v1.914
		c0,1.233,1.173,2.235,2.615,2.235h0.037C9.329,196.09,10.502,195.087,10.502,193.854z M8.98,193.854
		c0,0.515-0.49,0.934-1.093,0.934H7.85c-0.603,0-1.093-0.419-1.093-0.934v-1.914c0-0.515,0.49-0.934,1.093-0.934h0.037
		c0.603,0,1.093,0.419,1.093,0.934V193.854z"/>
	<path fill="#FFFFFF" d="M20.062,189.705h-0.037c-1.442,0-2.615,1.003-2.615,2.235v1.914c0,1.233,1.173,2.235,2.615,2.235h0.037
		c1.442,0,2.615-1.003,2.615-2.235v-1.914C22.677,190.708,21.504,189.705,20.062,189.705z M21.156,193.854
		c0,0.515-0.49,0.934-1.093,0.934h-0.037c-0.603,0-1.093-0.419-1.093-0.934v-1.914c0-0.515,0.49-0.934,1.093-0.934h0.037
		c0.603,0,1.093,0.419,1.093,0.934V193.854z"/>
	<path fill="#FFFFFF" d="M13.01,181.417h-0.037c-1.442,0-2.615,1.003-2.615,2.235v1.914c0,1.233,1.173,2.235,2.615,2.235h0.037
		c0.42,0,0.761-0.291,0.761-0.651c0-0.359-0.341-0.651-0.761-0.651h-0.037c-0.603,0-1.093-0.419-1.093-0.934v-1.914
		c0-0.515,0.49-0.934,1.093-0.934h0.037c0.603,0,1.093,0.419,1.093,0.934c0,0.359,0.341,0.651,0.761,0.651s0.761-0.292,0.761-0.651
		C15.625,182.42,14.452,181.417,13.01,181.417z"/>
	<path fill="#FFFFFF" d="M20.062,181.417h-0.037c-1.442,0-2.615,1.003-2.615,2.235v1.914c0,1.233,1.173,2.235,2.615,2.235h0.037
		c1.442,0,2.615-1.003,2.615-2.235v-1.914C22.677,182.42,21.504,181.417,20.062,181.417z M21.156,185.567
		c0,0.515-0.49,0.934-1.093,0.934h-0.037c-0.603,0-1.093-0.419-1.093-0.934v-1.914c0-0.515,0.49-0.934,1.093-0.934h0.037
		c0.603,0,1.093,0.419,1.093,0.934V185.567z"/>
	<path fill="#FFFFFF" d="M4.332,197.71H4.295c-1.442,0-2.615,1.003-2.615,2.235v1.914c0,1.233,1.173,2.235,2.615,2.235h0.037
		c1.442,0,2.615-1.003,2.615-2.235v-1.914C6.947,198.712,5.774,197.71,4.332,197.71z M5.425,201.859c0,0.515-0.49,0.934-1.093,0.934
		H4.295c-0.603,0-1.093-0.419-1.093-0.934v-1.914c0-0.515,0.49-0.934,1.093-0.934h0.037c0.603,0,1.093,0.419,1.093,0.934V201.859z"
		/>
</g>
<g>
	<path fill="#FFFFFF" d="M21.896,47.883h-6.979v-2.072c0-0.252-0.212-0.457-0.473-0.457H8.602c-0.261,0-0.473,0.205-0.473,0.457
		v5.652c0,0.252,0.212,0.457,0.473,0.457h5.842c0.261,0,0.473-0.205,0.473-0.457v-2.072h6.2v6.579h-0.952l0.406-0.956
		c0.015-0.036,0.006-0.076-0.023-0.103c-0.029-0.026-0.071-0.033-0.107-0.015l-3.629,1.734c-0.037,0.017-0.06,0.053-0.06,0.093
		s0.023,0.075,0.06,0.093l3.629,1.734c0.036,0.017,0.078,0.011,0.107-0.015c0.029-0.026,0.038-0.067,0.023-0.103l-0.406-0.956h1.732
		c0.431,0,0.78-0.338,0.78-0.754v-8.087C22.676,48.221,22.327,47.883,21.896,47.883z M13.358,50.412h-3.67v-3.55h3.67V50.412z"/>
	<path fill="#FFFFFF" d="M14.445,53.41H8.603c-0.261,0-0.473,0.205-0.473,0.457v2.103H0.779C0.348,55.97,0,56.307,0,56.724v8.087
		c0,0.416,0.349,0.755,0.779,0.755h1.732l-0.406,0.956c-0.015,0.036-0.006,0.076,0.023,0.103C2.157,66.65,2.2,66.657,2.236,66.64
		l3.629-1.734c0.036-0.017,0.059-0.053,0.059-0.093c0-0.04-0.023-0.075-0.059-0.093l-3.629-1.734C2.2,62.968,2.158,62.974,2.128,63
		c-0.029,0.026-0.038,0.067-0.023,0.103l0.406,0.956H1.559V57.48H8.13v2.041c0,0.252,0.212,0.457,0.473,0.457h5.842
		c0.261,0,0.473-0.205,0.473-0.457v-5.652C14.917,53.615,14.705,53.41,14.445,53.41z M13.358,58.468h-3.67v-3.55h3.67V58.468z"/>
	<path fill="#FFFFFF" d="M14.445,61.466H8.603c-0.261,0-0.473,0.205-0.473,0.457v5.652c0,0.252,0.212,0.457,0.473,0.457h5.842
		c0.261,0,0.473-0.205,0.473-0.457v-5.652C14.917,61.671,14.705,61.466,14.445,61.466z M13.358,66.524h-3.67v-3.55h3.67V66.524z"/>
</g>
<g>
	<path fill="#FFFFFF" d="M12.381,504.765c-0.425-0.273-0.929-0.263-1.347,0.022c-0.02,0.014-0.039,0.029-0.057,0.046l-5.906,5.651
		H0.436c-0.241,0-0.436,0.221-0.436,0.493v9.366c0,0.131,0.046,0.257,0.128,0.348c0.082,0.093,0.192,0.145,0.308,0.145l4.625-0.002
		l5.903,6.132c0.022,0.023,0.045,0.043,0.07,0.059c0.214,0.146,0.452,0.219,0.69,0.219c0.225,0,0.45-0.066,0.657-0.198
		c0.435-0.278,0.696-0.786,0.696-1.358v-19.564C13.077,505.551,12.816,505.044,12.381,504.765z M12.205,525.688
		c0,0.213-0.095,0.399-0.252,0.5c-0.068,0.043-0.239,0.126-0.436,0.012l-5.85-6.077v-2.246c0-0.273-0.195-0.493-0.436-0.493
		s-0.436,0.221-0.436,0.493v1.97l-3.923,0.002v-8.38h3.923v1.972c0,0.273,0.195,0.493,0.436,0.493s0.436-0.221,0.436-0.493v-2.236
		l5.843-5.59c0.201-0.119,0.375-0.035,0.443,0.009c0.158,0.101,0.252,0.288,0.252,0.5L12.205,525.688L12.205,525.688z"/>
	<path fill="#FFFFFF" d="M16.911,506.567c-0.228-0.087-0.476,0.051-0.553,0.309s0.045,0.538,0.273,0.625
		c3.095,1.189,5.175,4.467,5.175,8.159c0,3.689-2.076,6.969-5.165,8.16c-0.228,0.088-0.35,0.368-0.272,0.627
		c0.062,0.205,0.231,0.334,0.412,0.334c0.047,0,0.094-0.008,0.141-0.027c3.442-1.328,5.755-4.982,5.755-9.092
		C22.677,511.545,20.36,507.891,16.911,506.567z"/>
	<path fill="#FFFFFF" d="M18.754,515.659c0-2.944-1.747-5.571-4.249-6.389c-0.232-0.075-0.473,0.075-0.54,0.337
		c-0.067,0.261,0.066,0.535,0.298,0.611c2.131,0.697,3.62,2.935,3.62,5.442s-1.489,4.745-3.62,5.442
		c-0.231,0.076-0.365,0.349-0.298,0.611c0.055,0.216,0.229,0.356,0.419,0.356c0.04,0,0.081-0.007,0.121-0.019
		C17.007,521.231,18.754,518.604,18.754,515.659z"/>
</g>
<g>
	<g>
		<path fill="#FFFFFF" d="M4.371,345.827c2.199,0,3.367-1.655,3.71-2.633c0.005-0.015,0.011-0.031,0.015-0.047
			c0.8-2.792,2.075-7.217,3.019-10.435h3.378c0.635,0,1.15-0.434,1.15-0.969c0-0.535-0.515-0.969-1.15-0.969h-2.806
			c0.302-1.014,0.523-1.736,0.61-1.983l0.097-0.276c0.357-1.025,1.192-3.427,2.483-3.427c1.197,0,1.376,1.554,1.384,1.629
			c0.051,0.532,0.602,0.934,1.235,0.888c0.633-0.04,1.108-0.507,1.059-1.04c-0.107-1.181-1.015-3.415-3.678-3.415
			c-3.015,0-4.146,3.256-4.69,4.82l-0.093,0.264c-0.11,0.31-0.4,1.264-0.779,2.54H5.291c-0.635,0-1.15,0.434-1.15,0.969
			c0,0.535,0.515,0.969,1.15,0.969h3.455c-1.181,4.036-2.707,9.36-2.875,9.945c-0.063,0.153-0.534,1.232-1.499,1.232
			c-1.473,0-2.111-1.742-2.116-1.755c-0.177-0.514-0.813-0.811-1.425-0.661c-0.61,0.149-0.962,0.687-0.785,1.201
			C0.448,343.843,1.812,345.827,4.371,345.827z"/>
		<path fill="#FFFFFF" d="M21.43,343.328c0.678,0,1.247-0.405,1.247-1.051c0-0.3-0.142-0.57-0.446-0.871l-2.388-2.313l2.318-2.283
			c0.214-0.225,0.374-0.466,0.374-0.781c0-0.571-0.553-0.992-1.266-0.992c-0.481,0-0.855,0.255-1.176,0.586l-1.8,1.982l-1.765-1.982
			c-0.357-0.375-0.731-0.586-1.265-0.586c-0.678,0-1.248,0.406-1.248,1.051c0,0.3,0.143,0.57,0.445,0.87l2.229,2.163l-2.442,2.433
			c-0.232,0.225-0.374,0.466-0.374,0.781c0,0.571,0.553,0.991,1.265,0.991c0.481,0,0.856-0.255,1.176-0.586l1.925-2.132l1.925,2.132
			C20.521,343.117,20.895,343.328,21.43,343.328z"/>
	</g>
</g>
<g>
	<g>
		<path fill="#FFFFFF" d="M6.815,463.711c-2.044-0.337-3.984,0.99-4.333,2.967s1.024,3.852,3.068,4.19
			c2.044,0.337,3.984-0.99,4.333-2.967C10.233,465.925,8.859,464.049,6.815,463.711z M7.772,467.553
			c-0.15,0.849-0.983,1.419-1.861,1.274c-0.878-0.145-1.468-0.951-1.318-1.799c0.15-0.849,0.983-1.419,1.861-1.274
			C7.332,465.897,7.923,466.704,7.772,467.553z"/>
		<path fill="#FFFFFF" d="M15.11,472.283c-2.073,0-3.754,1.625-3.754,3.63c0,2.005,1.681,3.63,3.754,3.63s3.754-1.625,3.754-3.63
			C18.864,473.908,17.183,472.283,15.11,472.283z M15.11,477.473c-0.891,0-1.613-0.698-1.613-1.56c0-0.862,0.722-1.56,1.613-1.56
			s1.613,0.698,1.613,1.56S16.001,477.473,15.11,477.473z"/>
		<path fill="#FFFFFF" d="M20.591,475.913c0-0.437-0.061-0.861-0.164-1.267l0.688-0.163c-0.161-0.634-0.428-1.236-0.793-1.788
			l-0.595,0.368c-0.376-0.569-0.861-1.062-1.428-1.455l0.412-0.556c-0.551-0.382-1.158-0.672-1.804-0.862l-0.204,0.652
			c-0.504-0.148-1.038-0.229-1.592-0.229v-0.679c-0.679,0-1.346,0.106-1.984,0.314l0.227,0.647
			c-0.668,0.219-1.279,0.558-1.803,0.992l-0.459-0.518c-0.514,0.425-0.949,0.925-1.295,1.486l0.608,0.351
			c-0.351,0.569-0.593,1.206-0.702,1.887l-0.7-0.105c-0.049,0.304-0.074,0.615-0.074,0.924c0,0.341,0.03,0.685,0.089,1.018
			l0.698-0.116c0.121,0.679,0.374,1.311,0.735,1.876l-0.603,0.36c0.355,0.556,0.799,1.049,1.319,1.466l0.449-0.523
			c0.531,0.426,1.148,0.756,1.82,0.964l-0.215,0.648c0.609,0.19,1.245,0.285,1.89,0.285c0.033,0,0.066,0,0.098-0.001l-0.011-0.683
			c0.719-0.011,1.406-0.153,2.032-0.407l0.272,0.627c0.622-0.252,1.195-0.6,1.703-1.035l-0.469-0.512
			c0.52-0.445,0.951-0.982,1.267-1.588l0.632,0.307c0.305-0.584,0.506-1.21,0.599-1.858l-0.702-0.095
			C20.567,476.408,20.591,476.163,20.591,475.913z M15.11,480.037c-2.356,0-4.265-1.847-4.265-4.124c0-2.278,1.91-4.124,4.265-4.124
			c2.356,0,4.265,1.847,4.265,4.124S17.466,480.037,15.11,480.037z"/>
		<path fill="#FFFFFF" d="M9.065,471.791c0.59-0.354,1.109-0.813,1.526-1.359l0.569,0.406c0.402-0.526,0.71-1.109,0.914-1.734
			l-0.675-0.208c0.076-0.232,0.143-0.469,0.186-0.716c0.076-0.431,0.09-0.858,0.059-1.275l0.707-0.049
			c-0.049-0.652-0.207-1.288-0.471-1.892l-0.651,0.266c-0.272-0.622-0.664-1.187-1.154-1.667l0.503-0.481
			c-0.476-0.466-1.024-0.851-1.628-1.143l-0.315,0.608c-0.471-0.228-0.983-0.395-1.529-0.484l0.118-0.669
			c-0.669-0.11-1.346-0.115-2.011-0.014l0.111,0.675c-0.697,0.107-1.357,0.341-1.95,0.685l-0.362-0.586
			c-0.581,0.336-1.097,0.757-1.535,1.254l0.539,0.445c-0.445,0.504-0.794,1.093-1.021,1.745l-0.672-0.218
			c-0.101,0.291-0.18,0.594-0.233,0.899c-0.06,0.336-0.089,0.68-0.089,1.018l0.708-0.001c0.001,0.688,0.14,1.354,0.397,1.969
			l-0.656,0.256c0.253,0.605,0.604,1.164,1.045,1.66l0.533-0.442c0.45,0.507,1,0.932,1.626,1.247l-0.326,0.604
			c0.568,0.286,1.178,0.483,1.814,0.589c0.032,0.006,0.065,0.011,0.097,0.015l0.108-0.674c0.711,0.106,1.412,0.078,2.074-0.071
			l0.159,0.662c0.657-0.147,1.283-0.397,1.858-0.743L9.065,471.791z M5.46,471.382c-2.337-0.386-3.909-2.532-3.509-4.792
			c0.399-2.26,2.618-3.779,4.956-3.393c2.337,0.386,3.909,2.531,3.509,4.792C10.016,470.249,7.797,471.769,5.46,471.382z"/>
		<path fill="#FFFFFF" d="M22.11,464.606c0.026-0.195,0.044-0.393,0.043-0.595c-0.003-0.353-0.055-0.694-0.141-1.022l0.555-0.136
			c-0.134-0.512-0.353-0.996-0.652-1.44l-0.478,0.301c-0.307-0.457-0.702-0.853-1.162-1.167l0.33-0.452
			c-0.447-0.306-0.939-0.536-1.462-0.686l-0.161,0.527c-0.102-0.029-0.205-0.055-0.31-0.077c-0.315-0.067-0.641-0.102-0.977-0.099
			l-0.004-0.548c-0.548,0.004-1.087,0.093-1.601,0.266l0.187,0.522c-0.539,0.181-1.029,0.457-1.45,0.812l-0.375-0.416
			c-0.412,0.347-0.761,0.753-1.037,1.208l0.494,0.279c-0.28,0.462-0.472,0.978-0.556,1.528l-0.566-0.081
			c-0.037,0.246-0.056,0.497-0.054,0.746c0.002,0.276,0.029,0.552,0.078,0.822l0.563-0.098c0.102,0.547,0.31,1.057,0.605,1.51
			l-0.485,0.294c0.29,0.447,0.651,0.842,1.074,1.177l0.359-0.424c0.432,0.341,0.932,0.603,1.476,0.769l-0.17,0.525
			c0.493,0.149,1.008,0.223,1.529,0.219c0.026,0,0.053-0.001,0.079-0.001l-0.013-0.551c0.581-0.014,1.135-0.132,1.639-0.34
			l0.224,0.505c0.501-0.208,0.962-0.492,1.369-0.845l-0.382-0.412c0.417-0.363,0.762-0.799,1.014-1.29l0.512,0.246
			c0.242-0.474,0.401-0.98,0.473-1.504L22.11,464.606z M18.93,464.525c-0.065,0.151-0.159,0.287-0.276,0.402
			c-0.234,0.229-0.559,0.373-0.918,0.375c-0.719,0.005-1.307-0.555-1.312-1.25c-0.005-0.695,0.574-1.264,1.293-1.269
			s1.307,0.555,1.312,1.25C19.03,464.208,18.995,464.374,18.93,464.525z"/>
	</g>
</g>
<g>
	<g>
		<path fill="#FFFFFF" d="M17.596,279.081c-0.267,0-0.484,0.086-0.683,0.27c-0.008,0.007-0.016,0.015-0.024,0.021l-0.47,0.465
			l4.193,4.144l0.459-0.454c0.002-0.002,0.005-0.004,0.007-0.007l0.005-0.005c0.007-0.008,0.014-0.016,0.021-0.023
			c0.877-0.928-0.633-2.56-1.117-3.038C19.103,279.583,18.232,279.081,17.596,279.081z"/>
		<path fill="#FFFFFF" d="M8.846,291.469c0.127,0.126,0.293,0.188,0.46,0.188c0.166,0,0.333-0.063,0.46-0.188l6.87-6.792
			c0.254-0.251,0.254-0.658,0-0.91s-0.666-0.251-0.92,0l-6.87,6.792C8.592,290.811,8.592,291.218,8.846,291.469z"/>
		<path fill="#FFFFFF" d="M22.514,281.893c-0.251-0.743-0.807-1.555-1.609-2.347c-0.808-0.799-2.037-1.751-3.31-1.751
			c-0.571,0-1.097,0.199-1.525,0.574c-0.022,0.017-0.044,0.036-0.064,0.055l-2.467,2.439H0.65c-0.359,0-0.65,0.288-0.65,0.643
			v18.323c0,0.355,0.291,0.643,0.65,0.643h18.534c0.359,0,0.65-0.288,0.65-0.643v-13.135c0-0.04-0.004-0.079-0.011-0.117l2.16-2.135
			c0.004-0.004,0.009-0.009,0.013-0.013l0,0l0.042-0.042c0.02-0.02,0.038-0.041,0.055-0.062
			C22.686,283.672,22.831,282.831,22.514,281.893z M8.721,295.204l-4.588,1.309l1.042-4.816L8.721,295.204z M9.91,294.561
			l-4.192-4.144l9.782-9.671l4.193,4.145L9.91,294.561z M18.535,299.188H1.302v-17.037H12.24l-7.916,7.826
			c-0.089,0.088-0.15,0.199-0.176,0.32l-1.514,6.997c-0.048,0.221,0.025,0.451,0.193,0.605c0.122,0.113,0.281,0.173,0.444,0.173
			c0.035,0,12.547,0,12.547,0c0.359,0,0.65-0.288,0.65-0.643s-0.291-0.643-0.65-0.643H7.87l2.133-0.609
			c0.106-0.031,0.202-0.086,0.28-0.163l8.254-8.16v11.334H18.535z M21.103,283.494c-0.007,0.008-0.014,0.015-0.021,0.023
			l-0.005,0.005c-0.002,0.002-0.005,0.004-0.007,0.007l-0.459,0.454l-4.193-4.144l0.47-0.465c0.008-0.007,0.016-0.014,0.024-0.021
			c0.199-0.184,0.416-0.27,0.683-0.27c0.636,0,1.507,0.501,2.39,1.374C20.47,280.934,21.98,282.566,21.103,283.494z"/>
	</g>
</g>
<g transform="translate(1 1)">
	<g>
		<g>
			<path fill="#FFFFFF" d="M20.543,433.267h-4.157v-2.357c0.688-0.475,1.134-1.269,1.134-2.178c0-0.621-0.208-1.187-0.559-1.636
				c1.738-3.506,1.063-7.687-1.709-10.459c-0.151-0.151-0.378-0.151-0.529,0l-3.768,3.78H7.267c0.031-0.121,0.048-0.248,0.048-0.378
				c0-0.831-0.68-1.512-1.512-1.512s-1.512,0.68-1.512,1.512s0.68,1.512,1.512,1.512c0.13,0,0.257-0.017,0.378-0.048v3.703
				l-3.742,3.753c-0.151,0.151-0.151,0.378,0,0.529c1.739,1.739,4.044,2.646,6.387,2.646c1.548,0,3.131-0.412,4.519-1.235
				c0.006,0.004,0.011,0.008,0.017,0.012v2.357H5.425c-0.643,0-1.134,0.491-1.134,1.134v0.756c0,0.227,0.151,0.378,0.378,0.378
				h16.63c0.227,0,0.378-0.151,0.378-0.378v-0.756C21.677,433.759,21.185,433.267,20.543,433.267z M15.922,430.312
				c-0.037,0.009-0.072,0.024-0.104,0.045c-0.567,0.34-1.323,0.34-1.89,0c-0.032-0.021-0.068-0.036-0.104-0.045
				c-0.484-0.318-0.807-0.855-0.838-1.48c-0.002-0.033-0.003-0.066-0.003-0.1c0-1.058,0.831-1.89,1.89-1.89
				c0.397,0,0.762,0.117,1.063,0.319c0.1,0.068,0.196,0.148,0.287,0.238c0.335,0.339,0.539,0.808,0.539,1.332
				C16.763,429.399,16.432,429.976,15.922,430.312z M8.835,422.543l-1.37-1.37H10.2L8.835,422.543z M5.047,420.039
				c0-0.416,0.34-0.756,0.756-0.756s0.756,0.34,0.756,0.756c0,0.162-0.052,0.312-0.14,0.436c-0.037,0.023-0.068,0.053-0.093,0.088
				c-0.035,0.025-0.065,0.056-0.088,0.093c-0.123,0.088-0.274,0.14-0.436,0.14C5.387,420.795,5.047,420.455,5.047,420.039z
				 M6.936,421.702l1.371,1.371l-1.371,1.375V421.702z M3.232,429.185l8.061-8.061c0.055-0.031,0.099-0.074,0.129-0.129l3.564-3.564
				c2.268,2.495,2.835,6.047,1.398,9.109c-0.374-0.249-0.799-0.395-1.233-0.439c-0.007-0.001-0.015-0.001-0.022-0.002
				c-0.034-0.003-0.067-0.006-0.101-0.008c-0.011-0.001-0.022-0.001-0.033-0.002c-0.041-0.002-0.082-0.003-0.123-0.003
				c-1.474,0-2.646,1.172-2.646,2.646c0,0.044,0.001,0.087,0.003,0.13c0,0.008,0.001,0.016,0.001,0.024
				c0.002,0.038,0.005,0.076,0.009,0.114c0,0.003,0.001,0.006,0.001,0.009c0.026,0.262,0.089,0.514,0.189,0.75
				c0.002,0.006,0.005,0.012,0.007,0.018c0.008,0.018,0.016,0.036,0.024,0.054c0.086,0.191,0.194,0.37,0.321,0.533
				C9.686,432.057,5.837,431.601,3.232,429.185z M14.117,431.27c0.175,0.051,0.357,0.085,0.546,0.099
				c0.012,0.001,0.025,0.002,0.037,0.003c0.019,0.001,0.038,0.002,0.058,0.003c0.077,0.003,0.154,0.003,0.23,0
				c0.019-0.001,0.038-0.002,0.058-0.003c0.012-0.001,0.025-0.002,0.037-0.003c0.188-0.014,0.371-0.048,0.546-0.099v1.998h-1.512
				L14.117,431.27L14.117,431.27z M20.921,434.779H5.047v-0.378c0-0.227,0.151-0.378,0.378-0.378h8.315h2.268h4.535
				c0.227,0,0.378,0.151,0.378,0.378L20.921,434.779L20.921,434.779z"/>
			<path fill="#FFFFFF" d="M2.779,418.905c0,0.227,0.151,0.378,0.378,0.378s0.378-0.151,0.378-0.378c0-0.831,0.68-1.512,1.512-1.512
				c0.227,0,0.378-0.151,0.378-0.378s-0.151-0.378-0.378-0.378C3.799,416.637,2.779,417.658,2.779,418.905z"/>
			<path fill="#FFFFFF" d="M4.669,415.504c0.227,0,0.378-0.151,0.378-0.378s-0.151-0.378-0.378-0.378c-2.079,0-3.78,1.701-3.78,3.78
				c0,0.227,0.151,0.378,0.378,0.378s0.378-0.151,0.378-0.378C1.645,416.864,3.006,415.504,4.669,415.504z"/>
			<path fill="#FFFFFF" d="M4.669,413.614c0.227,0,0.378-0.151,0.378-0.378s-0.151-0.378-0.378-0.378
				c-3.137,0-5.669,2.532-5.669,5.669c0,0.227,0.151,0.378,0.378,0.378s0.378-0.151,0.378-0.378
				C-0.245,415.806,1.947,413.614,4.669,413.614z"/>
			<path fill="#FFFFFF" d="M14.873,428.354c-0.227,0-0.378,0.151-0.378,0.378s0.151,0.378,0.378,0.378s0.378-0.151,0.378-0.378
				S15.1,428.354,14.873,428.354z"/>
		</g>
	</g>
</g>
<g>
	<g>
		<path fill="#FFFFFF" d="M6.274,374.306c1.639,0,2.939-1.305,2.893-2.902c0-1.597-1.301-2.902-2.893-2.902
			c-1.592,0-2.893,1.305-2.893,2.902C3.381,373.001,4.682,374.306,6.274,374.306z M6.274,369.423c1.106,0,1.976,0.87,1.976,1.981
			s-0.866,1.981-1.976,1.981c-1.106,0-1.976-0.87-1.976-1.981C4.297,370.293,5.163,369.423,6.274,369.423z"/>
		<path fill="#FFFFFF" d="M10.685,376.31c-0.435-0.94-1.444-1.555-2.504-1.555H6.242H4.303c-1.06,0-2.074,0.611-2.504,1.555
			l-1.639,3.342c-0.384,0.708-0.046,1.601,0.722,1.976c0.481,0.236,1.106,0.143,1.541-0.143v7.998c0,0.94,0.773,1.694,1.736,1.694
			s1.736-0.754,1.736-1.694v-5.739c0-0.222,0.13-0.361,0.352-0.375c0.222,0.014,0.352,0.153,0.352,0.375v5.739
			c0,0.94,0.773,1.694,1.736,1.694s1.736-0.754,1.736-1.694v-7.993c0.435,0.282,1.06,0.375,1.541,0.143
			c0.773-0.375,1.106-1.273,0.722-1.976L10.685,376.31L10.685,376.31z M11.217,380.781c-0.287,0.143-0.676,0-0.773-0.282
			l-1.301-2.634v11.622c0,0.426-0.338,0.754-0.773,0.754s-0.773-0.329-0.773-0.754v-5.739c-0.093-0.694-0.657-1.254-1.361-1.268
			c-0.708,0.019-1.268,0.574-1.361,1.268v5.739c0,0.426-0.338,0.754-0.773,0.754s-0.768-0.333-0.768-0.754v-11.622l-1.301,2.634
			c-0.097,0.282-0.481,0.426-0.773,0.282c-0.287-0.093-0.435-0.472-0.287-0.754l1.639-3.342c0.287-0.611,0.916-1.037,1.639-1.037
			h1.99h1.99c0.722,0,1.347,0.426,1.639,1.037l1.639,3.342C11.648,380.309,11.504,380.689,11.217,380.781z"/>
		<path fill="#FFFFFF" d="M16.882,380.397h2.689c0.208,0.639,0.815,1.111,1.514,1.111c0.866,0,1.592-0.727,1.592-1.597
			s-0.722-1.597-1.592-1.597c-0.699,0-1.305,0.472-1.514,1.111h-2.689v-8.697h2.703c0.222,0.616,0.815,1.065,1.495,1.065
			c0.866,0,1.592-0.676,1.592-1.597c0-0.87-0.722-1.597-1.592-1.597c-0.717,0-1.338,0.495-1.527,1.162h-3.638v9.674h-2.611v0.963
			h2.611v9.674h3.652c0.208,0.639,0.815,1.111,1.514,1.111c0.866,0,1.592-0.727,1.592-1.597s-0.722-1.597-1.588-1.597
			c-0.699,0-1.305,0.472-1.514,1.111h-2.689L16.882,380.397L16.882,380.397z M21.085,379.286c0.338,0,0.625,0.292,0.625,0.629
			s-0.287,0.629-0.625,0.629s-0.625-0.292-0.625-0.629C20.456,379.578,20.747,379.286,21.085,379.286z M21.085,369.613
			c0.338,0,0.625,0.241,0.625,0.629c0,0.338-0.287,0.629-0.625,0.629s-0.625-0.292-0.625-0.629
			C20.456,369.904,20.747,369.613,21.085,369.613z M21.085,388.955c0.338,0,0.625,0.292,0.625,0.629s-0.287,0.629-0.625,0.629
			s-0.625-0.292-0.625-0.629C20.456,389.247,20.747,388.955,21.085,388.955z"/>
	</g>
</g>
<g>
	<g>
		<g>
			<path fill="#FFFFFF" d="M21.258,3.488h-5.669V1.744C15.589,0.782,14.954,0,14.172,0H8.503C7.721,0,7.086,0.782,7.086,1.744v1.744
				H1.417C0.635,3.488,0,4.27,0,5.232v15.701c0,0.963,0.635,1.744,1.417,1.744H21.26c0.782,0,1.417-0.782,1.417-1.744V5.232
				C22.675,4.27,22.04,3.488,21.258,3.488z M8.502,1.744h5.669v1.744H8.502V1.744z M21.258,20.934H1.415V10.467h5.669v1.744
				c0,0.963,0.635,1.744,1.417,1.744h5.669c0.782,0,1.417-0.782,1.417-1.744v-1.744h5.669v10.467H21.258z M8.502,10.467h5.669v1.744
				H8.502V10.467z M21.258,8.722h-7.087H8.502H1.415V5.232h7.087h5.669h7.087V8.722L21.258,8.722z"/>
		</g>
	</g>
</g>
</svg>
