<?xml version="1.0" encoding="utf-8"?>
<!-- Generator: Adobe Illustrator 17.0.0, SVG Export Plug-In . SVG Version: 6.00 Build 0)  -->
<!DOCTYPE svg PUBLIC "-//W3C//DTD SVG 1.1//EN" "http://www.w3.org/Graphics/SVG/1.1/DTD/svg11.dtd">
<svg version="1.1" id="图层_1" xmlns="http://www.w3.org/2000/svg" xmlns:xlink="http://www.w3.org/1999/xlink" x="0px" y="0px"
	 width="595.28px" height="841.89px" viewBox="0 0 595.28 841.89" enable-background="new 0 0 595.28 841.89" xml:space="preserve">
<g>
	<g id="Layer_1_65_">
		<g>
			<path fill="#FFFFFF" d="M21.956,145.352c-0.077-0.176-0.24-0.288-0.419-0.288h-1.37c-0.871-5.113-5.023-9.001-9.998-9.001
				c-5.608,0-10.169,4.935-10.169,11s4.562,11,10.169,11c3.619,0,6.994-2.107,8.807-5.497c0.255-0.478,0.105-1.089-0.338-1.366
				c-0.441-0.277-1.007-0.114-1.262,0.364c-1.484,2.775-4.246,4.499-7.207,4.499c-4.588,0-8.321-4.037-8.321-9
				c0-4.962,3.733-9.001,8.321-9.001c3.952,0,7.263,2.998,8.106,6.999h-1.359c-0.18,0-0.342,0.113-0.419,0.288
				c-0.077,0.176-0.051,0.383,0.064,0.532l2.312,3.001c0.088,0.114,0.217,0.179,0.355,0.179c0.137,0,0.267-0.066,0.355-0.179
				l2.312-3.001C22.007,145.735,22.033,145.528,21.956,145.352z"/>
			<path fill="#FFFFFF" d="M10.169,138.564c-0.51,0-0.925,0.448-0.925,1v6.068c-0.418,0.317-0.694,0.839-0.694,1.433
				c0,0.965,0.726,1.75,1.618,1.75c0.244,0,0.474-0.063,0.682-0.169l3.216,2.007c0.146,0.091,0.305,0.134,0.462,0.134
				c0.319,0,0.63-0.179,0.801-0.501c0.255-0.477,0.104-1.089-0.339-1.365l-3.219-2.011c-0.043-0.529-0.297-0.99-0.678-1.28v-6.069
				C11.093,139.013,10.679,138.564,10.169,138.564z M10.169,147.814c-0.382,0-0.694-0.337-0.694-0.749
				c0-0.413,0.311-0.75,0.694-0.75c0.382,0,0.694,0.337,0.694,0.75C10.862,147.478,10.551,147.814,10.169,147.814z"/>
		</g>
	</g>
</g>
<g>
	<path fill="#FFFFFF" d="M7.966,237.751H6.07v-1.897c0-0.21-0.171-0.379-0.379-0.379c-0.21,0-0.38,0.171-0.38,0.379v1.897H3.413
		c-0.21,0-0.379,0.171-0.379,0.379c0,0.21,0.171,0.379,0.379,0.379H5.31v1.897c0,0.21,0.171,0.379,0.38,0.379
		s0.379-0.171,0.379-0.379v-1.897h1.897c0.21,0,0.379-0.171,0.379-0.379C8.346,237.921,8.176,237.751,7.966,237.751L7.966,237.751z"
		/>
	<path fill="#FFFFFF" d="M18.586,237.751h-4.551c-0.21,0-0.379,0.171-0.379,0.379c0,0.21,0.17,0.379,0.379,0.379h4.551
		c0.21,0,0.379-0.171,0.379-0.379C18.967,237.921,18.796,237.751,18.586,237.751L18.586,237.751z"/>
	<path fill="#FFFFFF" d="M11.38,232.441H0v22h22v-22H11.38z M0.76,233.201h9.861v9.861H0.76V233.201z M0.76,253.683v-9.863h9.861
		v9.863H0.76L0.76,253.683z M21.243,253.683h-9.863v-9.863h9.863V253.683L21.243,253.683z M11.38,243.061v-9.861h9.863v9.861H11.38z
		"/>
	<path fill="#FFFFFF" d="M14.036,250.27h4.551c0.21,0,0.379-0.171,0.379-0.379c0-0.21-0.17-0.379-0.379-0.379h-4.551
		c-0.21,0-0.379,0.17-0.379,0.379C13.656,250.1,13.827,250.27,14.036,250.27L14.036,250.27z"/>
	<path fill="#FFFFFF" d="M14.036,247.993h4.551c0.21,0,0.379-0.171,0.379-0.38s-0.17-0.379-0.379-0.379h-4.551
		c-0.21,0-0.379,0.171-0.379,0.379C13.656,247.823,13.827,247.993,14.036,247.993L14.036,247.993z"/>
	<path fill="#FFFFFF" d="M7.855,246.588c-0.147-0.148-0.389-0.148-0.536,0l-1.628,1.628l-1.628-1.628
		c-0.147-0.148-0.389-0.148-0.536,0c-0.148,0.147-0.148,0.387,0,0.536l1.628,1.628l-1.628,1.63c-0.148,0.147-0.148,0.387,0,0.536
		c0.074,0.074,0.172,0.111,0.269,0.111s0.194-0.037,0.269-0.111l1.628-1.628l1.628,1.628c0.074,0.074,0.172,0.111,0.269,0.111
		c0.096,0,0.194-0.037,0.269-0.111c0.148-0.148,0.148-0.387,0-0.536l-1.628-1.63l1.628-1.628
		C8.003,246.975,8.003,246.736,7.855,246.588L7.855,246.588z"/>
</g>
<g>
	<g id="_x33_6_24_">
		<g>
			<path fill="#FFFFFF" d="M15.241,95.839c1.43,0,2.589-1.149,2.589-2.565c0-1.417-1.159-2.565-2.589-2.565s-2.59,1.149-2.59,2.565
				C12.651,94.69,13.81,95.839,15.241,95.839z"/>
			<path fill="#FFFFFF" d="M19.5,95.099c-1.487,2.064-3.478,2.302-5.62,1.042c-0.146-0.085-0.793-0.44-0.936-0.523
				c-3.447-2.027-6.889-1.232-9.198,1.971c-0.981,1.362,1.288,2.654,2.258,1.307c1.193-1.655,2.71-2.133,4.369-1.611
				c-0.85,1.461-1.592,2.913-2.64,4.975s-3.362,3.71-5.586,2.423c-1.605-0.929-3.051,1.354-1.451,2.281
				c3.036,1.758,6.595,0.678,8.412-1.607c0.063,0.034,0.13,0.063,0.203,0.088c1.484,0.512,3.43,1.876,4.023,2.36
				s1.611,2.948,2.216,4.185c0.733,1.502,3.103,0.407,2.367-1.1c-0.686-1.404-1.836-4.206-2.734-4.916
				c-0.72-0.57-2.118-1.627-3.303-2.228c0.802-1.539,1.638-3.062,2.517-4.558c2.803,0.851,5.466-0.152,7.363-2.785
				C22.74,95.045,20.471,93.753,19.5,95.099z"/>
		</g>
	</g>
</g>
<g>
	<path fill="#FFFFFF" d="M1.871,195.02c0,0.348,0.331,0.632,0.738,0.632s0.738-0.283,0.738-0.632v-4.932
		c0-0.255-0.179-0.485-0.456-0.583c-0.276-0.098-0.594-0.044-0.804,0.137l-1.87,1.599c-0.288,0.246-0.288,0.646,0,0.893
		c0.288,0.246,0.756,0.246,1.044,0l0.61-0.522L1.871,195.02L1.871,195.02z"/>
	<path fill="#FFFFFF" d="M6.23,184.093l0.61-0.522v3.409c0,0.348,0.331,0.632,0.738,0.632c0.407,0,0.738-0.282,0.738-0.632v-4.932
		c0-0.255-0.179-0.485-0.456-0.583c-0.276-0.098-0.594-0.044-0.804,0.137l-1.87,1.599c-0.288,0.246-0.288,0.646,0,0.893
		C5.475,184.34,5.941,184.34,6.23,184.093z"/>
	<path fill="#FFFFFF" d="M14.649,189.506c-0.276-0.098-0.594-0.044-0.804,0.137l-1.87,1.599c-0.288,0.246-0.288,0.646,0,0.893
		c0.288,0.246,0.756,0.246,1.044,0l0.61-0.522v3.409c0,0.348,0.331,0.632,0.738,0.632s0.738-0.282,0.738-0.632v-4.932
		C15.104,189.833,14.924,189.603,14.649,189.506z"/>
	<path fill="#FFFFFF" d="M11.44,197.271c-0.276-0.098-0.594-0.044-0.804,0.137l-1.87,1.599c-0.288,0.246-0.288,0.646,0,0.893
		c0.288,0.246,0.756,0.246,1.044,0l0.61-0.522v1.867c0,0.348,0.331,0.632,0.738,0.632s0.738-0.283,0.738-0.632v-3.391
		C11.895,197.599,11.716,197.368,11.44,197.271z"/>
	<path fill="#FFFFFF" d="M10.189,193.483v-1.857c0-1.196-1.138-2.168-2.537-2.168H7.616c-1.399,0-2.537,0.973-2.537,2.168v1.857
		c0,1.196,1.138,2.168,2.537,2.168h0.036C9.051,195.652,10.189,194.679,10.189,193.483z M8.712,193.483
		c0,0.5-0.475,0.906-1.06,0.906H7.616c-0.585,0-1.06-0.406-1.06-0.906v-1.857c0-0.5,0.475-0.906,1.06-0.906h0.036
		c0.585,0,1.06,0.406,1.06,0.906C8.712,191.626,8.712,193.483,8.712,193.483z"/>
	<path fill="#FFFFFF" d="M19.463,189.458h-0.036c-1.399,0-2.537,0.973-2.537,2.168v1.857c0,1.196,1.138,2.168,2.537,2.168h0.036
		c1.399,0,2.537-0.973,2.537-2.168v-1.857C22,190.431,20.862,189.458,19.463,189.458z M20.525,193.483c0,0.5-0.475,0.906-1.06,0.906
		h-0.036c-0.585,0-1.06-0.406-1.06-0.906v-1.857c0-0.5,0.475-0.906,1.06-0.906h0.036c0.585,0,1.06,0.406,1.06,0.906V193.483z"/>
	<path fill="#FFFFFF" d="M12.622,181.417h-0.036c-1.399,0-2.537,0.973-2.537,2.168v1.857c0,1.196,1.138,2.168,2.537,2.168h0.036
		c0.407,0,0.738-0.282,0.738-0.632c0-0.348-0.331-0.632-0.738-0.632h-0.036c-0.585,0-1.06-0.406-1.06-0.906v-1.857
		c0-0.5,0.475-0.906,1.06-0.906h0.036c0.585,0,1.06,0.406,1.06,0.906c0,0.348,0.331,0.632,0.738,0.632s0.738-0.283,0.738-0.632
		C15.159,182.39,14.021,181.417,12.622,181.417z"/>
	<path fill="#FFFFFF" d="M19.463,181.417h-0.036c-1.399,0-2.537,0.973-2.537,2.168v1.857c0,1.196,1.138,2.168,2.537,2.168h0.036
		c1.399,0,2.537-0.973,2.537-2.168v-1.857C22,182.39,20.862,181.417,19.463,181.417z M20.525,185.443c0,0.5-0.475,0.906-1.06,0.906
		h-0.036c-0.585,0-1.06-0.406-1.06-0.906v-1.857c0-0.5,0.475-0.906,1.06-0.906h0.036c0.585,0,1.06,0.406,1.06,0.906V185.443z"/>
	<path fill="#FFFFFF" d="M4.203,197.223H4.167c-1.399,0-2.537,0.973-2.537,2.168v1.857c0,1.196,1.138,2.168,2.537,2.168h0.036
		c1.399,0,2.537-0.973,2.537-2.168v-1.857C6.74,198.195,5.602,197.223,4.203,197.223z M5.263,201.248c0,0.5-0.475,0.906-1.06,0.906
		H4.167c-0.585,0-1.06-0.406-1.06-0.906v-1.857c0-0.5,0.475-0.906,1.06-0.906h0.036c0.585,0,1.06,0.406,1.06,0.906V201.248z"/>
</g>
<g>
	<path fill="#FFFFFF" d="M21.243,47.808h-6.771v-2.01c0-0.244-0.206-0.443-0.459-0.443H8.345c-0.253,0-0.459,0.199-0.459,0.443
		v5.483c0,0.244,0.206,0.443,0.459,0.443h5.668c0.253,0,0.459-0.199,0.459-0.443v-2.01h6.015v6.382h-0.924l0.394-0.927
		c0.015-0.035,0.006-0.074-0.022-0.1c-0.028-0.025-0.069-0.032-0.104-0.015l-3.521,1.682c-0.036,0.016-0.058,0.051-0.058,0.09
		c0,0.039,0.022,0.073,0.058,0.09l3.521,1.682c0.035,0.016,0.076,0.011,0.104-0.015c0.028-0.025,0.037-0.065,0.022-0.1l-0.394-0.927
		h1.68c0.418,0,0.757-0.328,0.757-0.731v-7.845C21.999,48.136,21.661,47.808,21.243,47.808z M12.959,50.261h-3.56v-3.444h3.56
		V50.261z"/>
	<path fill="#FFFFFF" d="M14.014,53.17H8.346c-0.253,0-0.459,0.199-0.459,0.443v2.04H0.756C0.338,55.653,0,55.98,0,56.385v7.845
		c0,0.404,0.339,0.732,0.756,0.732h1.68L2.042,65.89c-0.015,0.035-0.006,0.074,0.022,0.1c0.028,0.024,0.07,0.031,0.105,0.015
		l3.521-1.682c0.035-0.016,0.057-0.051,0.057-0.09s-0.022-0.073-0.057-0.09L2.17,62.459c-0.035-0.017-0.076-0.012-0.105,0.014
		c-0.028,0.025-0.037,0.065-0.022,0.1L2.436,63.5H1.513v-6.382h6.375v1.98c0,0.244,0.206,0.443,0.459,0.443h5.668
		c0.253,0,0.459-0.199,0.459-0.443v-5.483C14.472,53.369,14.266,53.17,14.014,53.17z M12.959,58.076h-3.56v-3.444h3.56V58.076z"/>
	<path fill="#FFFFFF" d="M14.014,60.985H8.346c-0.253,0-0.459,0.199-0.459,0.443v5.483c0,0.244,0.206,0.443,0.459,0.443h5.668
		c0.253,0,0.459-0.199,0.459-0.443v-5.483C14.472,61.184,14.266,60.985,14.014,60.985z M12.959,65.892h-3.56v-3.444h3.56V65.892z"/>
</g>
<g>
	<path fill="#FFFFFF" d="M12.012,504.759c-0.412-0.265-0.901-0.255-1.307,0.021c-0.019,0.014-0.038,0.028-0.055,0.045l-5.73,5.482
		H0.423c-0.234,0-0.423,0.214-0.423,0.478v9.086c0,0.127,0.045,0.249,0.124,0.338c0.08,0.09,0.186,0.141,0.299,0.141l4.487-0.002
		l5.727,5.949c0.021,0.022,0.044,0.042,0.068,0.057c0.208,0.142,0.439,0.212,0.669,0.212c0.218,0,0.437-0.064,0.637-0.192
		c0.422-0.27,0.675-0.763,0.675-1.317v-18.98C12.687,505.522,12.434,505.03,12.012,504.759z M11.841,525.057
		c0,0.207-0.092,0.387-0.244,0.485c-0.066,0.042-0.232,0.122-0.423,0.012l-5.675-5.895v-2.179c0-0.265-0.189-0.478-0.423-0.478
		s-0.423,0.214-0.423,0.478v1.911l-3.806,0.002v-8.13h3.806v1.913c0,0.265,0.189,0.478,0.423,0.478s0.423-0.214,0.423-0.478v-2.169
		l5.669-5.423c0.195-0.115,0.364-0.034,0.43,0.009c0.153,0.098,0.244,0.279,0.244,0.485V525.057L11.841,525.057z"/>
	<path fill="#FFFFFF" d="M16.406,506.507c-0.221-0.084-0.462,0.049-0.536,0.3c-0.075,0.25,0.044,0.522,0.265,0.606
		c3.003,1.153,5.021,4.334,5.021,7.915c0,3.579-2.014,6.761-5.011,7.916c-0.221,0.085-0.34,0.357-0.264,0.608
		c0.06,0.199,0.224,0.324,0.4,0.324c0.046,0,0.091-0.008,0.137-0.026c3.339-1.288,5.583-4.833,5.583-8.82
		C22,511.337,19.752,507.792,16.406,506.507z"/>
	<path fill="#FFFFFF" d="M18.194,515.328c0-2.856-1.695-5.405-4.122-6.198c-0.225-0.073-0.459,0.073-0.524,0.327
		c-0.065,0.253,0.064,0.519,0.289,0.593c2.067,0.676,3.512,2.847,3.512,5.279s-1.445,4.603-3.512,5.279
		c-0.224,0.074-0.354,0.339-0.289,0.593c0.053,0.21,0.222,0.345,0.406,0.345c0.039,0,0.079-0.007,0.117-0.018
		C16.5,520.733,18.194,518.185,18.194,515.328z"/>
</g>
<g>
	<g>
		<path fill="#FFFFFF" d="M4.241,345.15c2.133,0,3.267-1.606,3.599-2.554c0.005-0.015,0.011-0.03,0.015-0.046
			c0.776-2.709,2.013-7.002,2.929-10.123h3.277c0.616,0,1.116-0.421,1.116-0.94c0-0.519-0.5-0.94-1.116-0.94h-2.722
			c0.293-0.984,0.507-1.684,0.592-1.924l0.094-0.268c0.346-0.994,1.156-3.325,2.409-3.325c1.161,0,1.335,1.508,1.343,1.58
			c0.049,0.516,0.584,0.906,1.198,0.861c0.614-0.039,1.075-0.492,1.027-1.009c-0.104-1.146-0.985-3.313-3.568-3.313
			c-2.925,0-4.022,3.159-4.55,4.676l-0.09,0.256c-0.107,0.301-0.388,1.226-0.756,2.464H5.133c-0.616,0-1.116,0.421-1.116,0.94
			c0,0.519,0.5,0.94,1.116,0.94h3.352c-1.146,3.916-2.626,9.081-2.789,9.648c-0.061,0.148-0.518,1.195-1.454,1.195
			c-1.429,0-2.048-1.69-2.053-1.703c-0.172-0.499-0.789-0.787-1.382-0.641c-0.592,0.145-0.933,0.667-0.762,1.165
			C0.435,343.225,1.758,345.15,4.241,345.15z"/>
		<path fill="#FFFFFF" d="M20.791,342.726c0.658,0,1.21-0.393,1.21-1.02c0-0.291-0.138-0.553-0.433-0.845l-2.317-2.244l2.249-2.215
			c0.208-0.218,0.363-0.452,0.363-0.758c0-0.554-0.536-0.962-1.228-0.962c-0.467,0-0.829,0.247-1.141,0.569l-1.746,1.923
			l-1.712-1.923c-0.346-0.364-0.709-0.569-1.227-0.569c-0.658,0-1.211,0.394-1.211,1.02c0,0.291,0.139,0.553,0.432,0.844
			l2.162,2.098l-2.369,2.36c-0.225,0.218-0.363,0.452-0.363,0.758c0,0.554,0.536,0.961,1.227,0.961c0.467,0,0.83-0.247,1.141-0.569
			l1.868-2.068l1.868,2.068C19.909,342.521,20.272,342.726,20.791,342.726z"/>
	</g>
</g>
<g>
	<g>
		<path fill="#FFFFFF" d="M6.612,463.577c-1.983-0.327-3.865,0.96-4.204,2.878c-0.339,1.918,0.993,3.737,2.977,4.065
			c1.983,0.327,3.865-0.96,4.204-2.878C9.928,465.725,8.595,463.905,6.612,463.577z M7.54,467.304
			c-0.146,0.824-0.954,1.377-1.806,1.236c-0.852-0.141-1.424-0.923-1.279-1.745c0.146-0.824,0.954-1.377,1.806-1.236
			C7.113,465.698,7.687,466.481,7.54,467.304z"/>
		<path fill="#FFFFFF" d="M14.659,471.893c-2.011,0-3.642,1.576-3.642,3.521c0,1.945,1.631,3.521,3.642,3.521
			s3.642-1.576,3.642-3.521C18.301,473.469,16.671,471.893,14.659,471.893z M14.659,476.928c-0.864,0-1.565-0.677-1.565-1.513
			c0-0.836,0.7-1.513,1.565-1.513s1.565,0.677,1.565,1.513C16.224,476.25,15.524,476.928,14.659,476.928z"/>
		<path fill="#FFFFFF" d="M19.977,475.414c0-0.424-0.059-0.835-0.159-1.229l0.667-0.158c-0.156-0.615-0.415-1.199-0.769-1.735
			l-0.577,0.357c-0.365-0.552-0.835-1.03-1.385-1.411l0.4-0.539c-0.535-0.371-1.123-0.652-1.75-0.836l-0.198,0.633
			c-0.489-0.144-1.007-0.222-1.545-0.222v-0.659c-0.659,0-1.306,0.103-1.925,0.305l0.22,0.628c-0.648,0.212-1.241,0.541-1.749,0.962
			l-0.445-0.503c-0.499,0.412-0.921,0.897-1.256,1.442l0.59,0.341c-0.341,0.552-0.575,1.17-0.681,1.831l-0.679-0.102
			c-0.048,0.295-0.072,0.597-0.072,0.896c0,0.331,0.029,0.665,0.086,0.988l0.677-0.113c0.117,0.659,0.363,1.272,0.713,1.82
			l-0.585,0.349c0.344,0.539,0.775,1.018,1.28,1.422l0.436-0.507c0.515,0.413,1.114,0.733,1.766,0.935l-0.209,0.629
			c0.591,0.184,1.208,0.276,1.834,0.276c0.032,0,0.064,0,0.095-0.001l-0.011-0.663c0.698-0.011,1.364-0.148,1.971-0.395l0.264,0.608
			c0.603-0.244,1.159-0.582,1.652-1.004l-0.455-0.497c0.504-0.432,0.923-0.953,1.229-1.541l0.613,0.298
			c0.296-0.567,0.491-1.174,0.581-1.802l-0.681-0.092C19.954,475.894,19.977,475.657,19.977,475.414z M14.659,479.415
			c-2.286,0-4.138-1.792-4.138-4.001c0-2.21,1.853-4.001,4.138-4.001c2.286,0,4.138,1.792,4.138,4.001
			S16.945,479.415,14.659,479.415z"/>
		<path fill="#FFFFFF" d="M8.795,471.415c0.572-0.343,1.076-0.789,1.481-1.318l0.552,0.394c0.39-0.51,0.689-1.076,0.887-1.682
			l-0.655-0.202c0.074-0.225,0.139-0.455,0.18-0.695c0.074-0.418,0.087-0.832,0.057-1.237l0.686-0.048
			c-0.048-0.633-0.201-1.249-0.457-1.835l-0.632,0.258c-0.264-0.603-0.644-1.152-1.12-1.617l0.488-0.467
			c-0.462-0.452-0.993-0.826-1.579-1.109l-0.306,0.59c-0.457-0.221-0.954-0.383-1.483-0.47l0.114-0.649
			c-0.649-0.107-1.306-0.112-1.951-0.014l0.108,0.655c-0.676,0.104-1.317,0.331-1.892,0.665l-0.351-0.568
			c-0.564,0.326-1.064,0.734-1.489,1.216l0.523,0.432c-0.432,0.489-0.77,1.06-0.991,1.693l-0.652-0.211
			c-0.098,0.282-0.175,0.576-0.226,0.872c-0.058,0.326-0.086,0.66-0.086,0.988l0.687-0.001c0.001,0.667,0.136,1.314,0.385,1.91
			l-0.636,0.248c0.245,0.587,0.586,1.129,1.014,1.61l0.517-0.429c0.437,0.492,0.97,0.904,1.578,1.21l-0.316,0.586
			c0.551,0.277,1.143,0.469,1.76,0.571c0.031,0.006,0.063,0.011,0.094,0.015l0.105-0.654c0.69,0.103,1.37,0.076,2.012-0.069
			l0.154,0.642c0.637-0.143,1.245-0.385,1.803-0.721L8.795,471.415z M5.297,471.019c-2.267-0.374-3.792-2.456-3.404-4.649
			c0.387-2.192,2.54-3.666,4.808-3.292c2.267,0.374,3.792,2.455,3.404,4.649C9.717,469.92,7.564,471.394,5.297,471.019z"/>
		<path fill="#FFFFFF" d="M21.451,464.445c0.025-0.189,0.043-0.381,0.042-0.577c-0.003-0.342-0.053-0.673-0.137-0.991l0.538-0.132
			c-0.13-0.497-0.342-0.966-0.633-1.397l-0.464,0.292c-0.298-0.443-0.681-0.828-1.127-1.132l0.32-0.438
			c-0.434-0.297-0.911-0.52-1.418-0.665l-0.156,0.511c-0.099-0.028-0.199-0.053-0.301-0.075c-0.306-0.065-0.622-0.099-0.948-0.096
			l-0.004-0.532c-0.532,0.004-1.055,0.09-1.553,0.258l0.181,0.506c-0.523,0.176-0.998,0.443-1.407,0.788l-0.364-0.404
			c-0.4,0.337-0.738,0.73-1.006,1.172l0.479,0.271c-0.272,0.448-0.458,0.949-0.539,1.482l-0.549-0.079
			c-0.036,0.239-0.054,0.482-0.052,0.724c0.002,0.268,0.028,0.535,0.076,0.797l0.546-0.095c0.099,0.531,0.301,1.025,0.587,1.465
			l-0.471,0.285c0.281,0.434,0.632,0.817,1.042,1.142l0.348-0.411c0.419,0.331,0.904,0.585,1.432,0.746l-0.165,0.509
			c0.478,0.145,0.978,0.216,1.483,0.212c0.025,0,0.051-0.001,0.077-0.001l-0.013-0.535c0.564-0.014,1.101-0.128,1.59-0.33
			l0.217,0.49c0.486-0.202,0.933-0.477,1.328-0.82l-0.371-0.4c0.405-0.352,0.739-0.775,0.984-1.251l0.497,0.239
			c0.235-0.46,0.389-0.951,0.459-1.459L21.451,464.445z M18.365,464.367c-0.063,0.146-0.154,0.278-0.268,0.39
			c-0.227,0.222-0.542,0.362-0.891,0.364c-0.698,0.005-1.268-0.538-1.273-1.213c-0.005-0.674,0.557-1.226,1.254-1.231
			c0.698-0.005,1.268,0.538,1.273,1.213C18.463,464.059,18.429,464.22,18.365,464.367z"/>
	</g>
</g>
<g>
	<g>
		<path fill="#FFFFFF" d="M17.071,279.043c-0.259,0-0.47,0.083-0.663,0.262c-0.008,0.007-0.016,0.015-0.023,0.02l-0.456,0.451
			l4.068,4.02l0.445-0.44c0.002-0.002,0.005-0.004,0.007-0.007l0.005-0.005c0.007-0.008,0.014-0.016,0.02-0.022
			c0.851-0.9-0.614-2.484-1.084-2.947C18.533,279.53,17.688,279.043,17.071,279.043z"/>
		<path fill="#FFFFFF" d="M8.582,291.061c0.123,0.122,0.284,0.182,0.446,0.182c0.161,0,0.323-0.061,0.446-0.182l6.665-6.589
			c0.246-0.244,0.246-0.638,0-0.883c-0.246-0.245-0.646-0.244-0.893,0l-6.665,6.589C8.336,290.422,8.336,290.817,8.582,291.061z"/>
		<path fill="#FFFFFF" d="M21.842,281.771c-0.243-0.721-0.783-1.509-1.561-2.277c-0.784-0.775-1.976-1.699-3.211-1.699
			c-0.554,0-1.064,0.193-1.479,0.557c-0.021,0.017-0.043,0.035-0.062,0.053l-2.393,2.366H0.631c-0.348,0-0.631,0.279-0.631,0.624
			v17.776c0,0.344,0.282,0.624,0.631,0.624h17.98c0.348,0,0.631-0.279,0.631-0.624v-12.743c0-0.039-0.004-0.077-0.011-0.113
			l2.095-2.071c0.004-0.004,0.009-0.009,0.013-0.013l0,0l0.041-0.041c0.019-0.019,0.037-0.04,0.053-0.06
			C22.009,283.497,22.149,282.681,21.842,281.771z M8.461,294.684l-4.451,1.27l1.011-4.672L8.461,294.684z M9.614,294.06
			l-4.067-4.02l9.49-9.382l4.068,4.021L9.614,294.06z M17.982,298.549H1.264v-16.528h10.611l-7.679,7.592
			c-0.086,0.085-0.146,0.193-0.171,0.31l-1.469,6.788c-0.047,0.214,0.024,0.438,0.187,0.587c0.118,0.11,0.273,0.168,0.431,0.168
			c0.034,0,12.172,0,12.172,0c0.348,0,0.631-0.279,0.631-0.624s-0.282-0.624-0.631-0.624h-7.71l2.069-0.591
			c0.103-0.03,0.196-0.083,0.272-0.158l8.007-7.916v10.996H17.982z M20.473,283.324c-0.007,0.008-0.014,0.015-0.02,0.022
			l-0.005,0.005c-0.002,0.002-0.005,0.004-0.007,0.007l-0.445,0.44l-4.068-4.02l0.456-0.451c0.008-0.007,0.016-0.014,0.023-0.02
			c0.193-0.178,0.404-0.262,0.663-0.262c0.617,0,1.462,0.486,2.319,1.333C19.859,280.84,21.324,282.424,20.473,283.324z"/>
	</g>
</g>
<g transform="translate(1 1)">
	<g>
		<g>
			<path fill="#FFFFFF" d="M19.9,432.657h-4.033v-2.287c0.667-0.461,1.1-1.231,1.1-2.113c0-0.602-0.202-1.152-0.542-1.587
				c1.686-3.401,1.031-7.457-1.658-10.146c-0.146-0.146-0.367-0.146-0.513,0l-3.656,3.667H7.02c0.03-0.117,0.047-0.241,0.047-0.367
				c0-0.806-0.66-1.467-1.467-1.467s-1.467,0.66-1.467,1.467s0.66,1.467,1.467,1.467c0.126,0,0.249-0.016,0.367-0.047v3.592
				l-3.63,3.641c-0.146,0.146-0.146,0.367,0,0.513c1.687,1.687,3.923,2.567,6.196,2.567c1.502,0,3.038-0.4,4.384-1.198
				c0.006,0.004,0.011,0.008,0.016,0.012v2.287h-7.7c-0.624,0-1.1,0.476-1.1,1.1v0.733c0,0.22,0.146,0.367,0.367,0.367h16.134
				c0.22,0,0.367-0.146,0.367-0.367v-0.733C21,433.135,20.523,432.657,19.9,432.657z M15.417,429.791
				c-0.036,0.009-0.07,0.023-0.101,0.044c-0.55,0.33-1.284,0.33-1.834,0c-0.031-0.02-0.066-0.035-0.101-0.044
				c-0.47-0.309-0.783-0.829-0.813-1.436c-0.002-0.032-0.003-0.064-0.003-0.097c0-1.026,0.806-1.833,1.834-1.833
				c0.385,0,0.739,0.113,1.031,0.309c0.097,0.066,0.19,0.144,0.278,0.231c0.325,0.329,0.523,0.784,0.523,1.292
				C16.233,428.905,15.912,429.465,15.417,429.791z M8.542,422.254l-1.329-1.329h2.653L8.542,422.254z M4.867,419.825
				c0-0.404,0.33-0.733,0.733-0.733s0.733,0.33,0.733,0.733c0,0.157-0.05,0.303-0.136,0.423c-0.036,0.022-0.066,0.051-0.09,0.085
				c-0.034,0.024-0.063,0.054-0.085,0.09c-0.119,0.085-0.266,0.136-0.423,0.136C5.197,420.558,4.867,420.228,4.867,419.825z
				 M6.699,421.438l1.33,1.33l-1.33,1.334V421.438z M3.106,428.697l7.82-7.82c0.053-0.03,0.096-0.072,0.125-0.125l3.458-3.457
				c2.2,2.42,2.75,5.866,1.356,8.837c-0.363-0.242-0.775-0.383-1.196-0.426c-0.007-0.001-0.015-0.001-0.021-0.002
				c-0.033-0.003-0.065-0.006-0.098-0.008c-0.011-0.001-0.021-0.001-0.032-0.002c-0.04-0.002-0.08-0.003-0.119-0.003
				c-1.43,0-2.567,1.137-2.567,2.567c0,0.043,0.001,0.084,0.003,0.126c0,0.008,0.001,0.016,0.001,0.023
				c0.002,0.037,0.005,0.074,0.009,0.111c0,0.003,0.001,0.006,0.001,0.009c0.025,0.254,0.086,0.499,0.183,0.728
				c0.002,0.006,0.005,0.012,0.007,0.017c0.008,0.017,0.016,0.035,0.023,0.052c0.083,0.185,0.188,0.359,0.311,0.517
				C9.367,431.484,5.633,431.041,3.106,428.697z M13.666,430.72c0.17,0.049,0.346,0.082,0.53,0.096
				c0.012,0.001,0.024,0.002,0.036,0.003c0.018,0.001,0.037,0.002,0.056,0.003c0.075,0.003,0.149,0.003,0.223,0
				c0.018-0.001,0.037-0.002,0.056-0.003c0.012-0.001,0.024-0.002,0.036-0.003c0.182-0.014,0.36-0.047,0.53-0.096v1.938h-1.467
				L13.666,430.72L13.666,430.72z M20.267,434.124h-15.4v-0.367c0-0.22,0.146-0.367,0.367-0.367H13.3h2.2h4.4
				c0.22,0,0.367,0.146,0.367,0.367V434.124L20.267,434.124z"/>
			<path fill="#FFFFFF" d="M2.666,418.725c0,0.22,0.146,0.367,0.367,0.367c0.22,0,0.367-0.146,0.367-0.367
				c0-0.806,0.66-1.467,1.467-1.467c0.22,0,0.367-0.146,0.367-0.367c0-0.22-0.146-0.367-0.367-0.367
				C3.656,416.525,2.666,417.515,2.666,418.725z"/>
			<path fill="#FFFFFF" d="M4.5,415.425c0.22,0,0.367-0.146,0.367-0.367c0-0.22-0.146-0.367-0.367-0.367
				c-2.017,0-3.667,1.65-3.667,3.667c0,0.22,0.146,0.367,0.367,0.367s0.367-0.146,0.367-0.367
				C1.566,416.745,2.887,415.425,4.5,415.425z"/>
			<path fill="#FFFFFF" d="M4.5,413.592c0.22,0,0.367-0.146,0.367-0.367c0-0.22-0.146-0.367-0.367-0.367c-3.043,0-5.5,2.456-5.5,5.5
				c0,0.22,0.146,0.367,0.367,0.367s0.367-0.146,0.367-0.367C-0.267,415.718,1.859,413.592,4.5,413.592z"/>
			<path fill="#FFFFFF" d="M14.399,427.891c-0.22,0-0.367,0.146-0.367,0.367c0,0.22,0.146,0.367,0.367,0.367
				s0.367-0.146,0.367-0.367C14.766,428.038,14.62,427.891,14.399,427.891z"/>
		</g>
	</g>
</g>
<g>
	<g>
		<path fill="#FFFFFF" d="M6.087,374.134c1.59,0,2.851-1.266,2.807-2.815c0-1.549-1.262-2.815-2.807-2.815s-2.807,1.266-2.807,2.815
			C3.28,372.868,4.542,374.134,6.087,374.134z M6.087,369.397c1.073,0,1.917,0.844,1.917,1.921c0,1.078-0.84,1.922-1.917,1.922
			c-1.073,0-1.917-0.844-1.917-1.922C4.169,370.241,5.009,369.397,6.087,369.397z"/>
		<path fill="#FFFFFF" d="M10.366,376.078c-0.422-0.912-1.401-1.508-2.429-1.508H6.056H4.175c-1.028,0-2.012,0.593-2.429,1.508
			l-1.59,3.242c-0.373,0.687-0.045,1.553,0.7,1.917c0.467,0.229,1.073,0.139,1.495-0.139v7.758c0,0.912,0.75,1.643,1.684,1.643
			s1.684-0.731,1.684-1.643v-5.567c0-0.215,0.126-0.35,0.342-0.364c0.215,0.014,0.342,0.148,0.342,0.364v5.567
			c0,0.912,0.75,1.643,1.684,1.643s1.684-0.731,1.684-1.643v-7.753c0.422,0.274,1.028,0.364,1.495,0.139
			c0.75-0.364,1.073-1.235,0.7-1.917L10.366,376.078L10.366,376.078z M10.882,380.414c-0.278,0.139-0.656,0-0.75-0.274l-1.262-2.555
			v11.273c0,0.413-0.328,0.731-0.75,0.731s-0.75-0.319-0.75-0.731v-5.567c-0.09-0.673-0.637-1.216-1.32-1.23
			c-0.687,0.018-1.23,0.557-1.32,1.23v5.567c0,0.413-0.328,0.731-0.75,0.731s-0.745-0.323-0.745-0.731v-11.273l-1.262,2.555
			c-0.094,0.274-0.467,0.413-0.75,0.274c-0.278-0.09-0.422-0.458-0.278-0.731l1.59-3.242c0.278-0.593,0.889-1.006,1.59-1.006h1.931
			h1.931c0.7,0,1.307,0.413,1.59,1.006l1.59,3.242C11.301,379.956,11.161,380.325,10.882,380.414z"/>
		<path fill="#FFFFFF" d="M16.378,380.042h2.609c0.202,0.62,0.791,1.078,1.469,1.078c0.84,0,1.545-0.705,1.545-1.549
			s-0.7-1.549-1.545-1.549c-0.678,0-1.266,0.458-1.469,1.078h-2.609v-8.436h2.622c0.215,0.597,0.791,1.033,1.45,1.033
			c0.84,0,1.545-0.656,1.545-1.549c0-0.844-0.7-1.549-1.545-1.549c-0.696,0-1.298,0.48-1.481,1.127h-3.53v9.384h-2.533v0.934h2.533
			v9.384h3.543c0.202,0.62,0.791,1.078,1.469,1.078c0.84,0,1.545-0.705,1.545-1.549s-0.7-1.549-1.541-1.549
			c-0.678,0-1.266,0.458-1.469,1.078h-2.609L16.378,380.042L16.378,380.042z M20.456,378.964c0.328,0,0.606,0.283,0.606,0.61
			c0,0.327-0.278,0.61-0.606,0.61s-0.606-0.283-0.606-0.61C19.846,379.247,20.128,378.964,20.456,378.964z M20.456,369.582
			c0.328,0,0.606,0.234,0.606,0.61c0,0.328-0.278,0.61-0.606,0.61s-0.606-0.283-0.606-0.61
			C19.846,369.864,20.128,369.582,20.456,369.582z M20.456,388.343c0.328,0,0.606,0.283,0.606,0.61c0,0.327-0.278,0.61-0.606,0.61
			s-0.606-0.283-0.606-0.61C19.846,388.626,20.128,388.343,20.456,388.343z"/>
	</g>
</g>
<g>
	<g>
		<g>
			<path fill="#FFFFFF" d="M20.624,3.384h-5.5V1.692C15.124,0.759,14.508,0,13.749,0h-5.5C7.491,0,6.875,0.759,6.875,1.692v1.692
				h-5.5C0.616,3.384,0,4.143,0,5.076v15.232C0,21.242,0.616,22,1.375,22h19.251C21.384,22,22,21.241,22,20.308V5.076
				C21.998,4.143,21.382,3.384,20.624,3.384z M8.248,1.692h5.5v1.692h-5.5V1.692z M20.624,20.309H1.373V10.155h5.5v1.692
				c0,0.934,0.616,1.692,1.375,1.692h5.5c0.759,0,1.375-0.759,1.375-1.692v-1.692h5.5v10.155
				C20.622,20.309,20.624,20.309,20.624,20.309z M8.248,10.155h5.5v1.692h-5.5V10.155z M20.624,8.462h-6.875h-5.5H1.373V5.076h6.875
				h5.5h6.875V8.462L20.624,8.462z"/>
		</g>
	</g>
</g>
</svg>
