<?xml version="1.0" encoding="iso-8859-1"?>
<!-- Generator: Adobe Illustrator 18.0.0, SVG Export Plug-In . SVG Version: 6.00 Build 0)  -->
<!DOCTYPE svg PUBLIC "-//W3C//DTD SVG 1.1//EN" "http://www.w3.org/Graphics/SVG/1.1/DTD/svg11.dtd">
<svg version="1.1" id="Capa_1" xmlns="http://www.w3.org/2000/svg" xmlns:xlink="http://www.w3.org/1999/xlink" x="0px" y="0px"
	 viewBox="0 0 428.98 428.98" style="enable-background:new 0 0 428.98 428.98;" xml:space="preserve">
<path style="fill:#BCBBAF;" d="M350.65,124.5v193.49h-28.52v-31.5H110.64v31.5H82.12V124.5H350.65z"/>
<path style="fill:#E2E0D0;" d="M382.48,0v428.98H46.5V0H382.48z M350.65,317.99V124.5v-30V33.45H82.12V94.5v30v193.49h28.52h211.49
	H350.65z"/>
<rect x="305.98" y="94.5" style="fill:#999999;" width="44.67" height="30"/>
<rect x="82.12" y="94.5" style="fill:#999999;" width="171.36" height="30"/>
<polygon style="fill:#4D4D4D;" points="253.48,124.5 253.48,94.5 253.48,73.5 305.98,73.5 305.98,94.5 305.98,124.5 305.98,158.99 
	293.08,158.99 266.39,158.99 253.48,158.99 "/>
<rect x="110.64" y="286.49" style="fill:#4D4D4D;" width="211.49" height="31.5"/>
<polygon style="fill:#BCBBAF;" points="350.65,33.45 350.65,94.5 305.98,94.5 305.98,73.5 253.48,73.5 253.48,94.5 82.12,94.5 
	82.12,33.45 "/>
<path style="fill:#E59683;" d="M289.73,258.157v12c0,5.52-4.47,10-10,10h-12c-5.52,0-10-4.48-10-10c0-5.52,4.48-10,10-10h2v-2
	c0-5.52,4.48-10,10-10C285.26,248.157,289.73,252.637,289.73,258.157z"/>
<path style="fill:#E59683;" d="M289.73,199.49v28.667c0,5.52-4.47,10-10,10c-5.52,0-10-4.48-10-10V199.49H289.73z"/>
<path d="M289.73,199.49h-20c0-5.52,4.48-10,10-10C285.26,189.49,289.73,193.97,289.73,199.49z"/>
<path style="fill:#E59683;" d="M228.36,260.157c5.52,0,10,4.48,10,10c0,5.52-4.48,10-10,10h-27c-5.52,0-10-4.48-10-10
	c0-5.52,4.48-10,10-10H228.36z"/>
<path style="fill:#E59683;" d="M161.99,260.157c5.52,0,10,4.48,10,10c0,5.52-4.48,10-10,10h-12c-5.52,0-10-4.48-10-10
	c0-5.52,4.48-10,10-10H161.99z"/>
<rect x="266.39" y="158.99" style="fill:#999999;" width="26.69" height="40.5"/>
<g>
</g>
<g>
</g>
<g>
</g>
<g>
</g>
<g>
</g>
<g>
</g>
<g>
</g>
<g>
</g>
<g>
</g>
<g>
</g>
<g>
</g>
<g>
</g>
<g>
</g>
<g>
</g>
<g>
</g>
</svg>
