<?xml version="1.0" encoding="iso-8859-1"?>
<!-- Generator: Adobe Illustrator 19.0.0, SVG Export Plug-In . SVG Version: 6.00 Build 0)  -->
<svg version="1.1" id="Layer_1" xmlns="http://www.w3.org/2000/svg" xmlns:xlink="http://www.w3.org/1999/xlink" x="0px" y="0px"
	 viewBox="0 0 512.024 512.024" style="enable-background:new 0 0 512.024 512.024;" xml:space="preserve">
<rect x="155.968" y="482.32" width="200.08" height="29.704"/>
<path style="fill:#333333;" d="M356.92,485.792H155.096c-5.768,0-10.488-4.72-10.488-10.488V10.488
	C144.608,4.72,149.328,0,155.096,0h201.832c5.768,0,10.488,4.72,10.488,10.488v464.816
	C367.408,481.072,362.688,485.792,356.92,485.792z"/>
<path d="M155.752,0v148.096c0,11.536,9.44,20.968,20.968,20.968h158.584c11.536,0,20.968-9.44,20.968-20.968V0H155.752z"/>
<g>
	<rect x="155.752" y="74.264" style="fill:#333333;" width="200.56" height="5.24"/>
	<rect x="155.752" y="10.048" style="fill:#333333;" width="200.56" height="5.24"/>
</g>
<rect x="218.64" y="125.376" style="fill:#5B5C5F;" width="19.744" height="5.24"/>
<g>
	<rect x="191.44" y="125.376" style="fill:#09BA98;" width="19.744" height="5.24"/>
	<rect x="300.264" y="125.376" style="fill:#09BA98;" width="19.744" height="5.24"/>
</g>
<rect x="273.048" y="125.376" style="fill:#5B5C5F;" width="19.744" height="5.24"/>
<rect x="245.848" y="125.376" style="fill:#09BA98;" width="19.744" height="5.24"/>
<circle style="fill:#5B5C5F;" cx="327.216" cy="210.568" r="21.152"/>
<path style="fill:#999999;" d="M327.216,233.056c-12.392,0-22.488-10.096-22.488-22.488c0-12.392,10.096-22.488,22.488-22.488
	s22.488,10.096,22.488,22.488S339.608,233.056,327.216,233.056z M327.216,190.744c-10.928,0-19.824,8.896-19.824,19.824
	c0,10.928,8.896,19.824,19.824,19.824s19.824-8.896,19.824-19.824S338.144,190.744,327.216,190.744z"/>
<circle cx="327.216" cy="210.568" r="15.024"/>
<circle style="fill:#09BA98;" cx="327.216" cy="210.568" r="6.392"/>
<g style="opacity:0.5;">
	<rect x="222.808" y="421.568" style="fill:#FFFFFF;" width="66.4" height="20.096"/>
</g>
<path style="fill:#5B5C5F;" d="M320.664,142.352H191.352l-18.32,26.416c1.2,0.176,2.424,0.304,3.688,0.304h158.584
	c1.264,0,2.488-0.128,3.688-0.304L320.664,142.352z"/>
<circle cx="269.528" cy="155.704" r="3.928"/>
<circle cx="283.384" cy="155.704" r="3.928"/>
<circle cx="297.208" cy="155.704" r="3.928"/>
<circle cx="311.096" cy="155.704" r="3.928"/>
<g style="opacity:0.2;">
	<path style="fill:#FFFFFF;" d="M356.92,0H256.008v485.792H356.92c5.768,0,10.488-4.72,10.488-10.488V10.488
		C367.408,4.72,362.688,0,356.92,0z"/>
</g>
<rect x="196.68" y="153.04" width="24.24" height="5.336"/>
<rect x="231.76" y="153.04" width="24.24" height="5.336"/>
<g>
</g>
<g>
</g>
<g>
</g>
<g>
</g>
<g>
</g>
<g>
</g>
<g>
</g>
<g>
</g>
<g>
</g>
<g>
</g>
<g>
</g>
<g>
</g>
<g>
</g>
<g>
</g>
<g>
</g>
</svg>
