<?xml version="1.0" encoding="iso-8859-1"?>
<!-- Generator: Adobe Illustrator 18.0.0, SVG Export Plug-In . SVG Version: 6.00 Build 0)  -->
<!DOCTYPE svg PUBLIC "-//W3C//DTD SVG 1.1//EN" "http://www.w3.org/Graphics/SVG/1.1/DTD/svg11.dtd">
<svg version="1.1" id="Capa_1" xmlns="http://www.w3.org/2000/svg" xmlns:xlink="http://www.w3.org/1999/xlink" x="0px" y="0px"
	 viewBox="0 0 402.73 402.73" style="enable-background:new 0 0 402.73 402.73;" xml:space="preserve">
<path style="fill:#66645D;" d="M395.41,292.775c9.76,9.76,9.76,25.59,0,35.35c-4.88,4.89-11.28,7.33-17.68,7.33
	c-6.4,0-12.8-2.44-17.68-7.33l-7.77-7.77v-0.01l35.35-35.35L395.41,292.775z"/>
<polygon style="fill:#E2E0D0;" points="302,199.365 387.63,284.995 352.28,320.345 352.28,320.355 302,270.075 191.76,159.835 
	179.74,112.455 227.12,124.475 302,199.355 "/>
<path style="fill:#CCCCCC;" d="M44,360.365l-14.42,37h-1.56c-15.48,0-28.02-12.54-28.02-28.02v-8.98H44z"/>
<path style="fill:#CCCCCC;" d="M182.43,5.365l-14.42,37H0v-8.98c0-15.48,12.54-28.02,28.02-28.02H182.43z"/>
<path style="fill:#999999;" d="M302,33.385v8.98H168.01l14.42-37h91.55C289.46,5.365,302,17.905,302,33.385z"/>
<path style="fill:#999999;" d="M302,360.365v8.98c0,15.48-12.54,28.02-28.02,28.02H29.58l14.42-37H302z"/>
<polygon style="fill:#1A1A1A;" points="302,270.075 302,360.365 44,360.365 168.01,42.365 302,42.365 302,199.355 227.12,124.475 
	179.74,112.455 191.76,159.835 "/>
<polygon style="fill:#4D4D4D;" points="168.01,42.365 44,360.365 0,360.365 0,42.365 "/>
<g>
</g>
<g>
</g>
<g>
</g>
<g>
</g>
<g>
</g>
<g>
</g>
<g>
</g>
<g>
</g>
<g>
</g>
<g>
</g>
<g>
</g>
<g>
</g>
<g>
</g>
<g>
</g>
<g>
</g>
</svg>
