<?xml version="1.0" encoding="iso-8859-1"?>
<!-- Generator: Adobe Illustrator 18.0.0, SVG Export Plug-In . SVG Version: 6.00 Build 0)  -->
<!DOCTYPE svg PUBLIC "-//W3C//DTD SVG 1.1//EN" "http://www.w3.org/Graphics/SVG/1.1/DTD/svg11.dtd">
<svg version="1.1" id="Capa_1" xmlns="http://www.w3.org/2000/svg" xmlns:xlink="http://www.w3.org/1999/xlink" x="0px" y="0px"
	 viewBox="0 0 393.9 393.9" style="enable-background:new 0 0 393.9 393.9;" xml:space="preserve">
<g>
	<polygon style="fill:#B6CCE0;" points="393.895,367.03 367.025,393.9 157.725,184.6 157.725,184.59 184.595,157.73 	"/>
	<path style="fill:#E59683;" d="M184.595,157.73l-26.87,26.86v0.01l-47.38-47.38c-7.42-7.42-7.42-19.45,0-26.87
		c3.71-3.71,8.57-5.57,13.43-5.57c4.87,0,9.73,1.86,13.44,5.57L184.595,157.73z"/>
</g>
<path style="fill:#C4C2B7;" d="M129.345,63.19c-5.523,0-10-4.477-10-10V10c0-5.523,4.477-10,10-10c5.523,0,10,4.477,10,10v43.19
	C139.345,58.713,134.868,63.19,129.345,63.19z"/>
<path style="fill:#C4C2B7;" d="M129.345,258.68c-5.523,0-10-4.477-10-10v-43.19c0-5.523,4.477-10,10-10c5.523,0,10,4.477,10,10
	v43.19C139.345,254.203,134.868,258.68,129.345,258.68z"/>
<path style="fill:#C4C2B7;" d="M75.495,85.5c-2.559,0-5.119-0.976-7.071-2.929l-30.54-30.54c-3.905-3.905-3.905-10.237,0-14.142
	c3.905-3.905,10.237-3.905,14.143,0l30.54,30.54c3.905,3.905,3.905,10.237,0,14.142C80.614,84.524,78.054,85.5,75.495,85.5z"/>
<path style="fill:#C4C2B7;" d="M53.195,139.34h-43.19c-5.523,0-10-4.477-10-10s4.477-10,10-10h43.19c5.523,0,10,4.477,10,10
	S58.718,139.34,53.195,139.34z"/>
<path style="fill:#C4C2B7;" d="M248.685,139.34h-43.19c-5.523,0-10-4.477-10-10s4.477-10,10-10h43.19c5.523,0,10,4.477,10,10
	S254.208,139.34,248.685,139.34z"/>
<path style="fill:#C4C2B7;" d="M44.955,223.73c-2.56,0-5.118-0.976-7.071-2.929c-3.905-3.905-3.905-10.237,0-14.142l30.54-30.54
	c3.905-3.904,10.237-3.905,14.142,0s3.905,10.237,0,14.142l-30.54,30.54C50.074,222.753,47.514,223.73,44.955,223.73z"/>
<path style="fill:#C4C2B7;" d="M183.185,85.5c-2.559,0-5.119-0.976-7.071-2.929c-3.905-3.905-3.905-10.237,0-14.142l30.54-30.54
	c3.905-3.905,10.237-3.905,14.143,0c3.905,3.905,3.905,10.237,0,14.142l-30.54,30.54C188.304,84.524,185.744,85.5,183.185,85.5z"/>
<g>
</g>
<g>
</g>
<g>
</g>
<g>
</g>
<g>
</g>
<g>
</g>
<g>
</g>
<g>
</g>
<g>
</g>
<g>
</g>
<g>
</g>
<g>
</g>
<g>
</g>
<g>
</g>
<g>
</g>
</svg>
