<?xml version="1.0" encoding="iso-8859-1"?>
<!-- Generator: Adobe Illustrator 19.0.0, SVG Export Plug-In . SVG Version: 6.00 Build 0)  -->
<svg version="1.1" id="Layer_1" xmlns="http://www.w3.org/2000/svg" xmlns:xlink="http://www.w3.org/1999/xlink" x="0px" y="0px"
	 viewBox="0 0 512 512" style="enable-background:new 0 0 512 512;" xml:space="preserve">
<polygon style="fill:#ABB9C6;" points="346.4,483.013 165.605,483.013 178.512,452.812 183.427,441.328 194.153,416.236 
	317.852,416.236 328.578,441.328 333.492,452.812 "/>
<polygon style="fill:#93A0AA;" points="328.578,441.328 183.427,441.328 194.153,416.236 317.852,416.236 "/>
<path style="fill:#B6C7D3;" d="M393.462,494.499H118.535l0,0c9.791-14.369,26.054-22.967,43.442-22.967h188.043
	C367.408,471.532,383.67,480.131,393.462,494.499L393.462,494.499z"/>
<path style="fill:#ABB9C6;" d="M512,59.17v326.991c0,18.511-14.997,33.52-33.509,33.52H33.509C14.997,419.681,0,404.672,0,386.161
	V59.17c0-18.511,14.997-33.52,33.509-33.52h444.983C497.003,25.65,512,40.659,512,59.17z"/>
<path style="fill:#C5D6E2;" d="M512,59.17v326.991c0,18.511-14.997,33.52-33.509,33.52H180.898l24.552-59.875L342.47,25.65h136.021
	C497.003,25.65,512,40.659,512,59.17z"/>
<path style="fill:#B8E9F2;" d="M512,59.17v300.636H0V59.17c0-18.511,14.997-33.52,33.509-33.52h444.983
	C497.003,25.65,512,40.659,512,59.17z"/>
<g>
	<path id="SVGCleanerId_0" style="fill:#D4F7FC;" d="M512,59.17v300.636H205.45L342.47,25.65h136.021
		C497.003,25.65,512,40.659,512,59.17z"/>
</g>
<path style="fill:#93A0AA;" d="M256.002,397.288c-3.448,0-6.634-2.135-7.958-5.317c-1.465-3.521-0.359-7.694,2.622-10.058
	c6.24-4.949,15.53,0.968,13.723,8.703C263.488,394.462,259.968,397.288,256.002,397.288z"/>
<g>
	<path id="SVGCleanerId_0_1_" style="fill:#D4F7FC;" d="M512,59.17v300.636H205.45L342.47,25.65h136.021
		C497.003,25.65,512,40.659,512,59.17z"/>
</g>
<g>
	<path id="SVGCleanerId_0_2_" style="fill:#D4F7FC;" d="M512,59.17v300.636H205.45L342.47,25.65h136.021
		C497.003,25.65,512,40.659,512,59.17z"/>
</g>
<path style="fill:#FFFFFF;" d="M379.34,359.806c0.114-1.044,0.18-2.101,0.18-3.176c0-15.996-12.965-28.961-28.961-28.961
	c-6.637,0-12.747,2.228-17.627,5.971c-4.858-17.064-20.567-29.57-39.193-29.57c-3.032,0-5.994,0.333-8.831,0.965l0.005-107.76
	h-57.824v107.76c-2.836-0.632-5.788-0.965-8.819-0.965c-18.638,0-34.335,12.505-39.204,29.57c-4.88-3.744-10.99-5.971-17.616-5.971
	c-15.996,0-28.973,12.965-28.973,28.961c0,1.075,0.067,2.132,0.18,3.176H379.34z"/>
<path style="fill:#F75757;" d="M307.755,140.867c0,0,51.399,27.176,25.381,99.225c0,0-30.184-26.042-77.134-26.042
	s-77.134,26.042-77.134,26.042c-26.018-72.049,25.381-99.225,25.381-99.225"/>
<path style="fill:#FFFFFF;" d="M310.491,115.781c0,41.444-21.773,77.8-54.489,98.275c-1.355-0.85-2.699-1.723-4.019-2.641
	c-0.011,0-0.011,0-0.023-0.011c-3.985-2.722-7.786-5.696-11.392-8.888c-23.966-21.221-39.067-52.215-39.067-86.734
	c0-41.444,21.773-77.8,54.5-98.275C288.719,37.981,310.491,74.337,310.491,115.781z"/>
<path style="fill:#F2F2F2;" d="M256.002,214.056c-1.183-0.873-2.526-1.745-4.019-2.641c-0.011,0-0.011,0-0.023-0.011
	c-3.985-2.722-7.786-5.696-11.392-8.888c-23.966-21.221-39.067-52.215-39.067-86.734c0-41.444,21.773-77.8,54.5-98.275
	C256.002,17.505,201.502,115.781,256.002,214.056z"/>
<path style="fill:#F75757;" d="M295.967,59.577c-16.901,16.046-42.488,20.428-63.77,10.859c-5.948-2.674-11.431-6.364-16.155-10.859
	c7.287-13.165,17.203-24.852,28.945-34.255c3.517-2.817,7.199-5.427,11.017-7.82C272.61,27.894,286.413,42.387,295.967,59.577z"/>
<path style="fill:#D84C4C;" d="M256.005,17.502c0,0-12.012,21.658-19.12,54.799c-7.855-2.733-14.94-7.108-20.842-12.724
	c7.287-13.165,17.203-24.852,28.945-34.255C248.505,22.505,252.186,19.896,256.005,17.502z"/>
<path style="fill:#FFFFFF;" d="M277.614,120.913c0,11.093-8.992,20.096-20.096,20.096c-2.4,0-4.708-0.425-6.833-1.194
	c-7.74-2.802-13.263-10.209-13.263-18.902c0-11.104,9.003-20.096,20.096-20.096c1.952,0,3.835,0.276,5.615,0.804
	C271.505,104.034,277.614,111.762,277.614,120.913z"/>
<path style="fill:#E6E6E6;" d="M277.614,120.913c0,11.093-8.992,20.096-20.096,20.096c-2.4,0-4.708-0.425-6.833-1.194l12.448-38.194
	C271.505,104.034,277.614,111.762,277.614,120.913z"/>
<path style="fill:#F75757;" d="M257.52,146.173c-13.931,0-25.264-11.333-25.264-25.264s11.333-25.264,25.264-25.264
	s25.264,11.333,25.264,25.264S271.451,146.173,257.52,146.173z M257.52,105.981c-8.231,0-14.928,6.697-14.928,14.928
	s6.697,14.928,14.928,14.928c8.231,0,14.928-6.697,14.928-14.928S265.752,105.981,257.52,105.981z"/>
<g>
	<path style="fill:#E6E6E6;" d="M244.515,240.283c-1.427,6.89-2.167,13.78-2.7,20.67c-0.505,6.89-0.741,13.78-0.744,20.67
		c-0.006,6.89,0.231,13.78,0.735,20.67c0.531,6.89,1.273,13.78,2.709,20.67c1.435-6.89,2.178-13.78,2.709-20.67
		c0.505-6.89,0.741-13.78,0.735-20.67c-0.003-6.89-0.239-13.78-0.744-20.67C246.682,254.063,245.943,247.173,244.515,240.283z"/>
	<path style="fill:#E6E6E6;" d="M270.182,260.953c-0.533-6.89-1.272-13.78-2.7-20.67c-1.427,6.89-2.167,13.78-2.7,20.67
		c-0.505,6.89-0.741,13.78-0.744,20.67c-0.006,6.89,0.231,13.78,0.735,20.67c0.531,6.89,1.273,13.78,2.709,20.67
		c1.435-6.89,2.178-13.78,2.709-20.67c0.505-6.89,0.741-13.78,0.735-20.67C270.923,274.733,270.687,267.843,270.182,260.953z"/>
</g>
<g>
</g>
<g>
</g>
<g>
</g>
<g>
</g>
<g>
</g>
<g>
</g>
<g>
</g>
<g>
</g>
<g>
</g>
<g>
</g>
<g>
</g>
<g>
</g>
<g>
</g>
<g>
</g>
<g>
</g>
</svg>
