<?xml version="1.0" encoding="iso-8859-1"?>
<!-- Generator: Adobe Illustrator 18.0.0, SVG Export Plug-In . SVG Version: 6.00 Build 0)  -->
<!DOCTYPE svg PUBLIC "-//W3C//DTD SVG 1.1//EN" "http://www.w3.org/Graphics/SVG/1.1/DTD/svg11.dtd">
<svg version="1.1" id="Capa_1" xmlns="http://www.w3.org/2000/svg" xmlns:xlink="http://www.w3.org/1999/xlink" x="0px" y="0px"
	 viewBox="0 0 450.38 450.38" style="enable-background:new 0 0 450.38 450.38;" xml:space="preserve">
<path style="fill:#E2E0D0;" d="M389.7,413.96l0.1,0.1c-22.44,22.44-53.44,36.32-87.68,36.32c-60.28,0-110.5-43-121.67-100h-0.01
	c-1.52-7.76-2.32-15.79-2.32-24c0-68.48,55.51-124,124-124v124L389.7,413.96z"/>
<path style="fill:#B6CCE0;" d="M426.12,326.38h-124v-124c24.84,0,47.97,7.3,67.37,19.88C403.57,244.36,426.12,282.74,426.12,326.38z
	"/>
<path style="fill:#E59683;" d="M302.12,326.38h124c0,34.24-13.88,65.24-36.32,87.68l-0.1-0.1L302.12,326.38z"/>
<path style="fill:#E59683;" d="M375.72,175.73h-0.01H199.98L75.79,51.54l-0.07-0.06C107.52,19.67,151.45,0,199.99,0
	C297.04,0,375.72,78.68,375.72,175.73z"/>
<path style="fill:#D3D1C1;" d="M375.71,175.73h0.01c0,16.11-2.17,31.71-6.23,46.53c-19.4-12.58-42.53-19.88-67.37-19.88
	c-68.49,0-124,55.52-124,124c0,8.21,0.8,16.24,2.32,24c-87.86-9.72-156.18-84.2-156.18-174.65c0-48.52,19.67-92.45,51.46-124.25
	l0.07,0.06l124.19,124.19H375.71z"/>
<g>
</g>
<g>
</g>
<g>
</g>
<g>
</g>
<g>
</g>
<g>
</g>
<g>
</g>
<g>
</g>
<g>
</g>
<g>
</g>
<g>
</g>
<g>
</g>
<g>
</g>
<g>
</g>
<g>
</g>
</svg>
