<?xml version="1.0" encoding="iso-8859-1"?>
<!-- Generator: Adobe Illustrator 18.0.0, SVG Export Plug-In . SVG Version: 6.00 Build 0)  -->
<!DOCTYPE svg PUBLIC "-//W3C//DTD SVG 1.1//EN" "http://www.w3.org/Graphics/SVG/1.1/DTD/svg11.dtd">
<svg version="1.1" id="Capa_1" xmlns="http://www.w3.org/2000/svg" xmlns:xlink="http://www.w3.org/1999/xlink" x="0px" y="0px"
	 viewBox="0 0 393.162 393.162" style="enable-background:new 0 0 393.162 393.162;" xml:space="preserve">
<g>
	<polygon style="fill:#BAB388;" points="217.542,239.47 170.162,251.49 182.182,204.12 	"/>
	<path style="fill:#BAB388;" d="M385.832,35.82c4.89,4.89,7.33,11.28,7.33,17.68s-2.44,12.79-7.33,17.68l-7.77,7.78l-35.36-35.36
		l7.78-7.78C360.242,26.06,376.072,26.06,385.832,35.82z"/>
	<polygon style="fill:#4D4D4D;" points="378.062,78.96 217.542,239.47 182.182,204.12 342.702,43.6 	"/>
	<rect x="142.493" y="250.668" style="fill:#4D4D4D;" width="28.499" height="28.499"/>
	<rect x="113.994" y="279.166" style="fill:#4D4D4D;" width="28.499" height="28.499"/>
	<rect x="85.496" y="307.665" style="fill:#4D4D4D;" width="28.499" height="28.499"/>
	<rect x="56.997" y="336.164" style="fill:#4D4D4D;" width="28.499" height="28.499"/>
	<rect x="28.499" y="307.665" style="fill:#4D4D4D;" width="28.499" height="28.499"/>
	<rect x="0" y="279.166" style="fill:#4D4D4D;" width="28.499" height="28.499"/>
</g>
<g>
</g>
<g>
</g>
<g>
</g>
<g>
</g>
<g>
</g>
<g>
</g>
<g>
</g>
<g>
</g>
<g>
</g>
<g>
</g>
<g>
</g>
<g>
</g>
<g>
</g>
<g>
</g>
<g>
</g>
</svg>
