<?xml version="1.0" encoding="iso-8859-1"?>
<!-- Generator: Adobe Illustrator 18.0.0, SVG Export Plug-In . SVG Version: 6.00 Build 0)  -->
<!DOCTYPE svg PUBLIC "-//W3C//DTD SVG 1.1//EN" "http://www.w3.org/Graphics/SVG/1.1/DTD/svg11.dtd">
<svg version="1.1" id="Capa_1" xmlns="http://www.w3.org/2000/svg" xmlns:xlink="http://www.w3.org/1999/xlink" x="0px" y="0px"
	 viewBox="0 0 393.29 393.29" style="enable-background:new 0 0 393.29 393.29;" xml:space="preserve">
<polygon style="fill:#A8A69A;" points="324.64,87.445 255.55,87.445 255.55,18.365 "/>
<polygon style="fill:#E2E0D0;" points="324.64,87.445 324.64,196.365 68.64,196.365 68.64,18.365 255.55,18.365 255.55,87.445 "/>
<path style="fill:#66645D;" d="M343.01,302.281v24.087c0,3.312-2.685,5.996-5.996,5.996H56.286c-3.312,0-5.996-2.685-5.996-5.996
	v-24.087c0-3.312,2.685-5.996,5.996-5.996h280.727C340.325,296.285,343.01,298.97,343.01,302.281z"/>
<path style="fill:#A8A69A;" d="M393.29,206.616v23.749H0v-23.749c0-5.661,4.59-10.251,10.251-10.251H68.64h256h58.399
	C388.7,196.365,393.29,200.955,393.29,206.616z"/>
<path style="fill:#E2E0D0;" d="M393.29,230.365v106.9c0,20.8-16.86,37.66-37.66,37.66H37.66c-20.8,0-37.66-16.86-37.66-37.66v-106.9
	H393.29z M343.01,326.369v-24.087c0-3.312-2.685-5.996-5.996-5.996H56.286c-3.312,0-5.996,2.685-5.996,5.996v24.087
	c0,3.312,2.685,5.996,5.996,5.996h280.727C340.325,332.365,343.01,329.68,343.01,326.369z"/>
<path style="fill:#E59683;" d="M38,268.365c-2.63,0-5.21-1.07-7.07-2.93c-1.86-1.86-2.93-4.44-2.93-7.07c0-2.63,1.07-5.21,2.93-7.07
	c1.86-1.86,4.44-2.93,7.07-2.93c2.63,0,5.21,1.07,7.07,2.93c1.87,1.86,2.93,4.44,2.93,7.07c0,2.63-1.06,5.21-2.93,7.07
	C43.21,267.295,40.63,268.365,38,268.365z"/>
<path style="fill:#D3D1C1;" d="M210.924,296.285h126.089c3.312,0,5.996,2.685,5.996,5.996v24.087c0,3.312-2.685,5.996-5.996,5.996
	H189.096l-25.749,42.56H355.63c20.8,0,37.66-16.86,37.66-37.66v-106.9H250.806L210.924,296.285z"/>
<g>
</g>
<g>
</g>
<g>
</g>
<g>
</g>
<g>
</g>
<g>
</g>
<g>
</g>
<g>
</g>
<g>
</g>
<g>
</g>
<g>
</g>
<g>
</g>
<g>
</g>
<g>
</g>
<g>
</g>
</svg>
