<?xml version="1.0" encoding="iso-8859-1"?>
<!-- Generator: Adobe Illustrator 18.0.0, SVG Export Plug-In . SVG Version: 6.00 Build 0)  -->
<!DOCTYPE svg PUBLIC "-//W3C//DTD SVG 1.1//EN" "http://www.w3.org/Graphics/SVG/1.1/DTD/svg11.dtd">
<svg version="1.1" id="Capa_1" xmlns="http://www.w3.org/2000/svg" xmlns:xlink="http://www.w3.org/1999/xlink" x="0px" y="0px"
	 viewBox="0 0 432.59 432.59" style="enable-background:new 0 0 432.59 432.59;" xml:space="preserve">
<path style="fill:#E2E0D0;" d="M432.59,51.735v221.36H0V51.735c0-6.67,5.41-12.08,12.08-12.08h408.43
	C427.18,39.655,432.59,45.065,432.59,51.735z"/>
<path style="fill:#D3D1C1;" d="M420.51,39.655H280.185l-141.229,233.44H432.59V51.735C432.59,45.065,427.18,39.655,420.51,39.655z"
	/>
<path style="fill:#B6CCE0;" d="M147.9,115.655v86H75.324c-6.089,0-11.024-4.936-11.024-11.024v-63.951
	c0-6.089,4.936-11.024,11.024-11.024H147.9z"/>
<path style="fill:#F4F1E6;" d="M368.3,126.679v63.951c0,6.089-4.936,11.024-11.024,11.024H147.9v-86h209.376
	C363.364,115.655,368.3,120.591,368.3,126.679z"/>
<path style="fill:#E2E0D0;" d="M357.276,201.655c6.089,0,11.024-4.936,11.024-11.024v-63.951c0-6.089-4.936-11.024-11.024-11.024
	h-123.07l-52.029,86H357.276z"/>
<polygon style="fill:#808080;" points="254.79,314.045 263.85,382.935 168.75,382.935 177.81,314.045 "/>
<path style="fill:#999999;" d="M432.59,273.095v28.86c0,6.68-5.41,12.09-12.08,12.09H254.79h-76.98H12.08
	c-6.67,0-12.08-5.41-12.08-12.09v-28.86H432.59z"/>
<rect x="132.47" y="372.935" style="fill:#999999;" width="167.65" height="20"/>
<path style="fill:#808080;" d="M102.004,181.561c-7.234,0-14.035-2.817-19.15-7.933c-10.547-10.547-10.549-27.722-0.005-38.285
	c10.572-10.554,27.747-10.552,38.294-0.005c5.116,5.115,7.934,11.917,7.934,19.15c0,7.236-2.819,14.035-7.938,19.145
	C116.038,178.742,109.239,181.561,102.004,181.561z M102.004,141.42c-3.351,0-6.702,1.274-9.256,3.823
	c-5.086,5.096-5.088,13.393,0.005,18.487c2.471,2.471,5.757,3.832,9.251,3.832c3.491,0,6.771-1.359,9.235-3.828
	c2.478-2.473,3.837-5.753,3.837-9.245c0-3.494-1.361-6.78-3.832-9.251C108.698,142.692,105.352,141.42,102.004,141.42z"/>
<path style="fill:#808080;" d="M130.404,189.888c-1.791,0-3.583-0.684-4.949-2.05l-14.21-14.209
	c-2.734-2.733-2.734-7.166-0.001-9.899c2.734-2.733,7.167-2.733,9.899,0l14.21,14.209c2.734,2.733,2.734,7.166,0.001,9.899
	C133.987,189.205,132.195,189.888,130.404,189.888z"/>
<g>
</g>
<g>
</g>
<g>
</g>
<g>
</g>
<g>
</g>
<g>
</g>
<g>
</g>
<g>
</g>
<g>
</g>
<g>
</g>
<g>
</g>
<g>
</g>
<g>
</g>
<g>
</g>
<g>
</g>
</svg>
