<?xml version="1.0" encoding="iso-8859-1"?>
<!-- Generator: Adobe Illustrator 18.0.0, SVG Export Plug-In . SVG Version: 6.00 Build 0)  -->
<!DOCTYPE svg PUBLIC "-//W3C//DTD SVG 1.1//EN" "http://www.w3.org/Graphics/SVG/1.1/DTD/svg11.dtd">
<svg version="1.1" id="Capa_1" xmlns="http://www.w3.org/2000/svg" xmlns:xlink="http://www.w3.org/1999/xlink" x="0px" y="0px"
	 viewBox="0 0 440.4 440.4" style="enable-background:new 0 0 440.4 440.4;" xml:space="preserve">
<path style="fill:#D9F1F9;" d="M333.03,257.7l0.07,0.03c-4.34,12.15-11.37,23.54-21.1,33.27c-35.16,35.16-92.16,35.16-127.32,0
	c-9.73-9.73-16.77-21.14-21.11-33.3H333.03z"/>
<path style="fill:#E2E0D0;" d="M434.31,383.91c8.12,8.12,8.12,21.28,0,29.4c-4.06,4.06-9.38,6.09-14.7,6.09
	c-5.32,0-10.64-2.03-14.7-6.09l-84.1-84.09l-0.01-0.01c5.59-3.97,10.92-8.47,15.93-13.48c5.01-5,9.5-10.33,13.47-15.91h0.01
	L434.31,383.91z"/>
<path style="fill:#BCBBAF;" d="M371.68,207c5.23,31.89-1.93,65.42-21.48,92.82c-3.97,5.58-8.46,10.91-13.47,15.91
	c-5.01,5.01-10.34,9.51-15.93,13.48c-48.82,34.83-117.04,30.33-160.85-13.48C130.35,286.13,118.7,245.38,125,207
	c4.08-24.92,15.73-48.82,34.95-68.04c48.82-48.82,127.96-48.82,176.78,0C355.95,158.18,367.6,182.08,371.68,207z M333.1,257.73
	c11.36-31.75,4.33-68.61-21.1-94.04c-35.16-35.16-92.16-35.16-127.32,0c-25.42,25.42-32.46,62.26-21.11,94.01
	c4.34,12.16,11.38,23.57,21.11,33.3c35.16,35.16,92.16,35.16,127.32,0C321.73,281.27,328.76,269.88,333.1,257.73z"/>
<path style="fill:#B6CCE0;" d="M312,163.69c25.43,25.43,32.46,62.29,21.1,94.04l-0.07-0.03H163.57
	c-11.35-31.75-4.31-68.59,21.11-94.01C219.84,128.53,276.84,128.53,312,163.69z"/>
<path style="fill:#B6CCE0;" d="M422,21v186h-50.32c-4.08-24.92-15.73-48.82-34.95-68.04c-48.82-48.82-127.96-48.82-176.78,0
	C140.73,158.18,129.08,182.08,125,207H0V21H422z"/>
<rect x="238.3" y="161.997" transform="matrix(0.7071 0.7071 -0.7071 0.7071 212.02 -117.8741)" style="fill:#E59683;" width="20" height="70.007"/>
<rect x="213.297" y="187" transform="matrix(0.7071 0.7071 -0.7071 0.7071 212.0224 -117.8744)" style="fill:#E59683;" width="70.007" height="20"/>
<rect x="43" y="57" style="fill:#4D4D4D;" width="336" height="20"/>
<g>
</g>
<g>
</g>
<g>
</g>
<g>
</g>
<g>
</g>
<g>
</g>
<g>
</g>
<g>
</g>
<g>
</g>
<g>
</g>
<g>
</g>
<g>
</g>
<g>
</g>
<g>
</g>
<g>
</g>
</svg>
