<?xml version="1.0" encoding="iso-8859-1"?>
<!-- Generator: Adobe Illustrator 18.0.0, SVG Export Plug-In . SVG Version: 6.00 Build 0)  -->
<!DOCTYPE svg PUBLIC "-//W3C//DTD SVG 1.1//EN" "http://www.w3.org/Graphics/SVG/1.1/DTD/svg11.dtd">
<svg version="1.1" id="Capa_1" xmlns="http://www.w3.org/2000/svg" xmlns:xlink="http://www.w3.org/1999/xlink" x="0px" y="0px"
	 viewBox="0 0 409.185 409.185" style="enable-background:new 0 0 409.185 409.185;" xml:space="preserve">
<path style="fill:#B2B1AA;" d="M329.988,36.838v15.96h-31.096H79.197v-15.96C79.197,16.488,95.686,0,116.035,0H293.15
	C313.489,0,329.988,16.488,329.988,36.838z"/>
<path style="fill:#B2B1AA;" d="M117.366,354.187h212.622v18.16c0,20.349-16.499,36.838-36.838,36.838h-10.252H116.035
	c-20.349,0-36.838-16.488-36.838-36.838v-18.16H117.366z"/>
<polygon style="fill:#D3D1C1;" points="329.988,196.893 329.988,354.187 117.366,354.187 298.892,54.14 298.892,52.798 
	329.988,52.798 329.988,152.344 "/>
<polygon style="fill:#E2E0D0;" points="298.892,52.798 298.892,54.14 117.366,354.187 79.197,354.187 79.197,52.798 "/>
<circle style="fill:#969489;" cx="204.593" cy="381.686" r="16.499"/>
<g>
	<path style="fill:#1A1A1A;" d="M166.148,237.323c-2.56,0-5.12-0.977-7.072-2.93l-31.11-31.12
		c-3.904-3.905-3.904-10.236,0.001-14.141l31.11-31.11c3.905-3.905,10.237-3.905,14.143,0c3.905,3.905,3.905,10.237,0,14.143
		l-24.04,24.04l24.041,24.049c3.905,3.906,3.903,10.237-0.002,14.142C171.265,236.346,168.706,237.323,166.148,237.323z"/>
	<path style="fill:#1A1A1A;" d="M243.038,237.323c-2.559,0-5.117-0.976-7.07-2.928c-3.905-3.905-3.906-10.236-0.002-14.142
		l24.041-24.049l-24.04-24.04c-3.905-3.905-3.905-10.237,0-14.142c3.907-3.905,10.237-3.905,14.143,0l31.109,31.11
		c3.904,3.905,3.905,10.235,0.001,14.141l-31.109,31.12C248.158,236.345,245.598,237.323,243.038,237.323z"/>
	<path style="fill:#1A1A1A;" d="M192.158,262.204c-0.639,0-1.287-0.062-1.938-0.189c-5.419-1.064-8.95-6.321-7.885-11.74l22-112
		c1.064-5.42,6.321-8.949,11.74-7.885c5.419,1.064,8.949,6.321,7.885,11.74l-22,112
		C201.024,258.898,196.841,262.204,192.158,262.204z"/>
</g>
<g>
</g>
<g>
</g>
<g>
</g>
<g>
</g>
<g>
</g>
<g>
</g>
<g>
</g>
<g>
</g>
<g>
</g>
<g>
</g>
<g>
</g>
<g>
</g>
<g>
</g>
<g>
</g>
<g>
</g>
</svg>
