<?xml version="1.0" encoding="iso-8859-1"?>
<!-- Generator: Adobe Illustrator 18.0.0, SVG Export Plug-In . SVG Version: 6.00 Build 0)  -->
<!DOCTYPE svg PUBLIC "-//W3C//DTD SVG 1.1//EN" "http://www.w3.org/Graphics/SVG/1.1/DTD/svg11.dtd">
<svg version="1.1" id="Capa_1" xmlns="http://www.w3.org/2000/svg" xmlns:xlink="http://www.w3.org/1999/xlink" x="0px" y="0px"
	 viewBox="0 0 451.24 451.24" style="enable-background:new 0 0 451.24 451.24;" xml:space="preserve">
<path style="fill:#4D4D4D;" d="M318.615,148.26v154.73c0,8.63-7,15.62-15.63,15.62h-154.73c-8.63,0-15.63-6.99-15.63-15.62V148.26
	c0-8.64,7-15.63,15.63-15.63h154.73C311.615,132.63,318.615,139.62,318.615,148.26z"/>
<path style="fill:#1A1A1A;" d="M302.985,318.61c8.63,0,15.63-6.99,15.63-15.62V148.26c0-8.64-7-15.63-15.63-15.63h-28.447
	L162.021,318.61H302.985z"/>
<path style="fill:#999999;" d="M314.595,351.61v78.575c0,11.628-9.427,21.055-21.055,21.055H157.7
	c-11.628,0-21.055-9.427-21.055-21.055V351.61l0.11-0.64c2.45,0.42,4.96,0.64,7.53,0.64h162.68c2.56,0,5.08-0.22,7.52-0.63
	L314.595,351.61z"/>
<path style="fill:#999999;" d="M293.54,0c11.628,0,21.055,9.427,21.055,21.055V99.63l-0.11,0.63c-2.44-0.41-4.96-0.63-7.52-0.63
	h-162.68c-2.57,0-5.08,0.22-7.53,0.64l-0.11-0.64V21.055C136.645,9.427,146.072,0,157.7,0H293.54z"/>
<path style="fill:#808080;" d="M351.615,144.28v162.68c0,22.1-16.05,40.44-37.13,44.02c-2.44,0.41-4.96,0.63-7.52,0.63h-162.68
	c-2.57,0-5.08-0.22-7.53-0.64c-21.08-3.57-37.13-21.92-37.13-44.01V144.28c0-22.09,16.05-40.44,37.13-44.01
	c2.45-0.42,4.96-0.64,7.53-0.64h162.68c2.56,0,5.08,0.22,7.52,0.63C335.565,103.84,351.615,122.18,351.615,144.28z M318.615,302.99
	V148.26c0-8.64-7-15.63-15.63-15.63h-154.73c-8.63,0-15.63,6.99-15.63,15.63v154.73c0,8.63,7,15.62,15.63,15.62h154.73
	C311.615,318.61,318.615,311.62,318.615,302.99z"/>
<path style="fill:#1A1A1A;" d="M314.485,100.26c-2.44-0.41-4.96-0.63-7.52-0.63h-12.462l-19.965,33h28.447
	c8.63,0,15.63,6.99,15.63,15.63v154.73c0,8.63-7,15.62-15.63,15.62H162.021l-19.929,32.941c0.727,0.036,1.457,0.059,2.193,0.059
	h162.68c2.56,0,5.08-0.22,7.52-0.63c21.08-3.58,37.13-21.92,37.13-44.02V144.28C351.615,122.18,335.565,103.84,314.485,100.26z"/>
<g>
	<path style="fill:#E59683;" d="M190.265,264.23c-2.559,0-5.118-0.976-7.071-2.929l-28.61-28.61
		c-1.875-1.875-2.929-4.419-2.929-7.071s1.054-5.196,2.929-7.071l28.61-28.61c3.905-3.904,10.237-3.905,14.142,0
		s3.905,10.237,0,14.142l-21.539,21.539l21.539,21.539c3.905,3.905,3.906,10.237,0,14.142
		C195.384,263.253,192.824,264.23,190.265,264.23z"/>
	<path style="fill:#E59683;" d="M260.975,264.23c-2.559,0-5.119-0.976-7.071-2.929c-3.905-3.905-3.905-10.237,0-14.143
		l21.539-21.539l-21.539-21.539c-3.905-3.905-3.905-10.237,0-14.143s10.237-3.905,14.143,0l28.61,28.61
		c3.905,3.905,3.905,10.237,0,14.143l-28.61,28.61C266.094,263.254,263.534,264.23,260.975,264.23z"/>
	<path style="fill:#E59683;" d="M214.186,287.122c-0.64,0-1.288-0.062-1.939-0.189c-5.419-1.065-8.949-6.321-7.884-11.741l20.24-103
		c1.065-5.419,6.324-8.949,11.741-7.884c5.419,1.065,8.949,6.321,7.884,11.741l-20.24,103
		C223.05,283.816,218.868,287.122,214.186,287.122z"/>
</g>
<g>
</g>
<g>
</g>
<g>
</g>
<g>
</g>
<g>
</g>
<g>
</g>
<g>
</g>
<g>
</g>
<g>
</g>
<g>
</g>
<g>
</g>
<g>
</g>
<g>
</g>
<g>
</g>
<g>
</g>
</svg>
