<?xml version="1.0" encoding="iso-8859-1"?>
<!-- Generator: Adobe Illustrator 18.0.0, SVG Export Plug-In . SVG Version: 6.00 Build 0)  -->
<!DOCTYPE svg PUBLIC "-//W3C//DTD SVG 1.1//EN" "http://www.w3.org/Graphics/SVG/1.1/DTD/svg11.dtd">
<svg version="1.1" id="Capa_1" xmlns="http://www.w3.org/2000/svg" xmlns:xlink="http://www.w3.org/1999/xlink" x="0px" y="0px"
	 viewBox="0 0 415.939 415.939" style="enable-background:new 0 0 415.939 415.939;" xml:space="preserve">
<path style="fill:#EAE8DC;" d="M145.374,369.339l117,17.44c-2.4,3.61-5.16,6.97-8.21,10.02c-11.82,11.83-28.15,19.14-46.19,19.14
	C178.404,415.939,153.424,396.289,145.374,369.339z"/>
<path style="fill:#E2E0D0;" d="M142.644,331.929l130.65,18.68c0,13.38-4.02,25.82-10.92,36.17l-117-17.44
	c-1.78-5.93-2.73-12.22-2.73-18.73V331.929z"/>
<polygon style="fill:#D1CEBA;" points="273.294,306.359 273.294,350.609 142.644,331.929 142.644,306.359 "/>
<g>
	<path style="fill:#E59683;" d="M175.964,106.909c0,8.551,3.33,16.586,9.376,22.625c3.607,3.606,7.925,6.237,12.634,7.78v-60.82
		c-4.708,1.543-9.025,4.172-12.629,7.776C179.296,90.32,175.964,98.36,175.964,106.909z"/>
	<path style="fill:#E59683;" d="M217.974,221.325c4.708-1.543,9.025-4.172,12.629-7.777c6.043-6.043,9.371-14.08,9.371-22.628
		c0-8.549-3.328-16.586-9.371-22.629c-3.604-3.609-7.92-6.241-12.629-7.785V221.325z"/>
	<path style="fill:#E59683;" d="M203.284,0.089c-61.61,2.36-111.89,52.35-114.58,113.94c-1.1,24.95,5.48,48.29,17.55,67.88
		c23.13,37.51,36.39,80.26,36.39,124.34v0.11h130.65v-0.11c0-43.15,11.47-85.84,34.94-122.06c12.1-18.66,19.12-40.9,19.12-64.8
		C327.354,51.899,271.354-2.511,203.284,0.089z M244.75,154.152c9.816,9.817,15.225,22.876,15.225,36.767
		s-5.408,26.95-15.229,36.771c-7.421,7.421-16.692,12.317-26.771,14.27v10.05c0,5.523-4.478,10-10,10s-10-4.477-10-10v-10.05
		c-10.08-1.953-19.351-6.849-26.771-14.269c-9.825-9.813-15.238-22.874-15.238-36.771c0-5.523,4.478-10,10-10s10,4.477,10,10
		c0,8.55,3.33,16.585,9.376,22.625c3.607,3.607,7.925,6.237,12.634,7.78V157.95c-10.08-1.953-19.351-6.849-26.771-14.269
		c-9.825-9.813-15.238-22.874-15.238-36.771c0-13.891,5.412-26.954,15.238-36.781c7.421-7.42,16.691-12.317,26.771-14.27v-10.05
		c0-5.523,4.478-10,10-10s10,4.477,10,10v10.065c23.903,4.677,42,25.778,42,51.035c0,5.523-4.478,10-10,10s-10-4.477-10-10
		c0-14.157-9.239-26.189-22-30.4v63.36C228.059,141.823,237.331,146.724,244.75,154.152z"/>
</g>
<g>
</g>
<g>
</g>
<g>
</g>
<g>
</g>
<g>
</g>
<g>
</g>
<g>
</g>
<g>
</g>
<g>
</g>
<g>
</g>
<g>
</g>
<g>
</g>
<g>
</g>
<g>
</g>
<g>
</g>
</svg>
