<?xml version="1.0" encoding="iso-8859-1"?>
<!-- Generator: Adobe Illustrator 18.0.0, SVG Export Plug-In . SVG Version: 6.00 Build 0)  -->
<!DOCTYPE svg PUBLIC "-//W3C//DTD SVG 1.1//EN" "http://www.w3.org/Graphics/SVG/1.1/DTD/svg11.dtd">
<svg version="1.1" id="Capa_1" xmlns="http://www.w3.org/2000/svg" xmlns:xlink="http://www.w3.org/1999/xlink" x="0px" y="0px"
	 viewBox="0 0 447.97 447.97" style="enable-background:new 0 0 447.97 447.97;" xml:space="preserve">
<path style="fill:#C4C2B7;" d="M390.1,123.117v234.71c0,15.44-12.51,27.94-27.94,27.94H27.94c-15.43,0-27.94-12.5-27.94-27.94
	v-234.71c0-15.43,12.51-27.94,27.94-27.94h334.22C377.59,95.177,390.1,107.687,390.1,123.117z"/>
<path style="fill:#66645D;" d="M304.139,50.567L286.48,68.227l-38.18-38.19l17.651-17.651c3.429-3.429,8.989-3.43,12.419-0.001
	l25.768,25.762C307.569,41.576,307.569,47.137,304.139,50.567z"/>
<path style="fill:#E2E0D0;" d="M259.53,95.177l-41.25,41.25l-42.63,42.63c-10.54,10.54-27.64,10.54-38.18,0
	c-5.28-5.27-7.91-12.18-7.91-19.09s2.63-13.82,7.91-19.09l4.42-4.43l41.25-41.25l65.16-65.16l38.18,38.19L259.53,95.177z"/>
<path style="fill:#A8A69A;" d="M390.1,136.427v91.85h-38.69c-6.8,0-12.31-5.51-12.31-12.3v-67.24c0-6.8,5.51-12.31,12.31-12.31
	H390.1z"/>
<path style="fill:#A8A69A;" d="M390.1,253.067v91.85h-38.69c-6.8,0-12.31-5.51-12.31-12.31v-67.24c0-6.79,5.51-12.3,12.31-12.3
	H390.1z"/>
<path style="fill:#B2B1AA;" d="M137.47,179.057c10.54,10.54,27.64,10.54,38.18,0l37.983-37.983
	c2.975-2.975,7.011-4.647,11.219-4.647h82.422c8.763,0,15.866,7.104,15.866,15.866v85.374v91.384
	c0,8.763-7.104,15.866-15.866,15.866H53.367c-8.763,0-15.866-7.104-15.866-15.866V152.293c0-8.763,7.104-15.866,15.866-15.866
	h88.504l0.02,0.02l-4.42,4.43c-5.28,5.27-7.91,12.18-7.91,19.09S132.19,173.787,137.47,179.057z"/>
<path style="fill:#66645D;" d="M137.47,179.057c-2.455-2.45-4.329-5.257-5.64-8.251c-0.503,0.344-0.984,0.734-1.431,1.18
	l-11.98,11.98c-3.905,3.905-3.905,10.237,0,14.142c1.953,1.953,4.512,2.929,7.071,2.929s5.119-0.976,7.071-2.929l11.98-11.98
	c0.448-0.448,0.838-0.931,1.183-1.436C142.729,183.381,139.921,181.508,137.47,179.057z"/>
<path style="fill:#66645D;" d="M389.98,438.157H0v-20h389.98c20.948,0,37.99-17.047,37.99-38v-58.49c0-20.953-17.042-38-37.99-38
	v-20c31.976,0,57.99,26.019,57.99,58v58.49C447.97,412.138,421.956,438.157,389.98,438.157z"/>
<path style="fill:#66645D;" d="M184.74,141.787c-2.559,0-5.119-0.976-7.071-2.929c-3.905-3.905-3.905-10.237,0-14.142l18-18
	c3.905-3.905,10.237-3.905,14.143,0c3.905,3.905,3.905,10.237,0,14.142l-18,18C189.859,140.81,187.299,141.787,184.74,141.787z"/>
<path style="fill:#A8A69A;" d="M307.274,344.917c8.763,0,15.866-7.104,15.866-15.866v-91.384v-85.374
	c0-8.763-7.104-15.866-15.866-15.866h-57.289l-127.552,208.49H307.274z"/>
<g>
</g>
<g>
</g>
<g>
</g>
<g>
</g>
<g>
</g>
<g>
</g>
<g>
</g>
<g>
</g>
<g>
</g>
<g>
</g>
<g>
</g>
<g>
</g>
<g>
</g>
<g>
</g>
<g>
</g>
</svg>
