<?xml version="1.0" encoding="iso-8859-1"?>
<!-- Generator: Adobe Illustrator 18.0.0, SVG Export Plug-In . SVG Version: 6.00 Build 0)  -->
<!DOCTYPE svg PUBLIC "-//W3C//DTD SVG 1.1//EN" "http://www.w3.org/Graphics/SVG/1.1/DTD/svg11.dtd">
<svg version="1.1" id="Capa_1" xmlns="http://www.w3.org/2000/svg" xmlns:xlink="http://www.w3.org/1999/xlink" x="0px" y="0px"
	 viewBox="0 0 450 450" style="enable-background:new 0 0 450 450;" xml:space="preserve">
<rect x="10" y="295.4" style="fill:#E2E0D0;" width="172" height="50"/>
<rect x="311" y="295.4" style="fill:#E2E0D0;" width="129" height="50"/>
<polygon style="fill:#E59683;" points="221.25,295.4 207.25,345.4 182,345.4 182,295.4 "/>
<polygon style="fill:#E59683;" points="253.5,295.4 239.5,345.4 207.25,345.4 221.25,295.4 "/>
<polygon style="fill:#E59683;" points="254.81,295.4 285.75,295.4 271.75,345.4 239.5,345.4 253.5,295.4 "/>
<polygon style="fill:#E59683;" points="311,295.4 311,345.4 271.75,345.4 285.75,295.4 "/>
<polygon style="fill:#4D4D4D;" points="308.47,150.7 231.75,194.99 231.75,106.4 "/>
<path style="fill:#B6CCE0;" d="M374.81,74.98v149.24c0,7.942-6.438,14.38-14.38,14.38H287.6l-32.79,56.8l-32.8-56.8h-72.82
	c-7.942,0-14.38-6.438-14.38-14.38V74.98c0-7.942,6.438-14.38,14.38-14.38h211.24C368.372,60.6,374.81,67.038,374.81,74.98z
	 M231.75,194.99l76.72-44.29l-76.72-44.3V194.99z"/>
<rect y="295.4" style="fill:#999999;" width="20" height="94"/>
<rect x="172" y="295.4" style="fill:#999999;" width="20" height="94"/>
<rect x="301" y="295.4" style="fill:#999999;" width="20" height="94"/>
<rect x="430" y="295.4" style="fill:#999999;" width="20" height="94"/>
<g>
	<polygon style="fill:#C17E72;" points="263.89,295.4 249.88,345.4 229.11,345.4 243.12,295.4 	"/>
	<polygon style="fill:#C17E72;" points="296.14,295.4 282.13,345.4 261.36,345.4 275.37,295.4 	"/>
	<polygon style="fill:#C17E72;" points="231.64,295.4 217.63,345.4 196.86,345.4 210.87,295.4 	"/>
</g>
<g>
</g>
<g>
</g>
<g>
</g>
<g>
</g>
<g>
</g>
<g>
</g>
<g>
</g>
<g>
</g>
<g>
</g>
<g>
</g>
<g>
</g>
<g>
</g>
<g>
</g>
<g>
</g>
<g>
</g>
</svg>
